<svg width="56" height="56" xmlns="http://www.w3.org/2000/svg" xmlns:xlink="http://www.w3.org/1999/xlink" xml:space="preserve" overflow="hidden"><g transform="translate(-956 -132)"><g><g><g><g><path d="M1003.58 135.651C1003.1 134.234 1002.1 133.134 1000.85 132.516 999.615 131.897 998.13 131.746 995.682 132.564L967.887 141.831C965.439 142.649 964.339 143.653 963.721 144.898 963.095 146.135 962.951 147.613 963.425 149.036 963.899 150.452 964.903 151.553 966.148 152.171 967.385 152.79 968.87 152.941 971.318 152.123L999.113 142.856C1001.56 142.044 1002.66 141.034 1003.28 139.789 1003.91 138.552 1004.05 137.074 1003.58 135.651Z" fill="#FFFFFF" fill-rule="nonzero" fill-opacity="1"/><path d="M1003.58 152.804C1003.1 151.387 1002.1 150.288 1000.85 149.669 999.615 149.05 998.13 148.899 995.682 149.717L967.887 158.984C965.439 159.803 964.339 160.806 963.721 162.051 963.095 163.288 962.951 164.766 963.425 166.189 963.899 167.606 964.903 168.706 966.148 169.324 967.385 169.943 968.87 170.094 971.318 169.276L999.113 160.016C1001.56 159.197 1002.66 158.194 1003.28 156.943 1003.91 155.705 1004.05 154.227 1003.58 152.804Z" fill="#FFFFFF" fill-rule="nonzero" fill-opacity="1"/><path d="M1003.58 169.964C1003.1 168.548 1002.1 167.447 1000.85 166.829 999.615 166.21 998.13 166.059 995.682 166.877L967.887 176.144C965.439 176.962 964.339 177.966 963.721 179.211 963.095 180.448 962.951 181.926 963.425 183.349 963.899 184.766 964.903 185.866 966.148 186.484 967.385 187.103 968.87 187.254 971.318 186.436L999.113 177.169C1001.56 176.357 1002.66 175.347 1003.28 174.103 1003.91 172.865 1004.05 171.387 1003.58 169.964Z" fill="#FFFFFF" fill-rule="nonzero" fill-opacity="1"/></g></g></g></g></g></svg>