<?xml version="1.0" encoding="UTF-8"?>
<!DOCTYPE svg PUBLIC "-//W3C//DTD SVG 1.1//EN" "http://www.w3.org/Graphics/SVG/1.1/DTD/svg11.dtd">
<svg xmlns="http://www.w3.org/2000/svg" version="1.1" width="1024px" height="1024px" style="shape-rendering:geometricPrecision; text-rendering:geometricPrecision; image-rendering:optimizeQuality; fill-rule:evenodd; clip-rule:evenodd" xmlns:xlink="http://www.w3.org/1999/xlink">
<g><path style="opacity:0.197" fill="#f2f2f2" d="M 566.5,24.5 C 547.197,23.0104 527.863,22.0104 508.5,21.5C 488.476,22.131 468.476,23.131 448.5,24.5C 448.611,23.8826 448.944,23.3826 449.5,23C 488.178,18.554 526.845,18.554 565.5,23C 566.056,23.3826 566.389,23.8826 566.5,24.5 Z"/></g>
<g><path style="opacity:1" fill="#0f0f0f" d="M 566.5,24.5 C 567.833,24.5 569.167,24.5 570.5,24.5C 613.081,31.2292 654.748,41.8959 695.5,56.5C 748.406,78.1277 796.406,107.461 839.5,144.5C 902.095,201.986 947.428,270.986 975.5,351.5C 977.999,360.322 980.665,368.988 983.5,377.5C 986.037,388.645 988.704,399.645 991.5,410.5C 994.225,426.58 996.559,442.58 998.5,458.5C 999.462,465.412 999.795,472.412 999.5,479.5C 999.5,497.167 999.5,514.833 999.5,532.5C 999.5,532.833 999.5,533.167 999.5,533.5C 996.786,567.12 991.453,600.453 983.5,633.5C 974.685,663.271 963.685,692.271 950.5,720.5C 940.689,738.786 930.356,756.786 919.5,774.5C 911.532,785.476 903.532,796.476 895.5,807.5C 889.129,814.537 883.129,821.871 877.5,829.5C 857.764,849.905 837.097,869.239 815.5,887.5C 811.854,889.817 808.52,892.484 805.5,895.5C 797.301,900.097 789.635,905.43 782.5,911.5C 774.156,916.003 766.156,921.003 758.5,926.5C 758.158,927.338 757.492,927.672 756.5,927.5C 752.164,929.332 748.164,931.665 744.5,934.5C 744.158,935.338 743.492,935.672 742.5,935.5C 736.849,937.659 731.516,940.326 726.5,943.5C 721.311,945.597 716.311,947.93 711.5,950.5C 711.158,951.338 710.492,951.672 709.5,951.5C 702.984,953.93 696.65,956.597 690.5,959.5C 683.991,961.598 677.658,963.932 671.5,966.5C 670.791,967.404 669.791,967.737 668.5,967.5C 662.216,968.928 656.216,970.928 650.5,973.5C 649.432,974.434 648.099,974.768 646.5,974.5C 633.969,977.135 621.636,980.135 609.5,983.5C 609.167,983.5 608.833,983.5 608.5,983.5C 591.053,986.277 573.719,988.943 556.5,991.5C 554.5,991.5 552.5,991.5 550.5,991.5C 529.165,992.773 507.832,992.773 486.5,991.5C 484.833,991.5 483.167,991.5 481.5,991.5C 461.19,989.698 440.857,987.031 420.5,983.5C 420.167,983.5 419.833,983.5 419.5,983.5C 408.304,980.724 396.97,978.057 385.5,975.5C 383.901,975.768 382.568,975.434 381.5,974.5C 374.385,971.796 367.051,969.463 359.5,967.5C 352.046,964.459 344.38,961.792 336.5,959.5C 328.787,955.648 320.787,952.315 312.5,949.5C 308.584,946.743 304.25,944.743 299.5,943.5C 298.508,943.672 297.842,943.338 297.5,942.5C 283.508,934.837 269.508,927.17 255.5,919.5C 251.181,916.004 246.515,913.004 241.5,910.5C 234.365,904.43 226.699,899.097 218.5,894.5C 215.81,891.815 212.81,889.482 209.5,887.5C 208.833,887.5 208.5,887.167 208.5,886.5C 205.792,883.791 202.792,881.458 199.5,879.5C 190.172,871.173 180.839,862.84 171.5,854.5C 167.785,850.119 163.785,846.119 159.5,842.5C 149.137,830.475 138.804,818.475 128.5,806.5C 126.303,802.762 123.636,799.429 120.5,796.5C 115.903,788.301 110.57,780.635 104.5,773.5C 97.0821,760.327 89.4154,747.327 81.5,734.5C 72.855,716.217 64.5217,697.884 56.5,679.5C 54.2079,671.62 51.5412,663.954 48.5,656.5C 18.8017,559.059 17.9684,461.392 46,363.5C 68.424,293.609 103.924,231.609 152.5,177.5C 202.786,125.524 261.119,85.1907 327.5,56.5C 365.956,40.8964 405.623,30.2298 446.5,24.5C 447.167,24.5 447.833,24.5 448.5,24.5C 468.476,23.131 488.476,22.131 508.5,21.5C 527.863,22.0104 547.197,23.0104 566.5,24.5 Z"/></g>
<g><path style="opacity:0.135" fill="#ebebeb" d="M 570.5,24.5 C 610.586,29.179 649.586,38.3456 687.5,52C 690.633,52.8596 693.3,54.3596 695.5,56.5C 654.748,41.8959 613.081,31.2292 570.5,24.5 Z"/></g>
<g><path style="opacity:0.18" fill="#f1f1f1" d="M 446.5,24.5 C 405.623,30.2298 365.956,40.8964 327.5,56.5C 327.953,55.5416 328.619,54.7083 329.5,54C 356.884,43.267 384.884,34.6004 413.5,28C 424.41,25.9628 435.41,24.7961 446.5,24.5 Z"/></g>
<g><path style="opacity:0.205" fill="#f3f3f3" d="M 695.5,56.5 C 699.962,57.1534 704.295,58.3201 708.5,60C 754.697,79.5938 796.697,105.594 834.5,138C 836.79,139.777 838.457,141.944 839.5,144.5C 796.406,107.461 748.406,78.1277 695.5,56.5 Z"/></g>
<g><path style="opacity:0.245" fill="#f2f2f2" d="M 327.5,56.5 C 261.119,85.1907 202.786,125.524 152.5,177.5C 152.709,176.078 153.209,174.745 154,173.5C 194.436,131.75 240.603,97.5835 292.5,71C 303.711,65.061 315.378,60.2277 327.5,56.5 Z"/></g>
<g><path style="opacity:0.186" fill="#f2f2f2" d="M 839.5,144.5 C 843.964,148.112 848.631,151.612 853.5,155C 895.381,197.238 929.548,245.072 956,298.5C 960.862,309.418 965.528,320.418 970,331.5C 972.557,337.998 974.39,344.665 975.5,351.5C 947.428,270.986 902.095,201.986 839.5,144.5 Z"/></g>
<g><path style="opacity:0.267" fill="#f1f1f1" d="M 152.5,177.5 C 103.924,231.609 68.424,293.609 46,363.5C 17.9684,461.392 18.8017,559.059 48.5,656.5C 46.5905,655.025 45.4238,653.025 45,650.5C 1.88648,498.953 23.5531,357.953 110,227.5C 111,226.833 112,226.167 113,225.5C 119.508,215.15 126.508,205.15 134,195.5C 139.134,189.365 144.634,183.531 150.5,178C 151.094,177.536 151.761,177.369 152.5,177.5 Z"/></g>
<g><path style="opacity:0.179" fill="#f3f3f3" d="M 975.5,351.5 C 977.481,354.128 978.981,357.128 980,360.5C 981.647,366.084 982.813,371.751 983.5,377.5C 980.665,368.988 977.999,360.322 975.5,351.5 Z"/></g>
<g><path style="opacity:1" fill="#169489" d="M 266.5,364.5 C 321.467,367.962 357.3,395.962 374,448.5C 376.182,456.377 376.848,464.377 376,472.5C 373.575,478.795 369.075,480.962 362.5,479C 361.069,478.535 359.903,477.701 359,476.5C 356.311,452.133 347.311,430.466 332,411.5C 313.326,393.084 290.826,383.25 264.5,382C 258.755,375.389 259.421,369.555 266.5,364.5 Z"/></g>
<g><path style="opacity:0.144" fill="#f2f2f2" d="M 983.5,377.5 C 988.167,387.841 990.834,398.841 991.5,410.5C 988.704,399.645 986.037,388.645 983.5,377.5 Z"/></g>
<g><path style="opacity:1" fill="#16958a" d="M 264.5,402.5 C 299.767,402.603 323.267,419.27 335,452.5C 337.05,459.38 337.716,466.38 337,473.5C 333.746,478.223 329.246,479.723 323.5,478C 322.333,476.833 321.167,475.667 320,474.5C 317.829,468.317 316.162,461.984 315,455.5C 306.211,433.719 290.044,422.552 266.5,422C 259.474,420.122 256.974,415.622 259,408.5C 260.36,405.977 262.193,403.977 264.5,402.5 Z"/></g>
<g><path style="opacity:1" fill="#169489" d="M 227.5,430.5 C 202.994,429.513 178.327,429.013 153.5,429C 152.833,429.333 152.167,429.667 151.5,430C 151.728,430.399 152.062,430.565 152.5,430.5C 146.585,433.261 143.085,437.928 142,444.5C 140.971,490.164 140.638,535.831 141,581.5C 142.646,590.133 147.48,595.966 155.5,599C 199.833,599.667 244.167,599.667 288.5,599C 300.773,593.535 305.439,584.201 302.5,571C 302.167,569.5 301.833,568 301.5,566.5C 294.561,563.894 289.561,559.228 286.5,552.5C 267.167,551.167 247.833,551.167 228.5,552.5C 221.988,568.093 210.321,574.259 193.5,571C 183.02,567.918 176.186,561.085 173,550.5C 170.983,522.851 183.816,510.351 211.5,513C 220.306,504.194 229.14,495.36 238,486.5C 232.855,468.627 238.688,455.794 255.5,448C 272.059,444.363 283.892,450.196 291,465.5C 294.414,482.174 288.247,493.674 272.5,500C 265.408,502.358 258.575,501.858 252,498.5C 243.387,507.113 234.721,515.779 226,524.5C 227.038,526.958 227.871,529.625 228.5,532.5C 247.845,532.833 267.178,532.5 286.5,531.5C 294.591,518.745 305.924,514.579 320.5,519C 336.624,529.041 339.791,542.207 330,558.5C 327.572,561.598 324.572,563.931 321,565.5C 325.122,590.785 315.289,607.618 291.5,616C 255.832,616.392 220.165,616.892 184.5,617.5C 173.786,617.605 163.12,617.105 152.5,616C 133.266,609.922 123.933,596.756 124.5,576.5C 125.162,531.332 125.162,486.332 124.5,441.5C 128.883,425.949 138.883,415.782 154.5,411C 179.536,410.059 204.536,410.392 229.5,412C 234.868,415.232 236.368,419.732 234,425.5C 232.223,427.79 230.056,429.457 227.5,430.5 Z"/></g>
<g><path style="opacity:1" fill="#18b3a5" d="M 227.5,430.5 C 202.439,430.396 177.439,430.396 152.5,430.5C 152.062,430.565 151.728,430.399 151.5,430C 152.167,429.667 152.833,429.333 153.5,429C 178.327,429.013 202.994,429.513 227.5,430.5 Z"/></g>
<g><path style="opacity:0.255" fill="#f7f7f7" d="M 991.5,410.5 C 992.117,410.611 992.617,410.944 993,411.5C 996.142,427.02 997.976,442.686 998.5,458.5C 996.559,442.58 994.225,426.58 991.5,410.5 Z"/></g>
<g><path style="opacity:1" fill="#f7f7f7" d="M 628.5,434.5 C 645.118,434.923 650.951,442.923 646,458.5C 640.289,464.117 633.455,465.95 625.5,464C 616.013,458.902 613.513,451.402 618,441.5C 620.998,438.262 624.498,435.929 628.5,434.5 Z"/></g>
<g><path style="opacity:1" fill="#f6f6f6" d="M 425.5,435.5 C 453.074,435.172 480.574,435.505 508,436.5C 509.594,443.726 509.928,451.06 509,458.5C 508.535,459.931 507.701,461.097 506.5,462C 488.17,462.5 469.836,462.667 451.5,462.5C 451.5,475.5 451.5,488.5 451.5,501.5C 468.503,501.333 485.503,501.5 502.5,502C 503.333,502.833 504.167,503.667 505,504.5C 505.667,511.5 505.667,518.5 505,525.5C 504.167,526.333 503.333,527.167 502.5,528C 485.17,528.5 467.837,528.667 450.5,528.5C 450.333,540.171 450.5,551.838 451,563.5C 451.374,564.416 451.874,565.25 452.5,566C 471.077,567.308 489.743,567.975 508.5,568C 510,568.833 511.167,570 512,571.5C 512.667,577.833 512.667,584.167 512,590.5C 510.786,592.049 509.286,593.215 507.5,594C 480.833,594.667 454.167,594.667 427.5,594C 425.714,593.215 424.214,592.049 423,590.5C 422.333,540.167 422.333,489.833 423,439.5C 423.662,438.016 424.496,436.683 425.5,435.5 Z"/></g>
<g><path style="opacity:0.088" fill="#e6e6e7" d="M 999.5,479.5 C 1000.12,479.611 1000.62,479.944 1001,480.5C 1001.67,497.167 1001.67,513.833 1001,530.5C 1000.72,531.416 1000.22,532.082 999.5,532.5C 999.5,514.833 999.5,497.167 999.5,479.5 Z"/></g>
<g><path style="opacity:1" fill="#f9f9f9" d="M 620.5,480.5 C 627.841,480.334 635.174,480.5 642.5,481C 643.416,481.374 644.25,481.874 645,482.5C 645.667,518.833 645.667,555.167 645,591.5C 644.5,592 644,592.5 643.5,593C 636.167,593.667 628.833,593.667 621.5,593C 619.667,592.5 618.5,591.333 618,589.5C 617.333,554.167 617.333,518.833 618,483.5C 619.045,482.627 619.878,481.627 620.5,480.5 Z"/></g>
<g><path style="opacity:1" fill="#f8f8f8" d="M 715.5,476.5 C 745.181,474.569 765.515,487.236 776.5,514.5C 775.91,515.799 774.91,516.632 773.5,517C 765.528,518.331 757.528,518.998 749.5,519C 737.772,500.994 722.772,497.661 704.5,509C 695.251,518.662 691.751,530.162 694,543.5C 699.938,569.219 715.105,577.052 739.5,567C 743.548,563.554 746.882,559.554 749.5,555C 758.201,554.156 766.701,554.989 775,557.5C 775.163,562.204 773.83,566.537 771,570.5C 754.42,593.364 732.253,601.198 704.5,594C 685.359,587.861 673.526,575.028 669,555.5C 667.489,544.878 667.156,534.211 668,523.5C 673.825,497.508 689.658,481.841 715.5,476.5 Z"/></g>
<g><path style="opacity:1" fill="#f8f8f8" d="M 591.5,476.5 C 595.888,475.943 599.055,477.61 601,481.5C 601.667,489.167 601.667,496.833 601,504.5C 593.852,505.138 586.686,505.972 579.5,507C 570.974,510.192 565.141,516.026 562,524.5C 561.833,546.841 561.333,569.174 560.5,591.5C 559.088,592.806 557.421,593.64 555.5,594C 549.833,594.667 544.167,594.667 538.5,594C 537.069,593.535 535.903,592.701 535,591.5C 534.333,555.5 534.333,519.5 535,483.5C 535.833,482.667 536.667,481.833 537.5,481C 544.833,480.333 552.167,480.333 559.5,481C 560,481.5 560.5,482 561,482.5C 561.333,487.5 561.667,492.5 562,497.5C 567.843,484.814 577.676,477.814 591.5,476.5 Z"/></g>
<g><path style="opacity:1" fill="#0f0e0e" d="M 197.5,530.5 C 212.081,530.259 216.581,536.925 211,550.5C 202.809,557.559 196.142,556.225 191,546.5C 189.607,539.631 191.774,534.297 197.5,530.5 Z"/></g>
<g><path style="opacity:1" fill="#16a194" d="M 124.5,441.5 C 125.162,486.332 125.162,531.332 124.5,576.5C 123.175,531.627 123.175,486.627 124.5,441.5 Z"/></g>
<g><path style="opacity:1" fill="#f8f8f8" d="M 829.5,476.5 C 845.775,474.156 860.775,477.323 874.5,486C 882.462,492.638 886.962,501.138 888,511.5C 888.667,538.167 888.667,564.833 888,591.5C 886.745,592.211 885.579,593.044 884.5,594C 878.5,594.667 872.5,594.667 866.5,594C 865.421,593.044 864.255,592.211 863,591.5C 862.667,588.833 862.333,586.167 862,583.5C 849.109,594.286 834.275,598.119 817.5,595C 793.461,586.754 785.627,570.587 794,546.5C 800.006,537.833 808.173,532.333 818.5,530C 832.754,527.481 847.088,525.648 861.5,524.5C 861.967,503.549 851.967,495.715 831.5,501C 826.5,503.333 822.833,507 820.5,512C 815.16,512.186 809.826,511.852 804.5,511C 801.097,510.9 797.93,510.066 795,508.5C 795.134,504.203 796.467,500.203 799,496.5C 806.687,485.915 816.854,479.249 829.5,476.5 Z"/></g>
<g><path style="opacity:1" fill="#111010" d="M 857.5,541.5 C 858.833,541.5 860.167,541.5 861.5,541.5C 865.493,562.188 856.993,573.188 836,574.5C 829.514,574.612 823.847,572.612 819,568.5C 815.093,559.049 817.593,551.883 826.5,547C 836.962,545.164 847.295,543.33 857.5,541.5 Z"/></g>
<g><path style="opacity:0.252" fill="#ebebeb" d="M 999.5,533.5 C 999.173,551.263 997.673,568.93 995,586.5C 991.729,601.027 988.729,615.694 986,630.5C 985.623,631.942 984.79,632.942 983.5,633.5C 991.453,600.453 996.786,567.12 999.5,533.5 Z"/></g>
<g><path style="opacity:0.232" fill="#f1f1f1" d="M 48.5,656.5 C 51.5412,663.954 54.2079,671.62 56.5,679.5C 55.5028,679.53 54.8361,679.03 54.5,678C 51.7804,671.011 49.7804,663.845 48.5,656.5 Z"/></g>
<g><path style="opacity:0.241" fill="#f0f0f1" d="M 56.5,679.5 C 64.5217,697.884 72.855,716.217 81.5,734.5C 80.5416,734.047 79.7083,733.381 79,732.5C 75.8606,724.888 72.1939,717.554 68,710.5C 65.7706,703.138 62.7706,696.138 59,689.5C 57.6476,686.28 56.8143,682.947 56.5,679.5 Z"/></g>
<g><path style="opacity:0.148" fill="#eeeeef" d="M 983.5,633.5 C 982.635,640.294 981.135,646.961 979,653.5C 972.227,672.38 964.894,691.047 957,709.5C 955.311,713.56 953.144,717.227 950.5,720.5C 963.685,692.271 974.685,663.271 983.5,633.5 Z"/></g>
<g><path style="opacity:0.17" fill="#f1f1f1" d="M 950.5,720.5 C 946.61,729.579 942.443,738.579 938,747.5C 932.635,755.214 927.635,763.214 923,771.5C 921.961,772.71 920.794,773.71 919.5,774.5C 930.356,756.786 940.689,738.786 950.5,720.5 Z"/></g>
<g><path style="opacity:0.144" fill="#f0f0f1" d="M 81.5,734.5 C 89.4154,747.327 97.0821,760.327 104.5,773.5C 102.926,773.063 101.759,772.063 101,770.5C 98.1672,764.83 94.8339,759.497 91,754.5C 87.0299,748.226 83.8632,741.559 81.5,734.5 Z"/></g>
<g><path style="opacity:0.159" fill="#f3f3f4" d="M 104.5,773.5 C 110.57,780.635 115.903,788.301 120.5,796.5C 119.504,796.586 118.671,796.252 118,795.5C 116.159,791.817 113.826,788.484 111,785.5C 108.173,781.845 106.007,777.845 104.5,773.5 Z"/></g>
<g><path style="opacity:0.142" fill="#f0f0f0" d="M 919.5,774.5 C 916.317,781.193 912.483,787.526 908,793.5C 904.513,797.142 901.513,801.142 899,805.5C 898.184,806.823 897.017,807.489 895.5,807.5C 903.532,796.476 911.532,785.476 919.5,774.5 Z"/></g>
<g><path style="opacity:0.124" fill="#ededed" d="M 120.5,796.5 C 123.636,799.429 126.303,802.762 128.5,806.5C 126.983,806.489 125.816,805.823 125,804.5C 123.223,801.941 121.723,799.274 120.5,796.5 Z"/></g>
<g><path style="opacity:0.108" fill="#f1f1f1" d="M 895.5,807.5 C 895.291,808.922 894.791,810.255 894,811.5C 889.952,815.88 886.285,820.546 883,825.5C 881.226,826.965 879.392,828.298 877.5,829.5C 883.129,821.871 889.129,814.537 895.5,807.5 Z"/></g>
<g><path style="opacity:0.11" fill="#f1f1f1" d="M 128.5,806.5 C 138.804,818.475 149.137,830.475 159.5,842.5C 149.215,832.376 139.381,821.71 130,810.5C 129.209,809.255 128.709,807.922 128.5,806.5 Z"/></g>
<g><path style="opacity:0.13" fill="#f4f5f5" d="M 159.5,842.5 C 163.785,846.119 167.785,850.119 171.5,854.5C 166.521,851.521 162.521,847.521 159.5,842.5 Z"/></g>
<g><path style="opacity:0.114" fill="#efefef" d="M 171.5,854.5 C 180.839,862.84 190.172,871.173 199.5,879.5C 188.944,872.615 179.611,864.282 171.5,854.5 Z"/></g>
<g><path style="opacity:0.175" fill="#f0f0f0" d="M 877.5,829.5 C 871.539,837.216 865.206,844.716 858.5,852C 847.207,861.99 835.874,871.99 824.5,882C 821.861,884.483 818.861,886.316 815.5,887.5C 837.097,869.239 857.764,849.905 877.5,829.5 Z"/></g>
<g><path style="opacity:0.172" fill="#e7e6e7" d="M 199.5,879.5 C 202.792,881.458 205.792,883.791 208.5,886.5C 204.637,885.306 201.637,882.973 199.5,879.5 Z"/></g>
<g><path style="opacity:0.124" fill="#f7f6f6" d="M 209.5,887.5 C 212.81,889.482 215.81,891.815 218.5,894.5C 214.567,893.219 211.567,890.886 209.5,887.5 Z"/></g>
<g><path style="opacity:0.1" fill="#f2f2f2" d="M 815.5,887.5 C 815.489,889.017 814.823,890.184 813.5,891C 810.941,892.777 808.274,894.277 805.5,895.5C 808.52,892.484 811.854,889.817 815.5,887.5 Z"/></g>
<g><path style="opacity:0.151" fill="#f2f2f2" d="M 218.5,894.5 C 226.699,899.097 234.365,904.43 241.5,910.5C 238.243,909.538 235.243,908.038 232.5,906C 227.579,902.387 222.912,898.554 218.5,894.5 Z"/></g>
<g><path style="opacity:0.084" fill="#f3f3f3" d="M 805.5,895.5 C 798.714,902.063 791.048,907.396 782.5,911.5C 789.635,905.43 797.301,900.097 805.5,895.5 Z"/></g>
<g><path style="opacity:0.218" fill="#f0f0f0" d="M 241.5,910.5 C 246.515,913.004 251.181,916.004 255.5,919.5C 251.577,918.205 247.91,916.372 244.5,914C 243.29,912.961 242.29,911.794 241.5,910.5 Z"/></g>
<g><path style="opacity:0.071" fill="#f1f1f1" d="M 782.5,911.5 C 781.71,912.794 780.71,913.961 779.5,915C 772.846,919.492 765.846,923.326 758.5,926.5C 766.156,921.003 774.156,916.003 782.5,911.5 Z"/></g>
<g><path style="opacity:0.116" fill="#f2f2f2" d="M 255.5,919.5 C 269.508,927.17 283.508,934.837 297.5,942.5C 284.921,936.877 272.588,930.71 260.5,924C 258.382,922.951 256.716,921.451 255.5,919.5 Z"/></g>
<g><path style="opacity:0.084" fill="#ebebeb" d="M 756.5,927.5 C 753.165,930.839 749.165,933.172 744.5,934.5C 748.164,931.665 752.164,929.332 756.5,927.5 Z"/></g>
<g><path style="opacity:0.155" fill="#e7e7e8" d="M 742.5,935.5 C 737.881,939.418 732.548,942.085 726.5,943.5C 731.516,940.326 736.849,937.659 742.5,935.5 Z"/></g>
<g><path style="opacity:0.143" fill="#f3f3f3" d="M 299.5,943.5 C 304.25,944.743 308.584,946.743 312.5,949.5C 307.424,948.791 303.09,946.791 299.5,943.5 Z"/></g>
<g><path style="opacity:0.097" fill="#e9e9e9" d="M 726.5,943.5 C 726.423,944.75 725.756,945.583 724.5,946C 720.347,948.079 716.014,949.579 711.5,950.5C 716.311,947.93 721.311,945.597 726.5,943.5 Z"/></g>
<g><path style="opacity:0.105" fill="#f0f0f0" d="M 312.5,949.5 C 320.787,952.315 328.787,955.648 336.5,959.5C 327.671,957.898 319.671,954.564 312.5,949.5 Z"/></g>
<g><path style="opacity:0.086" fill="#efefef" d="M 709.5,951.5 C 709.047,952.458 708.381,953.292 707.5,954C 701.963,956.346 696.297,958.179 690.5,959.5C 696.65,956.597 702.984,953.93 709.5,951.5 Z"/></g>
<g><path style="opacity:0.115" fill="#eaeaea" d="M 336.5,959.5 C 344.38,961.792 352.046,964.459 359.5,967.5C 352.683,966.295 346.016,964.462 339.5,962C 338.058,961.623 337.058,960.79 336.5,959.5 Z"/></g>
<g><path style="opacity:0.107" fill="#efefef" d="M 690.5,959.5 C 689.251,961.136 687.584,962.303 685.5,963C 680.892,964.485 676.226,965.652 671.5,966.5C 677.658,963.932 683.991,961.598 690.5,959.5 Z"/></g>
<g><path style="opacity:0.115" fill="#efefef" d="M 359.5,967.5 C 367.051,969.463 374.385,971.796 381.5,974.5C 377.121,973.987 372.787,973.153 368.5,972C 364.965,971.337 361.965,969.837 359.5,967.5 Z"/></g>
<g><path style="opacity:0.151" fill="#f3f3f3" d="M 668.5,967.5 C 663.146,971.015 657.146,973.015 650.5,973.5C 656.216,970.928 662.216,968.928 668.5,967.5 Z"/></g>
<g><path style="opacity:0.14" fill="#efefef" d="M 385.5,975.5 C 396.97,978.057 408.304,980.724 419.5,983.5C 407.558,982.679 396.225,980.012 385.5,975.5 Z"/></g>
<g><path style="opacity:0.131" fill="#eaeaea" d="M 646.5,974.5 C 634.757,979.387 622.424,982.387 609.5,983.5C 621.636,980.135 633.969,977.135 646.5,974.5 Z"/></g>
<g><path style="opacity:0.236" fill="#e5e5e5" d="M 608.5,983.5 C 608.389,984.117 608.056,984.617 607.5,985C 590.648,988.372 573.648,990.539 556.5,991.5C 573.719,988.943 591.053,986.277 608.5,983.5 Z"/></g>
<g><path style="opacity:0.278" fill="#e8e8e9" d="M 420.5,983.5 C 440.857,987.031 461.19,989.698 481.5,991.5C 461.333,990.907 441.333,988.741 421.5,985C 420.944,984.617 420.611,984.117 420.5,983.5 Z"/></g>
<g><path style="opacity:0.024" fill="#f8f8f8" d="M 486.5,991.5 C 507.832,992.773 529.165,992.773 550.5,991.5C 540.143,992.985 529.643,993.985 519,994.5C 509.244,993.68 499.41,993.18 489.5,993C 488.263,992.768 487.263,992.268 486.5,991.5 Z"/></g>
</svg>
