<?xml version="1.0" encoding="UTF-8"?>
<!DOCTYPE svg PUBLIC "-//W3C//DTD SVG 1.1//EN" "http://www.w3.org/Graphics/SVG/1.1/DTD/svg11.dtd">
<svg xmlns="http://www.w3.org/2000/svg" version="1.1" width="1024px" height="1024px" style="shape-rendering:geometricPrecision; text-rendering:geometricPrecision; image-rendering:optimizeQuality; fill-rule:evenodd; clip-rule:evenodd" xmlns:xlink="http://www.w3.org/1999/xlink">
<g><path style="opacity:0.004" fill="#3d9fac" d="M 268.5,359.5 C 269.833,360.167 269.833,360.167 268.5,359.5 Z"/></g>
<g><path style="opacity:0.004" fill="#39a2ad" d="M 290.5,359.5 C 291.833,360.167 291.833,360.167 290.5,359.5 Z"/></g>
<g><path style="opacity:0.008" fill="#389fa9" d="M 266.5,360.5 C 267.833,361.167 267.833,361.167 266.5,360.5 Z"/></g>
<g><path style="opacity:0.004" fill="#3ca2ad" d="M 266.5,361.5 C 265.833,362.167 265.833,362.167 266.5,361.5 Z"/></g>
<g><path style="opacity:0.997" fill="#30abb8" d="M 268.5,362.5 C 269.209,361.596 270.209,361.263 271.5,361.5C 320.129,365.071 355.963,388.405 379,431.5C 387.104,447.256 391.771,463.922 393,481.5C 387.333,488.167 381.667,488.167 376,481.5C 369.095,437.486 345.595,405.986 305.5,387C 301.864,385.732 298.197,384.566 294.5,383.5C 293.584,383.543 292.917,383.876 292.5,384.5C 290.901,384.768 289.568,384.434 288.5,383.5C 291.598,383.587 291.932,383.087 289.5,382C 283.197,381.058 276.863,380.391 270.5,380C 262.607,374.247 262.607,368.581 270.5,363C 269.906,362.536 269.239,362.369 268.5,362.5 Z"/></g>
<g><path style="opacity:0.008" fill="#3ca6ad" d="M 321.5,370.5 C 322.833,371.167 322.833,371.167 321.5,370.5 Z"/></g>
<g><path style="opacity:0.012" fill="#3bacb9" d="M 264.5,379.5 C 265.833,380.167 265.833,380.167 264.5,379.5 Z"/></g>
<g><path style="opacity:0.008" fill="#3daab7" d="M 264.5,380.5 C 263.833,381.167 263.833,381.167 264.5,380.5 Z"/></g>
<g><path style="opacity:0.82" fill="#23828b" d="M 268.5,362.5 C 269.239,362.369 269.906,362.536 270.5,363C 262.607,368.581 262.607,374.247 270.5,380C 276.863,380.391 283.197,381.058 289.5,382C 291.932,383.087 291.598,383.587 288.5,383.5C 281.796,382.996 275.13,382.163 268.5,381C 260.554,374.225 260.554,368.058 268.5,362.5 Z"/></g>
<g><path style="opacity:0.008" fill="#3ba9b8" d="M 263.5,383.5 C 263.897,382.475 264.563,382.308 265.5,383C 264.906,383.464 264.239,383.631 263.5,383.5 Z"/></g>
<g><path style="opacity:0.004" fill="#3ba8b4" d="M 269.5,382.5 C 270.833,383.167 270.833,383.167 269.5,382.5 Z"/></g>
<g><path style="opacity:0.004" fill="#3db2bf" d="M 291.5,385.5 C 292.833,386.167 292.833,386.167 291.5,385.5 Z"/></g>
<g><path style="opacity:0.004" fill="#3eb0bd" d="M 287.5,386.5 C 288.833,387.167 288.833,387.167 287.5,386.5 Z"/></g>
<g><path style="opacity:0.004" fill="#3fabb2" d="M 345.5,386.5 C 346.833,387.167 346.833,387.167 345.5,386.5 Z"/></g>
<g><path style="opacity:0.004" fill="#3cadbb" d="M 298.5,387.5 C 299.833,388.167 299.833,388.167 298.5,387.5 Z"/></g>
<g><path style="opacity:0.004" fill="#3ab0c0" d="M 298.5,388.5 C 297.833,389.167 297.833,389.167 298.5,388.5 Z"/></g>
<g><path style="opacity:0.004" fill="#3cb0bc" d="M 312.5,392.5 C 311.833,393.167 311.833,393.167 312.5,392.5 Z"/></g>
<g><path style="opacity:0.004" fill="#3ba6b0" d="M 352.5,392.5 C 353.833,393.167 353.833,393.167 352.5,392.5 Z"/></g>
<g><path style="opacity:0.004" fill="#3bafbb" d="M 311.5,394.5 C 312.833,395.167 312.833,395.167 311.5,394.5 Z"/></g>
<g><path style="opacity:0.004" fill="#39aeb9" d="M 317.5,395.5 C 316.833,396.167 316.833,396.167 317.5,395.5 Z"/></g>
<g><path style="opacity:0.004" fill="#3bb1bc" d="M 313.5,396.5 C 314.833,397.167 314.833,397.167 313.5,396.5 Z"/></g>
<g><path style="opacity:0.004" fill="#3cb1ba" d="M 317.5,398.5 C 318.833,399.167 318.833,399.167 317.5,398.5 Z"/></g>
<g><path style="opacity:0.004" fill="#3cb0bb" d="M 325.5,401.5 C 326.833,402.167 326.833,402.167 325.5,401.5 Z"/></g>
<g><path style="opacity:0.008" fill="#3ba2ad" d="M 364.5,401.5 C 365.833,402.167 365.833,402.167 364.5,401.5 Z"/></g>
<g><path style="opacity:0.004" fill="#3dafbb" d="M 284.5,403.5 C 285.833,404.167 285.833,404.167 284.5,403.5 Z"/></g>
<g><path style="opacity:0.008" fill="#3dacb7" d="M 266.5,404.5 C 267.833,405.167 267.833,405.167 266.5,404.5 Z"/></g>
<g><path style="opacity:0.985" fill="#268289" d="M 281.5,405.5 C 278.167,406.167 274.833,406.833 271.5,407.5C 269.901,407.768 268.568,407.434 267.5,406.5C 272.023,404.352 276.69,404.019 281.5,405.5 Z"/></g>
<g><path style="opacity:0.997" fill="#30abb8" d="M 267.5,406.5 C 268.568,407.434 269.901,407.768 271.5,407.5C 288.366,406.631 303.366,411.465 316.5,422C 321.56,426.312 326.227,430.812 330.5,435.5C 339.602,447.207 345.602,460.374 348.5,475C 347.474,482.685 343.14,485.685 335.5,484C 334,482.5 332.5,481 331,479.5C 325.122,453.289 309.622,435.456 284.5,426C 282.613,425.22 280.946,425.387 279.5,426.5C 277.901,426.768 276.568,426.434 275.5,425.5C 276.552,425.649 277.552,425.483 278.5,425C 269.015,425.841 264.515,421.674 265,412.5C 265.465,411.069 266.299,409.903 267.5,409C 266.906,408.536 266.239,408.369 265.5,408.5C 265.833,407.5 266.5,406.833 267.5,406.5 Z"/></g>
<g><path style="opacity:0.634" fill="#24848d" d="M 135.5,408.5 C 168.168,408.333 200.835,408.5 233.5,409C 240.876,413.267 242.376,419.101 238,426.5C 235.938,428.633 233.771,429.633 231.5,429.5C 231.5,429.167 231.5,428.833 231.5,428.5C 232.167,428.5 232.5,428.167 232.5,427.5C 238.127,425.412 239.961,421.412 238,415.5C 235.067,411.009 230.901,409.342 225.5,410.5C 195.5,409.833 165.5,409.167 135.5,408.5 Z"/></g>
<g><path style="opacity:0.004" fill="#3aa3aa" d="M 368.5,408.5 C 369.833,409.167 369.833,409.167 368.5,408.5 Z"/></g>
<g><path style="opacity:0.008" fill="#3da2ab" d="M 370.5,409.5 C 371.833,410.167 371.833,410.167 370.5,409.5 Z"/></g>
<g><path style="opacity:0.997" fill="#2faab7" d="M 225.5,410.5 C 230.901,409.342 235.067,411.009 238,415.5C 239.961,421.412 238.127,425.412 232.5,427.5C 199.379,426.517 166.379,426.85 133.5,428.5C 120.851,429.657 111.851,435.99 106.5,447.5C 105.5,447.5 104.5,447.5 103.5,447.5C 103.819,457.749 103.486,467.916 102.5,478C 103.647,522.595 104.647,567.095 105.5,611.5C 105.328,612.492 105.662,613.158 106.5,613.5C 108.005,624.636 114.005,632.469 124.5,637C 128.44,638.015 132.44,638.515 136.5,638.5C 185.167,639.833 233.833,639.833 282.5,638.5C 304.417,636.053 314.584,623.72 313,601.5C 303.766,598.092 296.933,592.092 292.5,583.5C 292.389,582.883 292.056,582.383 291.5,582C 263.33,581.17 235.33,581.336 207.5,582.5C 200.026,600.078 186.693,607.578 167.5,605C 154.723,600.731 146.723,592.231 143.5,579.5C 143.817,575.298 143.483,571.298 142.5,567.5C 142.263,566.209 142.596,565.209 143.5,564.5C 143.369,565.239 143.536,565.906 144,566.5C 147.807,554.693 155.641,546.859 167.5,543C 166.906,542.536 166.239,542.369 165.5,542.5C 166.209,541.596 167.209,541.263 168.5,541.5C 173.064,542.216 177.731,542.883 182.5,543.5C 185.944,544.212 189.278,545.545 192.5,547.5C 206.486,533.014 220.653,518.681 235,504.5C 227.613,489.257 229.28,474.924 240,461.5C 255.177,449.139 271.01,448.306 287.5,459C 299.115,469.867 302.615,483.034 298,498.5C 290.852,514.666 278.352,522 260.5,520.5C 256.165,519.548 251.998,517.882 248,515.5C 247.59,516.901 247.09,518.234 246.5,519.5C 236.868,528.631 227.368,537.964 218,547.5C 217.308,548.437 217.475,549.103 218.5,549.5C 218.167,550.5 217.5,551.167 216.5,551.5C 216.103,550.475 215.437,550.308 214.5,551C 212.333,553.167 210.167,555.333 208,557.5C 207.308,558.437 207.475,559.103 208.5,559.5C 207.89,560.391 207.557,561.391 207.5,562.5C 233.995,563.498 260.661,563.831 287.5,563.5C 288.822,563.67 289.989,563.337 291,562.5C 292.713,558.127 295.213,554.293 298.5,551C 303.574,547.684 308.241,544.851 312.5,542.5C 312.842,541.662 313.508,541.328 314.5,541.5C 318.833,542.833 323.167,542.833 327.5,541.5C 328.791,541.263 329.791,541.596 330.5,542.5C 329.761,542.369 329.094,542.536 328.5,543C 351.184,551.059 358.017,566.225 349,588.5C 345.306,594.531 340.139,598.697 333.5,601C 334.094,601.464 334.761,601.631 335.5,601.5C 334.935,603.952 334.268,606.285 333.5,608.5C 333.481,601.469 332.981,601.136 332,607.5C 331.19,611.358 331.357,615.024 332.5,618.5C 332.672,619.492 332.338,620.158 331.5,620.5C 328.457,628.299 323.791,635.799 317.5,643C 309.764,649.868 300.764,654.035 290.5,655.5C 235.5,655.5 180.5,655.5 125.5,655.5C 106.127,651.962 93.9607,640.629 89,621.5C 88.5,564.168 88.3333,506.834 88.5,449.5C 90.4083,431.082 100.075,418.582 117.5,412C 153.451,410.526 189.451,410.026 225.5,410.5 Z M 165.5,584.5 C 163.827,583.657 162.66,582.324 162,580.5C 159.508,565.989 165.675,559.489 180.5,561C 186.114,563.722 189.114,568.222 189.5,574.5C 187.257,587.113 179.923,591.279 167.5,587C 166.619,586.292 165.953,585.458 165.5,584.5 Z"/></g>
<g><path style="opacity:0.008" fill="#37b0ba" d="M 339.5,412.5 C 338.833,413.167 338.833,413.167 339.5,412.5 Z"/></g>
<g><path style="opacity:0.008" fill="#3aa4ac" d="M 370.5,412.5 C 371.833,413.167 371.833,413.167 370.5,412.5 Z"/></g>
<g><path style="opacity:0.949" fill="#217a83" d="M 135.5,408.5 C 165.5,409.167 195.5,409.833 225.5,410.5C 189.451,410.026 153.451,410.526 117.5,412C 100.075,418.582 90.4083,431.082 88.5,449.5C 88.1667,449.5 87.8333,449.5 87.5,449.5C 87.6716,448.508 87.3382,447.842 86.5,447.5C 92.4491,421.559 108.782,408.559 135.5,408.5 Z"/></g>
<g><path style="opacity:0.792" fill="#24868f" d="M 281.5,405.5 C 302.117,408.472 318.784,418.138 331.5,434.5C 330.833,434.5 330.5,434.833 330.5,435.5C 326.227,430.812 321.56,426.312 316.5,422C 303.366,411.465 288.366,406.631 271.5,407.5C 274.833,406.833 278.167,406.167 281.5,405.5 Z"/></g>
<g><path style="opacity:0.004" fill="#3f9daa" d="M 99.5,417.5 C 100.833,418.167 100.833,418.167 99.5,417.5 Z"/></g>
<g><path style="opacity:0.004" fill="#3d9ea6" d="M 96.5,418.5 C 97.8333,419.167 97.8333,419.167 96.5,418.5 Z"/></g>
<g><path style="opacity:1" fill="#238087" d="M 265.5,408.5 C 266.239,408.369 266.906,408.536 267.5,409C 266.299,409.903 265.465,411.069 265,412.5C 264.515,421.674 269.015,425.841 278.5,425C 277.552,425.483 276.552,425.649 275.5,425.5C 268.019,425.849 263.686,422.349 262.5,415C 263.129,412.625 264.129,410.459 265.5,408.5 Z"/></g>
<g><path style="opacity:0.004" fill="#37a5b1" d="M 374.5,418.5 C 375.833,419.167 375.833,419.167 374.5,418.5 Z"/></g>
<g><path style="opacity:0.004" fill="#3ca9b0" d="M 379.5,426.5 C 380.833,427.167 380.833,427.167 379.5,426.5 Z"/></g>
<g><path style="opacity:0.973" fill="#2aa1ac" d="M 232.5,427.5 C 232.5,428.167 232.167,428.5 231.5,428.5C 201.167,428.5 170.833,428.5 140.5,428.5C 138.167,428.5 135.833,428.5 133.5,428.5C 166.379,426.85 199.379,426.517 232.5,427.5 Z"/></g>
<g><path style="opacity:0.008" fill="#3c9daa" d="M 89.5,428.5 C 90.8333,429.167 90.8333,429.167 89.5,428.5 Z"/></g>
<g><path style="opacity:1" fill="#24818a" d="M 133.5,428.5 C 135.833,428.5 138.167,428.5 140.5,428.5C 140.5,428.833 140.5,429.167 140.5,429.5C 136.256,429.137 131.589,429.637 126.5,431C 113.832,435.848 107.165,445.015 106.5,458.5C 106.737,457.209 106.404,456.209 105.5,455.5C 105.833,452.833 106.167,450.167 106.5,447.5C 111.851,435.99 120.851,429.657 133.5,428.5 Z"/></g>
<g><path style="opacity:0.984" fill="#1d727a" d="M 140.5,429.5 C 140.5,429.167 140.5,428.833 140.5,428.5C 170.833,428.5 201.167,428.5 231.5,428.5C 231.5,428.833 231.5,429.167 231.5,429.5C 230.5,429.5 229.5,429.5 228.5,429.5C 227.5,429.5 226.5,429.5 225.5,429.5C 217.993,429.492 210.659,429.826 203.5,430.5C 190.648,430.11 177.981,429.776 165.5,429.5C 163.5,429.5 161.5,429.5 159.5,429.5C 155.709,429.957 152.042,430.29 148.5,430.5C 145.946,429.612 143.279,429.279 140.5,429.5 Z"/></g>
<g><path style="opacity:0.01" fill="#3cb9c7" d="M 159.5,429.5 C 161.5,429.5 163.5,429.5 165.5,429.5C 165.631,430.239 165.464,430.906 165,431.5C 163.052,430.891 161.218,430.224 159.5,429.5 Z"/></g>
<g><path style="opacity:0.016" fill="#3ab5c4" d="M 225.5,429.5 C 226.5,429.5 227.5,429.5 228.5,429.5C 228.043,431.557 227.043,431.557 225.5,429.5 Z"/></g>
<g><path style="opacity:0.004" fill="#3db2c1" d="M 148.5,430.5 C 149.833,431.167 149.833,431.167 148.5,430.5 Z"/></g>
<g><path style="opacity:0.004" fill="#3dbac5" d="M 188.5,430.5 C 189.833,431.167 189.833,431.167 188.5,430.5 Z"/></g>
<g><path style="opacity:0.004" fill="#3db7c6" d="M 203.5,430.5 C 204.833,431.167 204.833,431.167 203.5,430.5 Z"/></g>
<g><path style="opacity:0.008" fill="#3aaebb" d="M 233.5,430.5 C 234.833,431.167 234.833,431.167 233.5,430.5 Z"/></g>
<g><path style="opacity:0.004" fill="#3ca4ad" d="M 88.5,431.5 C 89.8333,432.167 89.8333,432.167 88.5,431.5 Z"/></g>
<g><path style="opacity:0.008" fill="#3caeb8" d="M 354.5,433.5 C 355.833,434.167 355.833,434.167 354.5,433.5 Z"/></g>
<g><path style="opacity:0.008" fill="#3fb6be" d="M 295.5,434.5 C 296.833,435.167 296.833,435.167 295.5,434.5 Z"/></g>
<g><path style="opacity:0.008" fill="#3ab2be" d="M 300.5,436.5 C 301.614,438.353 300.948,438.853 298.5,438C 299.044,437.283 299.711,436.783 300.5,436.5 Z"/></g>
<g><path style="opacity:0.008" fill="#3db0ba" d="M 337.5,440.5 C 336.833,439.167 336.833,439.167 337.5,440.5 Z"/></g>
<g><path style="opacity:0.008" fill="#28272a" d="M 680.5,439.5 C 681.833,440.167 681.833,440.167 680.5,439.5 Z"/></g>
<g><path style="opacity:0.008" fill="#38aeba" d="M 337.5,440.5 C 338.833,441.167 338.833,441.167 337.5,440.5 Z"/></g>
<g><path style="opacity:0.008" fill="#3ca3ac" d="M 388.5,440.5 C 389.833,441.167 389.833,441.167 388.5,440.5 Z"/></g>
<g><path style="opacity:0.008" fill="#2a2a2a" d="M 689.5,440.5 C 690.833,441.167 690.833,441.167 689.5,440.5 Z"/></g>
<g><path style="opacity:0.004" fill="#2b3031" d="M 503.5,441.5 C 504.833,442.167 504.833,442.167 503.5,441.5 Z"/></g>
<g><path style="opacity:0.985" fill="#0e0e0f" d="M 694.5,445.5 C 699.14,451.062 700.807,457.395 699.5,464.5C 697.223,469.777 693.556,473.777 688.5,476.5C 670.248,479.408 661.748,471.741 663,453.5C 667.888,443.184 676.055,439.35 687.5,442C 689.86,443.18 692.193,444.347 694.5,445.5 Z"/></g>
<g><path style="opacity:0.012" fill="#3db3bc" d="M 305.5,443.5 C 306.833,444.167 306.833,444.167 305.5,443.5 Z"/></g>
<g><path style="opacity:0.012" fill="#39b0b9" d="M 309.5,443.5 C 308.833,444.167 308.833,444.167 309.5,443.5 Z"/></g>
<g><path style="opacity:0.998" fill="#161517" d="M 679.5,443.5 C 688.525,442.924 694.359,446.924 697,455.5C 698.287,464.43 694.787,470.597 686.5,474C 668.179,475.693 661.679,467.86 667,450.5C 670.193,446.159 674.36,443.826 679.5,443.5 Z"/></g>
<g><path style="opacity:0.004" fill="#3cafbc" d="M 362.5,444.5 C 361.833,445.167 361.833,445.167 362.5,444.5 Z"/></g>
<g><path style="opacity:0.008" fill="#292828" d="M 694.5,444.5 C 695.833,445.167 695.833,445.167 694.5,444.5 Z"/></g>
<g><path style="opacity:0.016" fill="#3ab2bb" d="M 340.5,445.5 C 341.833,446.167 341.833,446.167 340.5,445.5 Z"/></g>
<g><path style="opacity:0.008" fill="#222525" d="M 550.5,446.5 C 551.833,447.167 551.833,447.167 550.5,446.5 Z"/></g>
<g><path style="opacity:0.008" fill="#3cb2bd" d="M 362.5,447.5 C 363.833,448.167 363.833,448.167 362.5,447.5 Z"/></g>
<g><path style="opacity:0.004" fill="#3bb3bd" d="M 255.5,448.5 C 256.833,449.167 256.833,449.167 255.5,448.5 Z"/></g>
<g><path style="opacity:0.008" fill="#39aeb8" d="M 312.5,448.5 C 313.833,449.167 313.833,449.167 312.5,448.5 Z"/></g>
<g><path style="opacity:0.004" fill="#3cb1ba" d="M 279.5,450.5 C 280.833,451.167 280.833,451.167 279.5,450.5 Z"/></g>
<g><path style="opacity:0.012" fill="#3bb1ba" d="M 316.5,451.5 C 316.103,452.525 315.437,452.692 314.5,452C 315.094,451.536 315.761,451.369 316.5,451.5 Z"/></g>
<g><path style="opacity:0.025" fill="#3fabb5" d="M 86.5,451.5 C 86.5,453.167 86.5,454.833 86.5,456.5C 85.5266,456.013 84.5266,455.513 83.5,455C 84.8141,454.015 85.8141,452.848 86.5,451.5 Z"/></g>
<g><path style="opacity:0.004" fill="#3ab0bd" d="M 364.5,453.5 C 365.833,454.167 365.833,454.167 364.5,453.5 Z"/></g>
<g><path style="opacity:0.004" fill="#39b0ba" d="M 293.5,455.5 C 294.833,456.167 294.833,456.167 293.5,455.5 Z"/></g>
<g><path style="opacity:0.004" fill="#282a29" d="M 660.5,456.5 C 661.833,457.167 661.833,457.167 660.5,456.5 Z"/></g>
<g><path style="opacity:0.004" fill="#39b5be" d="M 290.5,457.5 C 291.833,458.167 291.833,458.167 290.5,457.5 Z"/></g>
<g><path style="opacity:0.02" fill="#39b3bc" d="M 369.5,463.5 C 368.833,464.167 368.833,464.167 369.5,463.5 Z"/></g>
<g><path style="opacity:0.984" fill="#2ea2ac" d="M 106.5,447.5 C 106.167,450.167 105.833,452.833 105.5,455.5C 105.5,507.5 105.5,559.5 105.5,611.5C 104.647,567.095 103.647,522.595 102.5,478C 103.486,467.916 103.819,457.749 103.5,447.5C 104.5,447.5 105.5,447.5 106.5,447.5 Z"/></g>
<g><path style="opacity:0.012" fill="#3cb2be" d="M 319.5,464.5 C 320.833,465.167 320.833,465.167 319.5,464.5 Z"/></g>
<g><path style="opacity:0.006" fill="#272628" d="M 699.5,464.5 C 700.525,464.897 700.692,465.563 700,466.5C 699.536,465.906 699.369,465.239 699.5,464.5 Z"/></g>
<g><path style="opacity:0.004" fill="#3badb8" d="M 368.5,465.5 C 369.833,466.167 369.833,466.167 368.5,465.5 Z"/></g>
<g><path style="opacity:0.016" fill="#3ca5b1" d="M 83.5,466.5 C 84.8333,467.167 84.8333,467.167 83.5,466.5 Z"/></g>
<g><path style="opacity:0.012" fill="#39adb7" d="M 369.5,467.5 C 370.833,468.167 370.833,468.167 369.5,467.5 Z"/></g>
<g><path style="opacity:0.012" fill="#3db3be" d="M 299.5,469.5 C 300.833,470.167 300.833,470.167 299.5,469.5 Z"/></g>
<g><path style="opacity:0.004" fill="#232426" d="M 550.5,470.5 C 551.833,471.167 551.833,471.167 550.5,470.5 Z"/></g>
<g><path style="opacity:0.008" fill="#39aeb8" d="M 300.5,471.5 C 301.833,472.167 301.833,472.167 300.5,471.5 Z"/></g>
<g><path style="opacity:0.008" fill="#3baab7" d="M 369.5,473.5 C 369.897,472.475 370.563,472.308 371.5,473C 370.906,473.464 370.239,473.631 369.5,473.5 Z"/></g>
<g><path style="opacity:0.004" fill="#3b9ca4" d="M 395.5,474.5 C 396.833,475.167 396.833,475.167 395.5,474.5 Z"/></g>
<g><path style="opacity:0.004" fill="#222224" d="M 493.5,474.5 C 494.833,475.167 494.833,475.167 493.5,474.5 Z"/></g>
<g><path style="opacity:0.008" fill="#222222" d="M 509.5,475.5 C 509.897,474.475 510.563,474.308 511.5,475C 510.906,475.464 510.239,475.631 509.5,475.5 Z"/></g>
<g><path style="opacity:0.004" fill="#212120" d="M 525.5,474.5 C 526.833,475.167 526.833,475.167 525.5,474.5 Z"/></g>
<g><path style="opacity:0.004" fill="#40a8b2" d="M 83.5,476.5 C 84.8333,477.167 84.8333,477.167 83.5,476.5 Z"/></g>
<g><path style="opacity:0.012" fill="#222322" d="M 486.5,476.5 C 487.833,477.167 487.833,477.167 486.5,476.5 Z"/></g>
<g><path style="opacity:0.012" fill="#242628" d="M 671.5,476.5 C 672.833,477.167 672.833,477.167 671.5,476.5 Z"/></g>
<g><path style="opacity:0.004" fill="#252327" d="M 688.5,476.5 C 689.239,476.369 689.906,476.536 690.5,477C 689.563,477.692 688.897,477.525 688.5,476.5 Z"/></g>
<g><path style="opacity:0.027" fill="#242624" d="M 674.5,477.5 C 675.833,478.167 675.833,478.167 674.5,477.5 Z"/></g>
<g><path style="opacity:0.004" fill="#3db1bd" d="M 227.5,478.5 C 228.833,479.167 228.833,479.167 227.5,478.5 Z"/></g>
<g><path style="opacity:0.984" fill="#227e85" d="M 279.5,426.5 C 280.946,425.387 282.613,425.22 284.5,426C 309.622,435.456 325.122,453.289 331,479.5C 332.5,481 334,482.5 335.5,484C 343.14,485.685 347.474,482.685 348.5,475C 345.602,460.374 339.602,447.207 330.5,435.5C 330.5,434.833 330.833,434.5 331.5,434.5C 333.177,436.54 334.844,438.54 336.5,440.5C 337.449,442.777 338.782,444.777 340.5,446.5C 344.013,453.535 346.847,460.868 349,468.5C 352.553,478.101 349.387,484.101 339.5,486.5C 336.108,485.93 333.108,484.596 330.5,482.5C 328.141,471.075 323.474,460.742 316.5,451.5C 314.883,448.216 312.55,445.549 309.5,443.5C 307.363,440.027 304.363,437.694 300.5,436.5C 294.482,431.326 287.482,427.993 279.5,426.5 Z"/></g>
<g><path style="opacity:0.012" fill="#39acb6" d="M 371.5,478.5 C 372.833,479.167 372.833,479.167 371.5,478.5 Z"/></g>
<g><path style="opacity:0.004" fill="#212322" d="M 533.5,478.5 C 534.833,479.167 534.833,479.167 533.5,478.5 Z"/></g>
<g><path style="opacity:0.004" fill="#3da8b2" d="M 373.5,480.5 C 372.833,481.167 372.833,481.167 373.5,480.5 Z"/></g>
<g><path style="opacity:0.004" fill="#3eafb8" d="M 327.5,481.5 C 328.833,482.167 328.833,482.167 327.5,481.5 Z"/></g>
<g><path style="opacity:0.004" fill="#3cadb9" d="M 330.5,482.5 C 330.631,483.239 330.464,483.906 330,484.5C 329.308,483.563 329.475,482.897 330.5,482.5 Z"/></g>
<g><path style="opacity:0.004" fill="#3cabb9" d="M 327.5,484.5 C 328.833,485.167 328.833,485.167 327.5,484.5 Z"/></g>
<g><path style="opacity:0.806" fill="#237d85" d="M 321.5,371.5 C 329.807,376.324 337.807,381.657 345.5,387.5C 347.808,389.471 350.142,391.471 352.5,393.5C 358.464,399.502 364.464,406.169 370.5,413.5C 371.34,415.853 372.674,417.853 374.5,419.5C 385.146,437.599 392.146,457.099 395.5,478C 393.372,486.73 388.039,489.73 379.5,487C 377.144,485.086 375.144,482.919 373.5,480.5C 373.118,474.493 371.784,468.827 369.5,463.5C 368.135,456.729 365.801,450.396 362.5,444.5C 357.119,432.13 349.453,421.464 339.5,412.5C 333.314,405.31 325.981,399.643 317.5,395.5C 316.341,393.75 314.674,392.75 312.5,392.5C 306.132,389.262 299.466,386.596 292.5,384.5C 292.917,383.876 293.584,383.543 294.5,383.5C 298.197,384.566 301.864,385.732 305.5,387C 345.595,405.986 369.095,437.486 376,481.5C 381.667,488.167 387.333,488.167 393,481.5C 391.771,463.922 387.104,447.256 379,431.5C 355.963,388.405 320.129,365.071 271.5,361.5C 274.339,360.66 277.173,360.327 280,360.5C 294.332,362.221 308.165,365.887 321.5,371.5 Z"/></g>
<g><path style="opacity:0.004" fill="#3cb2bd" d="M 302.5,485.5 C 303.833,486.167 303.833,486.167 302.5,485.5 Z"/></g>
<g><path style="opacity:0.004" fill="#3caeb8" d="M 329.5,486.5 C 330.833,487.167 330.833,487.167 329.5,486.5 Z"/></g>
<g><path style="opacity:0.004" fill="#3dadb8" d="M 331.5,486.5 C 332.833,487.167 332.833,487.167 331.5,486.5 Z"/></g>
<g><path style="opacity:0.004" fill="#232326" d="M 645.5,487.5 C 646.833,488.167 646.833,488.167 645.5,487.5 Z"/></g>
<g><path style="opacity:0.012" fill="#222628" d="M 670.5,487.5 C 671.833,488.167 671.833,488.167 670.5,487.5 Z"/></g>
<g><path style="opacity:0.004" fill="#232425" d="M 681.5,487.5 C 682.833,488.167 682.833,488.167 681.5,487.5 Z"/></g>
<g><path style="opacity:0.008" fill="#292728" d="M 759.5,488.5 C 759.897,487.475 760.563,487.308 761.5,488C 760.906,488.464 760.239,488.631 759.5,488.5 Z"/></g>
<g><path style="opacity:0.008" fill="#252525" d="M 789.5,487.5 C 790.833,488.167 790.833,488.167 789.5,487.5 Z"/></g>
<g><path style="opacity:0.004" fill="#2a2828" d="M 793.5,487.5 C 794.833,488.167 794.833,488.167 793.5,487.5 Z"/></g>
<g><path style="opacity:0.004" fill="#2d2c2b" d="M 915.5,487.5 C 916.833,488.167 916.833,488.167 915.5,487.5 Z"/></g>
<g><path style="opacity:0.012" fill="#242626" d="M 625.5,488.5 C 626.833,489.167 626.833,489.167 625.5,488.5 Z"/></g>
<g><path style="opacity:0.004" fill="#282826" d="M 628.5,489.5 C 627.833,488.167 627.833,488.167 628.5,489.5 Z"/></g>
<g><path style="opacity:0.004" fill="#272a28" d="M 795.5,488.5 C 796.833,489.167 796.833,489.167 795.5,488.5 Z"/></g>
<g><path style="opacity:0.008" fill="#2c2c2d" d="M 917.5,488.5 C 918.833,489.167 918.833,489.167 917.5,488.5 Z"/></g>
<g><path style="opacity:0.004" fill="#252324" d="M 625.5,489.5 C 625.5,489.833 625.5,490.167 625.5,490.5C 624.83,490.019 624.83,489.685 625.5,489.5 Z"/></g>
<g><path style="opacity:0.993" fill="#0e0e0e" d="M 645.5,488.5 C 645.783,489.289 646.283,489.956 647,490.5C 647.667,500.167 647.667,509.833 647,519.5C 639.439,520.031 631.939,521.198 624.5,523C 618.767,525.354 614.433,529.187 611.5,534.5C 611.672,533.508 611.338,532.842 610.5,532.5C 613.729,526.773 618.396,522.607 624.5,520C 631.375,519.095 638.209,518.261 645,517.5C 645.5,508.84 645.666,500.173 645.5,491.5C 628.349,489.826 615.515,496.493 607,511.5C 606.536,510.906 606.369,510.239 606.5,509.5C 609.067,504.596 612.401,500.263 616.5,496.5C 619.365,494.239 622.365,492.239 625.5,490.5C 626.791,490.737 627.791,490.404 628.5,489.5C 634.138,488.78 639.804,488.447 645.5,488.5 Z"/></g>
<g><path style="opacity:0.008" fill="#3ab1bb" d="M 225.5,490.5 C 226.833,491.167 226.833,491.167 225.5,490.5 Z"/></g>
<g><path style="opacity:0.987" fill="#0d0d0e" d="M 605.5,509.5 C 605.631,510.376 605.298,511.043 604.5,511.5C 603.504,505.202 603.17,498.868 603.5,492.5C 594.833,492.5 586.167,492.5 577.5,492.5C 577.5,532.5 577.5,572.5 577.5,612.5C 586.5,612.5 595.5,612.5 604.5,612.5C 604.333,591.497 604.5,570.497 605,549.5C 605.57,543.343 607.404,537.676 610.5,532.5C 611.338,532.842 611.672,533.508 611.5,534.5C 609.838,538.324 608.671,542.324 608,546.5C 607.813,569.209 607.313,591.876 606.5,614.5C 596.911,615.639 587.244,615.806 577.5,615C 577,614.5 576.5,614 576,613.5C 575.333,572.833 575.333,532.167 576,491.5C 585.413,489.346 594.913,489.012 604.5,490.5C 605.418,492.758 606.085,495.091 606.5,497.5C 606.255,501.134 605.922,505.134 605.5,509.5 Z"/></g>
<g><path style="opacity:0.976" fill="#0d0d0e" d="M 697.5,562.5 C 696.439,577.091 696.439,592.091 697.5,607.5C 697.742,610.514 696.742,613.014 694.5,615C 685.833,615.667 677.167,615.667 668.5,615C 667.473,614.487 666.473,613.987 665.5,613.5C 665.523,602.196 665.189,590.863 664.5,579.5C 665.385,565.432 665.385,548.099 664.5,527.5C 663.935,524.881 663.935,522.548 664.5,520.5C 663.348,514.311 663.348,508.644 664.5,503.5C 664.752,499.233 665.419,495.066 666.5,491C 668.744,490.094 671.077,489.594 673.5,489.5C 680.969,489.574 688.635,489.907 696.5,490.5C 697.174,515.198 697.507,539.198 697.5,562.5 Z"/></g>
<g><path style="opacity:0.998" fill="#161517" d="M 821.5,573.5 C 823.927,573.523 826.26,574.023 828.5,575C 829.29,580.673 827.956,585.84 824.5,590.5C 824.631,589.624 824.298,588.957 823.5,588.5C 818.095,599.737 809.428,607.237 797.5,611C 779.737,615.689 762.404,614.355 745.5,607C 730.545,597.279 722.045,583.446 720,565.5C 716.041,541.471 722.208,520.638 738.5,503C 755.47,490.763 774.137,487.429 794.5,493C 812.264,499.318 822.931,511.818 826.5,530.5C 826.023,531.478 825.357,532.311 824.5,533C 816.781,533.923 809.114,535.089 801.5,536.5C 799.137,522.31 790.637,514.31 776,512.5C 759.818,514.348 750.485,523.348 748,539.5C 747.333,547.833 747.333,556.167 748,564.5C 751.777,584.974 763.944,593.474 784.5,590C 793.135,587.566 798.802,582.066 801.5,573.5C 802.5,573.167 803.5,572.833 804.5,572.5C 811.013,574.704 817.68,575.537 824.5,575C 823.263,574.768 822.263,574.268 821.5,573.5 Z"/></g>
<g><path style="opacity:0.998" fill="#161517" d="M 610.5,532.5 C 607.404,537.676 605.57,543.343 605,549.5C 604.5,570.497 604.333,591.497 604.5,612.5C 595.5,612.5 586.5,612.5 577.5,612.5C 577.5,572.5 577.5,532.5 577.5,492.5C 586.167,492.5 594.833,492.5 603.5,492.5C 603.17,498.868 603.504,505.202 604.5,511.5C 605.298,511.043 605.631,510.376 605.5,509.5C 605.833,509.5 606.167,509.5 606.5,509.5C 606.369,510.239 606.536,510.906 607,511.5C 615.515,496.493 628.349,489.826 645.5,491.5C 645.666,500.173 645.5,508.84 645,517.5C 638.209,518.261 631.375,519.095 624.5,520C 618.396,522.607 613.729,526.773 610.5,532.5 Z"/></g>
<g><path style="opacity:0.004" fill="#262926" d="M 748.5,491.5 C 749.833,492.167 749.833,492.167 748.5,491.5 Z"/></g>
<g><path style="opacity:0.998" fill="#161617" d="M 940.5,509.5 C 944.729,517.6 946.562,526.267 946,535.5C 946.667,560.833 946.667,586.167 946,611.5C 937.585,612.483 929.085,612.817 920.5,612.5C 920.666,608.486 920.499,604.486 920,600.5C 919.439,599.978 918.772,599.645 918,599.5C 905.726,611.902 890.892,616.402 873.5,613C 849.054,606.299 839.887,590.465 846,565.5C 852.869,550.978 864.369,543.144 880.5,542C 892.244,541.034 903.911,541.534 915.5,543.5C 916.167,543.333 916.833,543.167 917.5,543C 916.584,542.722 915.918,542.222 915.5,541.5C 916.167,541.5 916.833,541.5 917.5,541.5C 921.735,529.928 918.735,520.428 908.5,513C 902.051,510.569 895.385,509.902 888.5,511C 886.099,511.795 883.932,512.962 882,514.5C 881.667,514.167 881.333,513.833 881,513.5C 877.399,518.367 874.565,523.7 872.5,529.5C 864.333,528.151 856.333,526.318 848.5,524C 855.859,500.796 871.859,489.629 896.5,490.5C 914.673,489.265 929.34,495.598 940.5,509.5 Z M 913.5,563.5 C 913.5,563.833 913.5,564.167 913.5,564.5C 914.959,564.433 916.292,564.766 917.5,565.5C 917.158,566.338 916.492,566.672 915.5,566.5C 916.278,567.156 916.944,567.989 917.5,569C 917.093,572.805 916.093,576.305 914.5,579.5C 913.581,582.089 911.914,584.089 909.5,585.5C 908.251,587.136 906.584,588.303 904.5,589C 897.257,591.657 889.924,591.99 882.5,590C 879.894,589.208 877.894,587.708 876.5,585.5C 872.562,581.139 871.896,576.473 874.5,571.5C 875.247,568.638 876.914,566.638 879.5,565.5C 879.842,564.662 880.508,564.328 881.5,564.5C 883.476,562.989 885.809,562.156 888.5,562C 891.333,561.833 894.167,561.667 897,561.5C 902.079,562.653 907.579,563.319 913.5,563.5 Z"/></g>
<g><path style="opacity:0.998" fill="#161517" d="M 667.5,492.5 C 676.5,492.5 685.5,492.5 694.5,492.5C 694.5,532.5 694.5,572.5 694.5,612.5C 685.582,612.817 676.749,612.484 668,611.5C 667.5,571.835 667.333,532.168 667.5,492.5 Z"/></g>
<g><path style="opacity:0.012" fill="#2a2927" d="M 803.5,492.5 C 804.833,493.167 804.833,493.167 803.5,492.5 Z"/></g>
<g><path style="opacity:0.016" fill="#3bb2bd" d="M 227.5,494.5 C 228.833,495.167 228.833,495.167 227.5,494.5 Z"/></g>
<g><path style="opacity:0.004" fill="#232122" d="M 608.5,495.5 C 609.833,496.167 609.833,496.167 608.5,495.5 Z"/></g>
<g><path style="opacity:0.012" fill="#232225" d="M 616.5,496.5 C 615.833,495.167 615.833,495.167 616.5,496.5 Z"/></g>
<g><path style="opacity:0.008" fill="#292528" d="M 808.5,495.5 C 809.833,496.167 809.833,496.167 808.5,495.5 Z"/></g>
<g><path style="opacity:0.004" fill="#242727" d="M 863.5,496.5 C 862.833,495.167 862.833,495.167 863.5,496.5 Z"/></g>
<g><path style="opacity:0.016" fill="#41b4bc" d="M 86.5,493.5 C 86.5,494.833 86.5,496.167 86.5,497.5C 85.7611,497.631 85.0944,497.464 84.5,497C 85.0848,495.698 85.7515,494.531 86.5,493.5 Z"/></g>
<g><path style="opacity:0.016" fill="#262726" d="M 860.5,496.5 C 861.833,497.167 861.833,497.167 860.5,496.5 Z"/></g>
<g><path style="opacity:0.994" fill="#217378" d="M 86.5,447.5 C 87.3382,447.842 87.6716,448.508 87.5,449.5C 87.8323,503.003 87.4989,556.336 86.5,609.5C 86.4467,603.632 86.1133,597.965 85.5,592.5C 85.6507,577.876 85.6507,564.209 85.5,551.5C 86.2429,544.377 86.5762,537.043 86.5,529.5C 86.5,527.833 86.5,526.167 86.5,524.5C 86.5,523.5 86.5,522.5 86.5,521.5C 86.5,520.5 86.5,519.5 86.5,518.5C 85.568,511.295 85.568,504.295 86.5,497.5C 86.5,496.167 86.5,494.833 86.5,493.5C 85.5687,480.549 85.5687,468.216 86.5,456.5C 86.5,454.833 86.5,453.167 86.5,451.5C 86.5,450.167 86.5,448.833 86.5,447.5 Z"/></g>
<g><path style="opacity:0.004" fill="#3eb1bd" d="M 228.5,497.5 C 229.833,498.167 229.833,498.167 228.5,497.5 Z"/></g>
<g><path style="opacity:0.004" fill="#232424" d="M 611.5,497.5 C 612.833,498.167 612.833,498.167 611.5,497.5 Z"/></g>
<g><path style="opacity:0.004" fill="#242425" d="M 609.5,498.5 C 610.833,499.167 610.833,499.167 609.5,498.5 Z"/></g>
<g><path style="opacity:0.006" fill="#3ab1bd" d="M 230.5,505.5 C 229.475,505.103 229.308,504.437 230,503.5C 230.464,504.094 230.631,504.761 230.5,505.5 Z"/></g>
<g><path style="opacity:0.008" fill="#1c1d1e" d="M 664.5,503.5 C 664.631,504.239 664.464,504.906 664,505.5C 663.308,504.563 663.475,503.897 664.5,503.5 Z"/></g>
<g><path style="opacity:0.004" fill="#3ab1bc" d="M 223.5,504.5 C 224.833,505.167 224.833,505.167 223.5,504.5 Z"/></g>
<g><path style="opacity:0.008" fill="#272528" d="M 848.5,505.5 C 849.833,506.167 849.833,506.167 848.5,505.5 Z"/></g>
<g><path style="opacity:0.024" fill="#272824" d="M 852.5,507.5 C 851.833,506.167 851.833,506.167 852.5,507.5 Z"/></g>
<g><path style="opacity:0.004" fill="#3bacb4" d="M 83.5,509.5 C 84.8333,510.167 84.8333,510.167 83.5,509.5 Z"/></g>
<g><path style="opacity:0.004" fill="#39b2bd" d="M 224.5,511.5 C 223.833,510.167 223.833,510.167 224.5,511.5 Z"/></g>
<g><path style="opacity:0.922" fill="#22818a" d="M 290.5,458.5 C 302.507,472.36 304.674,487.693 297,504.5C 294.179,509.175 290.679,513.175 286.5,516.5C 277.689,521.191 268.356,522.857 258.5,521.5C 258.842,520.662 259.508,520.328 260.5,520.5C 278.352,522 290.852,514.666 298,498.5C 302.615,483.034 299.115,469.867 287.5,459C 271.01,448.306 255.177,449.139 240,461.5C 229.28,474.924 227.613,489.257 235,504.5C 220.653,518.681 206.486,533.014 192.5,547.5C 189.278,545.545 185.944,544.212 182.5,543.5C 183.791,543.737 184.791,543.404 185.5,542.5C 188.098,543.772 190.598,544.439 193,544.5C 196.112,541.899 198.612,538.899 200.5,535.5C 203.5,534.5 205.5,532.5 206.5,529.5C 209.882,527.451 212.549,524.785 214.5,521.5C 218.167,518.5 221.5,515.167 224.5,511.5C 226.833,509.833 228.833,507.833 230.5,505.5C 231.627,504.878 232.627,504.045 233.5,503C 225.065,485.508 228.065,470.174 242.5,457C 258.842,446.713 274.842,447.213 290.5,458.5 Z"/></g>
<g><path style="opacity:0.986" fill="#0e0e0f" d="M 789.5,488.5 C 794.081,490.14 798.748,491.807 803.5,493.5C 804.965,494.737 806.632,495.737 808.5,496.5C 818.481,503.907 824.815,513.407 827.5,525C 827.763,527.432 828.763,529.432 830.5,531C 828.947,532.097 827.614,533.43 826.5,535C 818.249,536.236 810.082,537.736 802,539.5C 799.824,535.332 797.824,530.999 796,526.5C 787.654,516.12 777.154,513.287 764.5,518C 758.469,521.694 754.303,526.861 752,533.5C 748.072,547.753 748.738,561.753 754,575.5C 763.479,588.403 775.646,591.569 790.5,585C 795.187,580.457 799.02,575.291 802,569.5C 808.435,571.02 814.935,572.354 821.5,573.5C 822.263,574.268 823.263,574.768 824.5,575C 817.68,575.537 811.013,574.704 804.5,572.5C 803.5,572.833 802.5,573.167 801.5,573.5C 798.802,582.066 793.135,587.566 784.5,590C 763.944,593.474 751.777,584.974 748,564.5C 747.333,556.167 747.333,547.833 748,539.5C 750.485,523.348 759.818,514.348 776,512.5C 790.637,514.31 799.137,522.31 801.5,536.5C 809.114,535.089 816.781,533.923 824.5,533C 825.357,532.311 826.023,531.478 826.5,530.5C 822.931,511.818 812.264,499.318 794.5,493C 774.137,487.429 755.47,490.763 738.5,503C 722.208,520.638 716.041,541.471 720,565.5C 722.045,583.446 730.545,597.279 745.5,607C 762.404,614.355 779.737,615.689 797.5,611C 809.428,607.237 818.095,599.737 823.5,588.5C 824.298,588.957 824.631,589.624 824.5,590.5C 817.605,603.971 806.605,612.138 791.5,615C 745.709,621.023 720.375,601.19 715.5,555.5C 716.775,549.876 717.608,543.876 718,537.5C 726.911,499.798 750.744,483.465 789.5,488.5 Z"/></g>
<g><path style="opacity:0.004" fill="#3aaebc" d="M 221.5,511.5 C 222.833,512.167 222.833,512.167 221.5,511.5 Z"/></g>
<g><path style="opacity:0.004" fill="#212123" d="M 723.5,512.5 C 722.833,511.167 722.833,511.167 723.5,512.5 Z"/></g>
<g><path style="opacity:0.992" fill="#131314" d="M 942.5,508.5 C 945.724,514.391 947.557,520.724 948,527.5C 948.667,556.167 948.667,584.833 948,613.5C 947.25,614.126 946.416,614.626 945.5,615C 936.657,615.824 927.99,615.657 919.5,614.5C 919.328,613.508 919.662,612.842 920.5,612.5C 929.085,612.817 937.585,612.483 946,611.5C 946.667,586.167 946.667,560.833 946,535.5C 946.562,526.267 944.729,517.6 940.5,509.5C 941.167,509.167 941.833,508.833 942.5,508.5 Z"/></g>
<g><path style="opacity:0.004" fill="#3bb1ba" d="M 215.5,512.5 C 216.833,513.167 216.833,513.167 215.5,512.5 Z"/></g>
<g><path style="opacity:0.008" fill="#232222" d="M 720.5,512.5 C 721.833,513.167 721.833,513.167 720.5,512.5 Z"/></g>
<g><path style="opacity:0.008" fill="#202422" d="M 723.5,512.5 C 724.833,513.167 724.833,513.167 723.5,512.5 Z"/></g>
<g><path style="opacity:0.004" fill="#38afbd" d="M 217.5,513.5 C 218.833,514.167 218.833,514.167 217.5,513.5 Z"/></g>
<g><path style="opacity:0.01" fill="#212222" d="M 484.5,514.5 C 484.897,513.475 485.563,513.308 486.5,514C 485.906,514.464 485.239,514.631 484.5,514.5 Z"/></g>
<g><path style="opacity:0.004" fill="#202123" d="M 496.5,513.5 C 497.833,514.167 497.833,514.167 496.5,513.5 Z"/></g>
<g><path style="opacity:0.004" fill="#202223" d="M 508.5,513.5 C 509.833,514.167 509.833,514.167 508.5,513.5 Z"/></g>
<g><path style="opacity:0.004" fill="#212021" d="M 517.5,514.5 C 517.897,513.475 518.563,513.308 519.5,514C 518.906,514.464 518.239,514.631 517.5,514.5 Z"/></g>
<g><path style="opacity:0.004" fill="#222221" d="M 526.5,513.5 C 527.833,514.167 527.833,514.167 526.5,513.5 Z"/></g>
<g><path style="opacity:0.004" fill="#201f20" d="M 537.5,513.5 C 538.833,514.167 538.833,514.167 537.5,513.5 Z"/></g>
<g><path style="opacity:0.984" fill="#28939e" d="M 260.5,520.5 C 259.508,520.328 258.842,520.662 258.5,521.5C 255.427,520.801 252.427,519.801 249.5,518.5C 248.818,519.243 248.151,519.909 247.5,520.5C 247.5,519.833 247.167,519.5 246.5,519.5C 247.09,518.234 247.59,516.901 248,515.5C 251.998,517.882 256.165,519.548 260.5,520.5 Z"/></g>
<g><path style="opacity:0.004" fill="#3badbb" d="M 286.5,516.5 C 287.833,517.167 287.833,517.167 286.5,516.5 Z"/></g>
<g><path style="opacity:0.004" fill="#222525" d="M 775.5,516.5 C 776.833,517.167 776.833,517.167 775.5,516.5 Z"/></g>
<g><path style="opacity:0.004" fill="#39b0bb" d="M 286.5,517.5 C 285.833,518.167 285.833,518.167 286.5,517.5 Z"/></g>
<g><path style="opacity:0.027" fill="#3fb4bd" d="M 86.5,518.5 C 86.5,519.5 86.5,520.5 86.5,521.5C 84.4433,521.043 84.4433,520.043 86.5,518.5 Z"/></g>
<g><path style="opacity:0.004" fill="#3ab2be" d="M 214.5,521.5 C 213.833,520.167 213.833,520.167 214.5,521.5 Z"/></g>
<g><path style="opacity:0.008" fill="#1d1f1f" d="M 664.5,520.5 C 663.833,521.167 663.833,521.167 664.5,520.5 Z"/></g>
<g><path style="opacity:0.012" fill="#37afb8" d="M 208.5,521.5 C 209.833,522.167 209.833,522.167 208.5,521.5 Z"/></g>
<g><path style="opacity:0.008" fill="#3ab3bc" d="M 257.5,522.5 C 258.833,523.167 258.833,523.167 257.5,522.5 Z"/></g>
<g><path style="opacity:0.004" fill="#222222" d="M 630.5,522.5 C 631.833,523.167 631.833,523.167 630.5,522.5 Z"/></g>
<g><path style="opacity:0.008" fill="#3bb2bd" d="M 264.5,523.5 C 265.833,524.167 265.833,524.167 264.5,523.5 Z"/></g>
<g><path style="opacity:0.004" fill="#242625" d="M 792.5,524.5 C 793.833,525.167 793.833,525.167 792.5,524.5 Z"/></g>
<g><path style="opacity:0.004" fill="#1f201e" d="M 664.5,527.5 C 663.833,526.167 663.833,526.167 664.5,527.5 Z"/></g>
<g><path style="opacity:0.008" fill="#272726" d="M 793.5,526.5 C 794.833,527.167 794.833,527.167 793.5,526.5 Z"/></g>
<g><path style="opacity:0.004" fill="#3bb2bc" d="M 205.5,528.5 C 204.833,527.167 204.833,527.167 205.5,528.5 Z"/></g>
<g><path style="opacity:0.983" fill="#0f0f10" d="M 942.5,508.5 C 941.833,508.833 941.167,509.167 940.5,509.5C 929.34,495.598 914.673,489.265 896.5,490.5C 871.859,489.629 855.859,500.796 848.5,524C 856.333,526.318 864.333,528.151 872.5,529.5C 874.565,523.7 877.399,518.367 881,513.5C 881.333,513.833 881.667,514.167 882,514.5C 883.932,512.962 886.099,511.795 888.5,511C 895.385,509.902 902.051,510.569 908.5,513C 918.735,520.428 921.735,529.928 917.5,541.5C 917.776,535.155 916.776,529.155 914.5,523.5C 913.92,521.251 912.587,519.585 910.5,518.5C 909.177,516.314 907.177,514.814 904.5,514C 898.833,512 893.167,512 887.5,514C 885.416,514.697 883.749,515.864 882.5,517.5C 880.926,517.937 879.759,518.937 879,520.5C 877.47,524.09 876.136,527.757 875,531.5C 874.439,532.022 873.772,532.355 873,532.5C 864.924,530.285 856.758,528.451 848.5,527C 847.484,526.481 846.818,525.647 846.5,524.5C 847.714,518.524 849.714,512.857 852.5,507.5C 855.833,503.5 859.5,499.833 863.5,496.5C 877.948,487.891 894.282,485.391 912.5,489C 925.363,491.255 935.363,497.755 942.5,508.5 Z"/></g>
<g><path style="opacity:0.016" fill="#242325" d="M 913.5,523.5 C 913.833,523.5 914.167,523.5 914.5,523.5C 914.315,524.17 913.981,524.17 913.5,523.5 Z"/></g>
<g><path style="opacity:0.008" fill="#242727" d="M 913.5,523.5 C 912.833,522.167 912.833,522.167 913.5,523.5 Z"/></g>
<g><path style="opacity:0.012" fill="#262425" d="M 909.5,518.5 C 909.833,518.5 910.167,518.5 910.5,518.5C 910.315,519.17 909.981,519.17 909.5,518.5 Z"/></g>
<g><path style="opacity:0.004" fill="#222523" d="M 909.5,518.5 C 908.833,517.167 908.833,517.167 909.5,518.5 Z"/></g>
<g><path style="opacity:0.008" fill="#242424" d="M 882.5,517.5 C 883.833,518.167 883.833,518.167 882.5,517.5 Z"/></g>
<g><path style="opacity:0.004" fill="#252426" d="M 906.5,516.5 C 907.833,517.167 907.833,517.167 906.5,516.5 Z"/></g>
<g><path style="opacity:0.012" fill="#262525" d="M 904.5,516.5 C 905.833,517.167 905.833,517.167 904.5,516.5 Z"/></g>
<g><path style="opacity:0.004" fill="#272725" d="M 901.5,514.5 C 902.833,515.167 902.833,515.167 901.5,514.5 Z"/></g>
<g><path style="opacity:0.008" fill="#242725" d="M 893.5,513.5 C 894.833,514.167 894.833,514.167 893.5,513.5 Z"/></g>
<g><path style="opacity:0.008" fill="#42b4bd" d="M 86.5,524.5 C 86.5,526.167 86.5,527.833 86.5,529.5C 85.7611,529.631 85.0944,529.464 84.5,529C 85.0989,527.378 85.7656,525.878 86.5,524.5 Z"/></g>
<g><path style="opacity:0.012" fill="#37aebb" d="M 205.5,528.5 C 206.167,528.5 206.5,528.833 206.5,529.5C 206.167,529.167 205.833,528.833 205.5,528.5 Z"/></g>
<g><path style="opacity:0.004" fill="#252424" d="M 865.5,531.5 C 866.833,532.167 866.833,532.167 865.5,531.5 Z"/></g>
<g><path style="opacity:0.004" fill="#242224" d="M 796.5,532.5 C 797.833,533.167 797.833,533.167 796.5,532.5 Z"/></g>
<g><path style="opacity:0.004" fill="#262426" d="M 867.5,533.5 C 868.833,534.167 868.833,534.167 867.5,533.5 Z"/></g>
<g><path style="opacity:0.008" fill="#3ab3bc" d="M 200.5,535.5 C 199.833,534.167 199.833,534.167 200.5,535.5 Z"/></g>
<g><path style="opacity:0.004" fill="#252626" d="M 871.5,533.5 C 872.525,533.897 872.692,534.563 872,535.5C 871.536,534.906 871.369,534.239 871.5,533.5 Z"/></g>
<g><path style="opacity:0.004" fill="#1e2122" d="M 663.5,536.5 C 664.833,537.167 664.833,537.167 663.5,536.5 Z"/></g>
<g><path style="opacity:0.004" fill="#232323" d="M 872.5,536.5 C 873.833,537.167 873.833,537.167 872.5,536.5 Z"/></g>
<g><path style="opacity:0.012" fill="#252525" d="M 890.5,536.5 C 891.833,537.167 891.833,537.167 890.5,536.5 Z"/></g>
<g><path style="opacity:0.004" fill="#242525" d="M 878.5,537.5 C 879.833,538.167 879.833,538.167 878.5,537.5 Z"/></g>
<g><path style="opacity:0.012" fill="#3bb2bc" d="M 169.5,538.5 C 170.833,539.167 170.833,539.167 169.5,538.5 Z"/></g>
<g><path style="opacity:0.008" fill="#3db0b7" d="M 175.5,538.5 C 176.833,539.167 176.833,539.167 175.5,538.5 Z"/></g>
<g><path style="opacity:0.004" fill="#3bb1bb" d="M 312.5,538.5 C 313.833,539.167 313.833,539.167 312.5,538.5 Z"/></g>
<g><path style="opacity:0.008" fill="#242221" d="M 812.5,538.5 C 813.833,539.167 813.833,539.167 812.5,538.5 Z"/></g>
<g><path style="opacity:0.008" fill="#3ab2bc" d="M 182.5,539.5 C 183.833,540.167 183.833,540.167 182.5,539.5 Z"/></g>
<g><path style="opacity:0.004" fill="#262725" d="M 805.5,539.5 C 806.833,540.167 806.833,540.167 805.5,539.5 Z"/></g>
<g><path style="opacity:0.008" fill="#242325" d="M 808.5,539.5 C 809.833,540.167 809.833,540.167 808.5,539.5 Z"/></g>
<g><path style="opacity:0.008" fill="#212223" d="M 610.5,540.5 C 611.833,541.167 611.833,541.167 610.5,540.5 Z"/></g>
<g><path style="opacity:0.016" fill="#272325" d="M 802.5,540.5 C 803.833,541.167 803.833,541.167 802.5,540.5 Z"/></g>
<g><path style="opacity:1" fill="#217a80" d="M 185.5,542.5 C 184.791,543.404 183.791,543.737 182.5,543.5C 177.731,542.883 173.064,542.216 168.5,541.5C 174.215,540.409 179.882,540.742 185.5,542.5 Z"/></g>
<g><path style="opacity:0.988" fill="#20777e" d="M 327.5,541.5 C 323.167,542.833 318.833,542.833 314.5,541.5C 318.819,540.326 323.153,540.326 327.5,541.5 Z"/></g>
<g><path style="opacity:0.004" fill="#3dacb5" d="M 83.5,542.5 C 84.8333,543.167 84.8333,543.167 83.5,542.5 Z"/></g>
<g><path style="opacity:0.008" fill="#252527" d="M 859.5,543.5 C 860.833,544.167 860.833,544.167 859.5,543.5 Z"/></g>
<g><path style="opacity:0.016" fill="#3bafbb" d="M 339.5,544.5 C 340.833,545.167 340.833,545.167 339.5,544.5 Z"/></g>
<g><path style="opacity:0.004" fill="#3da5ae" d="M 348.5,544.5 C 349.833,545.167 349.833,545.167 348.5,544.5 Z"/></g>
<g><path style="opacity:0.027" fill="#2c2b2c" d="M 490.5,544.5 C 487.713,545.477 484.713,545.81 481.5,545.5C 481.806,548.385 481.473,551.052 480.5,553.5C 480.5,550.5 480.5,547.5 480.5,544.5C 483.833,544.5 487.167,544.5 490.5,544.5 Z"/></g>
<g><path style="opacity:0.882" fill="#1f7e85" d="M 246.5,519.5 C 247.167,519.5 247.5,519.833 247.5,520.5C 237.419,529.914 227.752,539.581 218.5,549.5C 217.475,549.103 217.308,548.437 218,547.5C 227.368,537.964 236.868,528.631 246.5,519.5 Z"/></g>
<g><path style="opacity:0.004" fill="#242424" d="M 854.5,545.5 C 855.833,546.167 855.833,546.167 854.5,545.5 Z"/></g>
<g><path style="opacity:0.012" fill="#232425" d="M 857.5,546.5 C 856.833,545.167 856.833,545.167 857.5,546.5 Z"/></g>
<g><path style="opacity:0.008" fill="#222121" d="M 501.5,547.5 C 501.897,546.475 502.563,546.308 503.5,547C 502.906,547.464 502.239,547.631 501.5,547.5 Z"/></g>
<g><path style="opacity:0.012" fill="#212421" d="M 537.5,546.5 C 538.833,547.167 538.833,547.167 537.5,546.5 Z"/></g>
<g><path style="opacity:0.016" fill="#212221" d="M 486.5,547.5 C 487.833,548.167 487.833,548.167 486.5,547.5 Z"/></g>
<g><path style="opacity:0.004" fill="#212323" d="M 750.5,548.5 C 751.833,549.167 751.833,549.167 750.5,548.5 Z"/></g>
<g><path style="opacity:0.99" fill="#0f0f10" d="M 915.5,541.5 C 915.918,542.222 916.584,542.722 917.5,543C 916.833,543.167 916.167,543.333 915.5,543.5C 903.911,541.534 892.244,541.034 880.5,542C 864.369,543.144 852.869,550.978 846,565.5C 839.887,590.465 849.054,606.299 873.5,613C 890.892,616.402 905.726,611.902 918,599.5C 918.772,599.645 919.439,599.978 920,600.5C 920.499,604.486 920.666,608.486 920.5,612.5C 919.662,612.842 919.328,613.508 919.5,614.5C 918.596,613.791 918.263,612.791 918.5,611.5C 918.817,608.428 918.484,605.428 917.5,602.5C 916.893,602.624 916.56,602.957 916.5,603.5C 914.5,605.5 912.5,607.5 910.5,609.5C 890.863,619.475 871.863,618.475 853.5,606.5C 851.138,603.808 848.804,601.141 846.5,598.5C 839.304,583.736 839.971,569.402 848.5,555.5C 851.264,552.281 854.264,549.281 857.5,546.5C 876.222,537.954 895.555,536.288 915.5,541.5 Z"/></g>
<g><path style="opacity:0.004" fill="#212222" d="M 497.5,550.5 C 498.833,551.167 498.833,551.167 497.5,550.5 Z"/></g>
<g><path style="opacity:0.004" fill="#202320" d="M 750.5,550.5 C 751.833,551.167 751.833,551.167 750.5,550.5 Z"/></g>
<g><path style="opacity:0.004" fill="#3fabb6" d="M 85.5,551.5 C 84.8333,552.167 84.8333,552.167 85.5,551.5 Z"/></g>
<g><path style="opacity:0.012" fill="#3ab2ba" d="M 291.5,552.5 C 292.833,553.167 292.833,553.167 291.5,552.5 Z"/></g>
<g><path style="opacity:0.004" fill="#212323" d="M 750.5,553.5 C 751.833,554.167 751.833,554.167 750.5,553.5 Z"/></g>
<g><path style="opacity:0.004" fill="#28292c" d="M 848.5,555.5 C 847.833,554.167 847.833,554.167 848.5,555.5 Z"/></g>
<g><path style="opacity:0.008" fill="#212020" d="M 715.5,555.5 C 714.833,556.167 714.833,556.167 715.5,555.5 Z"/></g>
<g><path style="opacity:0.855" fill="#21818a" d="M 216.5,551.5 C 214.194,554.473 211.527,557.14 208.5,559.5C 207.475,559.103 207.308,558.437 208,557.5C 210.167,555.333 212.333,553.167 214.5,551C 215.437,550.308 216.103,550.475 216.5,551.5 Z"/></g>
<g><path style="opacity:0.906" fill="#217d85" d="M 312.5,542.5 C 308.241,544.851 303.574,547.684 298.5,551C 295.213,554.293 292.713,558.127 291,562.5C 289.989,563.337 288.822,563.67 287.5,563.5C 287.5,563.167 287.5,562.833 287.5,562.5C 287.81,561.262 288.31,561.262 289,562.5C 293.361,551.631 301.195,544.964 312.5,542.5 Z"/></g>
<g><path style="opacity:0.851" fill="#1f7b82" d="M 165.5,542.5 C 166.239,542.369 166.906,542.536 167.5,543C 155.641,546.859 147.807,554.693 144,566.5C 143.536,565.906 143.369,565.239 143.5,564.5C 146.5,552.833 153.833,545.5 165.5,542.5 Z"/></g>
<g><path style="opacity:0.984" fill="#228188" d="M 170.5,558.5 C 188.068,558.554 194.234,566.887 189,583.5C 181.85,591.332 173.683,592.499 164.5,587C 159.668,581.808 158.168,575.642 160,568.5C 162.106,563.557 165.606,560.224 170.5,558.5 Z M 165.5,584.5 C 165.953,585.458 166.619,586.292 167.5,587C 179.923,591.279 187.257,587.113 189.5,574.5C 189.114,568.222 186.114,563.722 180.5,561C 165.675,559.489 159.508,565.989 162,580.5C 162.66,582.324 163.827,583.657 165.5,584.5 Z"/></g>
<g><path style="opacity:0.989" fill="#0e0e0f" d="M 913.5,563.5 C 907.579,563.319 902.079,562.653 897,561.5C 894.167,561.667 891.333,561.833 888.5,562C 885.809,562.156 883.476,562.989 881.5,564.5C 880.508,564.328 879.842,564.662 879.5,565.5C 876.914,566.638 875.247,568.638 874.5,571.5C 871.896,576.473 872.562,581.139 876.5,585.5C 877.894,587.708 879.894,589.208 882.5,590C 889.924,591.99 897.257,591.657 904.5,589C 906.584,588.303 908.251,587.136 909.5,585.5C 911.914,584.089 913.581,582.089 914.5,579.5C 916.093,576.305 917.093,572.805 917.5,569C 916.944,567.989 916.278,567.156 915.5,566.5C 916.492,566.672 917.158,566.338 917.5,565.5C 921.239,573.553 919.239,581.053 911.5,588C 899.07,596.439 886.737,596.439 874.5,588C 867.274,574.906 870.607,565.572 884.5,560C 895.795,557.896 906.795,558.896 917.5,563C 916.207,563.49 914.873,563.657 913.5,563.5 Z"/></g>
<g><path style="opacity:0.004" fill="#3bb5c0" d="M 229.5,559.5 C 230.833,560.167 230.833,560.167 229.5,559.5 Z"/></g>
<g><path style="opacity:0.004" fill="#39b4bd" d="M 273.5,559.5 C 274.833,560.167 274.833,560.167 273.5,559.5 Z"/></g>
<g><path style="opacity:0.992" fill="#247d84" d="M 330.5,542.5 C 333.792,542.647 336.792,543.647 339.5,545.5C 356.157,557.951 359.324,573.284 349,591.5C 345.472,596.201 340.972,599.534 335.5,601.5C 334.761,601.631 334.094,601.464 333.5,601C 340.139,598.697 345.306,594.531 349,588.5C 358.017,566.225 351.184,551.059 328.5,543C 329.094,542.536 329.761,542.369 330.5,542.5 Z"/></g>
<g><path style="opacity:0.008" fill="#232425" d="M 840.5,560.5 C 841.833,561.167 841.833,561.167 840.5,560.5 Z"/></g>
<g><path style="opacity:0.972" fill="#19686d" d="M 105.5,455.5 C 106.404,456.209 106.737,457.209 106.5,458.5C 106.626,508.159 106.626,557.159 106.5,605.5C 106.5,608.167 106.5,610.833 106.5,613.5C 105.662,613.158 105.328,612.492 105.5,611.5C 105.5,559.5 105.5,507.5 105.5,455.5 Z"/></g>
<g><path style="opacity:0.986" fill="#0d545a" d="M 287.5,562.5 C 287.5,562.833 287.5,563.167 287.5,563.5C 260.661,563.831 233.995,563.498 207.5,562.5C 234.167,562.5 260.833,562.5 287.5,562.5 Z"/></g>
<g><path style="opacity:0.004" fill="#1f2120" d="M 697.5,562.5 C 698.833,563.167 698.833,563.167 697.5,562.5 Z"/></g>
<g><path style="opacity:0.004" fill="#232325" d="M 841.5,562.5 C 842.833,563.167 842.833,563.167 841.5,562.5 Z"/></g>
<g><path style="opacity:0.012" fill="#212221" d="M 715.5,563.5 C 716.833,564.167 716.833,564.167 715.5,563.5 Z"/></g>
<g><path style="opacity:0.004" fill="#242425" d="M 841.5,564.5 C 842.833,565.167 842.833,565.167 841.5,564.5 Z"/></g>
<g><path style="opacity:0.008" fill="#272625" d="M 913.5,564.5 C 913.217,565.289 912.717,565.956 912,566.5C 911.472,565.184 911.972,564.517 913.5,564.5 Z"/></g>
<g><path style="opacity:0.006" fill="#222123" d="M 482.5,568.5 C 483.525,568.897 483.692,569.563 483,570.5C 482.536,569.906 482.369,569.239 482.5,568.5 Z"/></g>
<g><path style="opacity:0.008" fill="#262426" d="M 840.5,569.5 C 841.833,570.167 841.833,570.167 840.5,569.5 Z"/></g>
<g><path style="opacity:0.008" fill="#232422" d="M 753.5,570.5 C 754.833,571.167 754.833,571.167 753.5,570.5 Z"/></g>
<g><path style="opacity:0.004" fill="#262325" d="M 819.5,571.5 C 820.833,572.167 820.833,572.167 819.5,571.5 Z"/></g>
<g><path style="opacity:0.004" fill="#242627" d="M 822.5,571.5 C 823.833,572.167 823.833,572.167 822.5,571.5 Z"/></g>
<g><path style="opacity:1" fill="#1f767c" d="M 142.5,567.5 C 143.483,571.298 143.817,575.298 143.5,579.5C 143.672,580.492 143.338,581.158 142.5,581.5C 142.5,580.833 142.167,580.5 141.5,580.5C 141.231,576.069 141.564,571.735 142.5,567.5 Z"/></g>
<g><path style="opacity:0.004" fill="#41aab6" d="M 84.5,575.5 C 85.8333,576.167 85.8333,576.167 84.5,575.5 Z"/></g>
<g><path style="opacity:0.004" fill="#3bafb9" d="M 139.5,575.5 C 140.833,576.167 140.833,576.167 139.5,575.5 Z"/></g>
<g><path style="opacity:0.022" fill="#2e2d2f" d="M 480.5,559.5 C 481.493,567.65 481.826,575.983 481.5,584.5C 503.574,584.547 524.907,584.214 545.5,583.5C 546.739,583.942 547.739,584.609 548.5,585.5C 525.833,585.5 503.167,585.5 480.5,585.5C 480.5,576.833 480.5,568.167 480.5,559.5 Z"/></g>
<g><path style="opacity:0.008" fill="#222322" d="M 482.5,575.5 C 483.833,576.167 483.833,576.167 482.5,575.5 Z"/></g>
<g><path style="opacity:0.012" fill="#242325" d="M 839.5,576.5 C 840.525,576.897 840.692,577.563 840,578.5C 839.536,577.906 839.369,577.239 839.5,576.5 Z"/></g>
<g><path style="opacity:0.008" fill="#1e1f1e" d="M 664.5,579.5 C 663.833,578.167 663.833,578.167 664.5,579.5 Z"/></g>
<g><path style="opacity:0.004" fill="#3db4bc" d="M 141.5,580.5 C 140.833,581.167 140.833,581.167 141.5,580.5 Z"/></g>
<g><path style="opacity:0.012" fill="#1d1f1f" d="M 663.5,581.5 C 664.833,582.167 664.833,582.167 663.5,581.5 Z"/></g>
<g><path style="opacity:0.335" fill="#278d97" d="M 292.5,583.5 C 291.833,583.5 291.5,583.833 291.5,584.5C 263.791,583.537 235.791,583.204 207.5,583.5C 207.5,583.167 207.5,582.833 207.5,582.5C 235.33,581.336 263.33,581.17 291.5,582C 292.056,582.383 292.389,582.883 292.5,583.5 Z"/></g>
<g><path style="opacity:0.008" fill="#2d2d2e" d="M 949.5,582.5 C 950.833,583.167 950.833,583.167 949.5,582.5 Z"/></g>
<g><path style="opacity:0.004" fill="#3cb1bd" d="M 212.5,584.5 C 213.833,585.167 213.833,585.167 212.5,584.5 Z"/></g>
<g><path style="opacity:0.004" fill="#242524" d="M 765.5,584.5 C 766.833,585.167 766.833,585.167 765.5,584.5 Z"/></g>
<g><path style="opacity:0.012" fill="#212322" d="M 839.5,584.5 C 840.833,585.167 840.833,585.167 839.5,584.5 Z"/></g>
<g><path style="opacity:0.989" fill="#101011" d="M 550.5,447.5 C 550.273,455.789 549.94,464.123 549.5,472.5C 526.53,473.303 503.53,473.803 480.5,474C 483.167,474.667 483.167,475.333 480.5,476C 481.06,488.626 481.06,501.793 480.5,515.5C 500.836,515.333 521.169,515.5 541.5,516C 542,516.5 542.5,517 543,517.5C 543.816,526.412 543.65,535.245 542.5,544C 539.374,544.759 536.207,545.259 533,545.5C 519.102,545.275 504.936,544.942 490.5,544.5C 487.167,544.5 483.833,544.5 480.5,544.5C 480.5,547.5 480.5,550.5 480.5,553.5C 481.833,555.5 481.833,557.5 480.5,559.5C 480.5,568.167 480.5,576.833 480.5,585.5C 503.167,585.5 525.833,585.5 548.5,585.5C 550.776,585.756 551.943,587.09 552,589.5C 552.167,592.5 552.333,595.5 552.5,598.5C 552.056,602.497 552.056,606.331 552.5,610C 552.235,612.151 551.235,613.818 549.5,615C 516.125,615.819 482.792,615.652 449.5,614.5C 448.033,611.027 447.366,607.36 447.5,603.5C 447.372,551.977 447.539,500.31 448,448.5C 448.734,444.724 451.067,442.724 455,442.5C 486,443.833 517,443.833 548,442.5C 548.757,444.315 549.59,445.981 550.5,447.5 Z"/></g>
<g><path style="opacity:0.998" fill="#161517" d="M 451.5,445.5 C 483.5,445.5 515.5,445.5 547.5,445.5C 547.5,453.833 547.5,462.167 547.5,470.5C 524.592,470.173 501.758,470.506 479,471.5C 478.167,486.844 478.334,502.178 479.5,517.5C 499.787,518.488 520.121,518.821 540.5,518.5C 540.5,526.5 540.5,534.5 540.5,542.5C 520.164,542.333 499.831,542.5 479.5,543C 478.344,556.758 478.177,570.592 479,584.5C 479.374,585.416 479.874,586.25 480.5,587C 503.498,587.5 526.498,587.667 549.5,587.5C 549.802,595.556 549.469,603.556 548.5,611.5C 515.84,612.5 483.173,612.833 450.5,612.5C 450.171,556.762 450.504,501.095 451.5,445.5 Z"/></g>
<g><path style="opacity:0.02" fill="#3aadb8" d="M 291.5,588.5 C 292.833,589.167 292.833,589.167 291.5,588.5 Z"/></g>
<g><path style="opacity:0.012" fill="#221f23" d="M 722.5,587.5 C 723.525,587.897 723.692,588.563 723,589.5C 722.536,588.906 722.369,588.239 722.5,587.5 Z"/></g>
<g><path style="opacity:0.004" fill="#38afbe" d="M 287.5,590.5 C 288.833,591.167 288.833,591.167 287.5,590.5 Z"/></g>
<g><path style="opacity:0.008" fill="#3bafbf" d="M 292.5,590.5 C 293.833,591.167 293.833,591.167 292.5,590.5 Z"/></g>
<g><path style="opacity:0.008" fill="#1f2121" d="M 663.5,590.5 C 664.833,591.167 664.833,591.167 663.5,590.5 Z"/></g>
<g><path style="opacity:0.004" fill="#232525" d="M 723.5,590.5 C 724.833,591.167 724.833,591.167 723.5,590.5 Z"/></g>
<g><path style="opacity:0.012" fill="#3cabb5" d="M 85.5,592.5 C 84.8333,593.167 84.8333,593.167 85.5,592.5 Z"/></g>
<g><path style="opacity:0.008" fill="#40a6ae" d="M 347.5,594.5 C 348.833,595.167 348.833,595.167 347.5,594.5 Z"/></g>
<g><path style="opacity:0.004" fill="#3ab2bb" d="M 148.5,595.5 C 147.833,596.167 147.833,596.167 148.5,595.5 Z"/></g>
<g><path style="opacity:0.004" fill="#3da7b3" d="M 345.5,596.5 C 346.833,597.167 346.833,597.167 345.5,596.5 Z"/></g>
<g><path style="opacity:0.008" fill="#242523" d="M 845.5,598.5 C 844.761,598.631 844.094,598.464 843.5,598C 844.437,597.308 845.103,597.475 845.5,598.5 Z"/></g>
<g><path style="opacity:0.008" fill="#3aabb8" d="M 300.5,598.5 C 301.833,599.167 301.833,599.167 300.5,598.5 Z"/></g>
<g><path style="opacity:0.004" fill="#242526" d="M 845.5,598.5 C 845.833,598.5 846.167,598.5 846.5,598.5C 846.315,599.17 845.981,599.17 845.5,598.5 Z"/></g>
<g><path style="opacity:0.008" fill="#2d2f31" d="M 949.5,598.5 C 950.833,599.167 950.833,599.167 949.5,598.5 Z"/></g>
<g><path style="opacity:0.004" fill="#39b4bd" d="M 197.5,599.5 C 198.833,600.167 198.833,600.167 197.5,599.5 Z"/></g>
<g><path style="opacity:0.004" fill="#40acb5" d="M 84.5,600.5 C 85.8333,601.167 85.8333,601.167 84.5,600.5 Z"/></g>
<g><path style="opacity:0.004" fill="#232524" d="M 733.5,602.5 C 734.833,603.167 734.833,603.167 733.5,602.5 Z"/></g>
<g><path style="opacity:0.004" fill="#3aafba" d="M 156.5,603.5 C 157.833,604.167 157.833,604.167 156.5,603.5 Z"/></g>
<g><path style="opacity:0.929" fill="#21818a" d="M 143.5,579.5 C 146.723,592.231 154.723,600.731 167.5,605C 186.693,607.578 200.026,600.078 207.5,582.5C 207.5,582.833 207.5,583.167 207.5,583.5C 205.38,589.614 202.047,594.947 197.5,599.5C 180.145,611.065 163.812,609.732 148.5,595.5C 145.967,591.096 143.967,586.429 142.5,581.5C 143.338,581.158 143.672,580.492 143.5,579.5 Z"/></g>
<g><path style="opacity:0.004" fill="#3badb9" d="M 309.5,603.5 C 310.833,604.167 310.833,604.167 309.5,603.5 Z"/></g>
<g><path style="opacity:0.008" fill="#3bb0bb" d="M 158.5,604.5 C 159.833,605.167 159.833,605.167 158.5,604.5 Z"/></g>
<g><path style="opacity:0.004" fill="#38b3bf" d="M 160.5,605.5 C 161.833,606.167 161.833,606.167 160.5,605.5 Z"/></g>
<g><path style="opacity:0.012" fill="#3ab1ba" d="M 189.5,605.5 C 190.833,606.167 190.833,606.167 189.5,605.5 Z"/></g>
<g><path style="opacity:0.004" fill="#242423" d="M 853.5,606.5 C 852.833,607.167 852.833,607.167 853.5,606.5 Z"/></g>
<g><path style="opacity:0.004" fill="#262527" d="M 915.5,606.5 C 916.833,607.167 916.833,607.167 915.5,606.5 Z"/></g>
<g><path style="opacity:0.095" fill="#302f2f" d="M 916.5,603.5 C 916.56,602.957 916.893,602.624 917.5,602.5C 918.484,605.428 918.817,608.428 918.5,611.5C 917.833,608.833 917.167,606.167 916.5,603.5 Z"/></g>
<g><path style="opacity:0.008" fill="#2f302f" d="M 949.5,607.5 C 950.833,608.167 950.833,608.167 949.5,607.5 Z"/></g>
<g><path style="opacity:0.016" fill="#292728" d="M 910.5,609.5 C 911.833,610.167 911.833,610.167 910.5,609.5 Z"/></g>
<g><path style="opacity:0.004" fill="#282829" d="M 915.5,609.5 C 916.833,610.167 916.833,610.167 915.5,609.5 Z"/></g>
<g><path style="opacity:0.004" fill="#262626" d="M 663.5,610.5 C 664.833,611.167 664.833,611.167 663.5,610.5 Z"/></g>
<g><path style="opacity:1" fill="#24848c" d="M 333.5,608.5 C 333.54,611.881 333.207,615.214 332.5,618.5C 331.357,615.024 331.19,611.358 332,607.5C 332.981,601.136 333.481,601.469 333.5,608.5 Z"/></g>
<g><path style="opacity:0.012" fill="#292827" d="M 905.5,612.5 C 906.833,613.167 906.833,613.167 905.5,612.5 Z"/></g>
<g><path style="opacity:0.008" fill="#282829" d="M 665.5,613.5 C 664.833,614.167 664.833,614.167 665.5,613.5 Z"/></g>
<g><path style="opacity:0.004" fill="#262627" d="M 747.5,613.5 C 748.833,614.167 748.833,614.167 747.5,613.5 Z"/></g>
<g><path style="opacity:0.008" fill="#242624" d="M 860.5,613.5 C 861.833,614.167 861.833,614.167 860.5,613.5 Z"/></g>
<g><path style="opacity:0.004" fill="#2e3035" d="M 449.5,614.5 C 449.103,615.525 448.437,615.692 447.5,615C 448.094,614.536 448.761,614.369 449.5,614.5 Z"/></g>
<g><path style="opacity:0.012" fill="#252423" d="M 606.5,614.5 C 607.833,615.167 607.833,615.167 606.5,614.5 Z"/></g>
<g><path style="opacity:0.008" fill="#3bb2bc" d="M 109.5,615.5 C 110.833,616.167 110.833,616.167 109.5,615.5 Z"/></g>
<g><path style="opacity:0.004" fill="#3ea7b0" d="M 84.5,616.5 C 85.8333,617.167 85.8333,617.167 84.5,616.5 Z"/></g>
<g><path style="opacity:0.004" fill="#3baeb8" d="M 304.5,616.5 C 305.833,617.167 305.833,617.167 304.5,616.5 Z"/></g>
<g><path style="opacity:0.004" fill="#262726" d="M 774.5,617.5 C 775.833,618.167 775.833,618.167 774.5,617.5 Z"/></g>
<g><path style="opacity:0.008" fill="#292a29" d="M 878.5,617.5 C 879.833,618.167 879.833,618.167 878.5,617.5 Z"/></g>
<g><path style="opacity:0.004" fill="#3db0bb" d="M 303.5,620.5 C 304.833,621.167 304.833,621.167 303.5,620.5 Z"/></g>
<g><path style="opacity:0.004" fill="#282b2a" d="M 877.5,622.5 C 878.833,623.167 878.833,623.167 877.5,622.5 Z"/></g>
<g><path style="opacity:0.996" fill="#1f7a83" d="M 106.5,605.5 C 106.599,612.509 108.432,619.176 112,625.5C 113.039,626.71 114.206,627.71 115.5,628.5C 121.082,634.496 128.082,637.329 136.5,637C 184.166,637.5 231.832,637.667 279.5,637.5C 232.003,638.499 184.336,638.832 136.5,638.5C 132.44,638.515 128.44,638.015 124.5,637C 114.005,632.469 108.005,624.636 106.5,613.5C 106.5,610.833 106.5,608.167 106.5,605.5 Z"/></g>
<g><path style="opacity:0.004" fill="#3fb1b9" d="M 115.5,627.5 C 116.833,628.167 116.833,628.167 115.5,627.5 Z"/></g>
<g><path style="opacity:0.008" fill="#3ca6b3" d="M 88.5,631.5 C 87.8333,630.167 87.8333,630.167 88.5,631.5 Z"/></g>
<g><path style="opacity:0.012" fill="#3aa4af" d="M 88.5,631.5 C 89.525,631.897 89.6917,632.563 89,633.5C 88.5357,632.906 88.369,632.239 88.5,631.5 Z"/></g>
<g><path style="opacity:1" fill="#228088" d="M 292.5,583.5 C 296.933,592.092 303.766,598.092 313,601.5C 314.584,623.72 304.417,636.053 282.5,638.5C 281.508,638.672 280.842,638.338 280.5,637.5C 302.114,635.565 312.114,623.898 310.5,602.5C 301.52,599.184 295.187,593.184 291.5,584.5C 291.5,583.833 291.833,583.5 292.5,583.5 Z"/></g>
<g><path style="opacity:0.004" fill="#39a6ad" d="M 90.5,635.5 C 91.8333,636.167 91.8333,636.167 90.5,635.5 Z"/></g>
<g><path style="opacity:0.004" fill="#3db7c3" d="M 156.5,635.5 C 157.833,636.167 157.833,636.167 156.5,635.5 Z"/></g>
<g><path style="opacity:0.993" fill="#278f9b" d="M 280.5,637.5 C 280.842,638.338 281.508,638.672 282.5,638.5C 233.833,639.833 185.167,639.833 136.5,638.5C 184.336,638.832 232.003,638.499 279.5,637.5C 279.833,636.167 280.167,636.167 280.5,637.5 Z"/></g>
<g><path style="opacity:0.698" fill="#23838b" d="M 87.5,449.5 C 87.8333,449.5 88.1667,449.5 88.5,449.5C 88.3333,506.834 88.5,564.168 89,621.5C 93.9607,640.629 106.127,651.962 125.5,655.5C 125.158,656.338 124.492,656.672 123.5,656.5C 99.3321,650.491 86.6654,634.991 85.5,610C 85.7284,609.601 86.0618,609.435 86.5,609.5C 87.4989,556.336 87.8323,503.003 87.5,449.5 Z"/></g>
<g><path style="opacity:0.678" fill="#258087" d="M 331.5,620.5 C 326.284,640.383 313.618,652.383 293.5,656.5C 292.209,656.737 291.209,656.404 290.5,655.5C 300.764,654.035 309.764,649.868 317.5,643C 323.791,635.799 328.457,628.299 331.5,620.5 Z"/></g>
<g><path style="opacity:0.016" fill="#36a4b0" d="M 104.5,650.5 C 105.833,651.167 105.833,651.167 104.5,650.5 Z"/></g>
<g><path style="opacity:0.012" fill="#39a1a9" d="M 306.5,653.5 C 307.833,654.167 307.833,654.167 306.5,653.5 Z"/></g>
<g><path style="opacity:0.004" fill="#3a9ea6" d="M 303.5,654.5 C 304.833,655.167 304.833,655.167 303.5,654.5 Z"/></g>
<g><path style="opacity:0.985" fill="#2ea0ab" d="M 125.5,655.5 C 180.5,655.5 235.5,655.5 290.5,655.5C 291.209,656.404 292.209,656.737 293.5,656.5C 292.432,657.434 291.099,657.768 289.5,657.5C 235.167,656.167 180.833,656.167 126.5,657.5C 125.209,657.737 124.209,657.404 123.5,656.5C 124.492,656.672 125.158,656.338 125.5,655.5 Z"/></g>
<g><path style="opacity:0.99" fill="#247b83" d="M 126.5,657.5 C 180.833,656.167 235.167,656.167 289.5,657.5C 234.889,658.825 180.556,658.825 126.5,657.5 Z"/></g>
<g><path style="opacity:0.012" fill="#39a1a9" d="M 294.5,657.5 C 295.833,658.167 295.833,658.167 294.5,657.5 Z"/></g>
<g><path style="opacity:0.004" fill="#3da5b1" d="M 127.5,658.5 C 128.833,659.167 128.833,659.167 127.5,658.5 Z"/></g>
<g><path style="opacity:0.004" fill="#3aa1a9" d="M 289.5,658.5 C 290.525,658.897 290.692,659.563 290,660.5C 289.536,659.906 289.369,659.239 289.5,658.5 Z"/></g>
<g><path style="opacity:0.004" fill="#3ca9b1" d="M 193.5,659.5 C 194.833,660.167 194.833,660.167 193.5,659.5 Z"/></g>
<g><path style="opacity:0.008" fill="#3aa7b1" d="M 242.5,659.5 C 243.833,660.167 243.833,660.167 242.5,659.5 Z"/></g>
<g><path style="opacity:0.004" fill="#3aa7b0" d="M 263.5,659.5 C 264.833,660.167 264.833,660.167 263.5,659.5 Z"/></g>
</svg>
