<?xml version="1.0" encoding="UTF-8"?>
<svg version="1.1" xmlns="http://www.w3.org/2000/svg" width="1024" height="1024">
<path d="M0 0 C337.92 0 675.84 0 1024 0 C1024 337.92 1024 675.84 1024 1024 C686.08 1024 348.16 1024 0 1024 C0 686.08 0 348.16 0 0 Z " fill="#0F0F0F" transform="translate(0,0)"/>
<path d="M0 0 C337.92 0 675.84 0 1024 0 C1024 337.92 1024 675.84 1024 1024 C686.08 1024 348.16 1024 0 1024 C0 686.08 0 348.16 0 0 Z M461 24 C459.70094727 24.10183594 458.40189453 24.20367188 457.06347656 24.30859375 C439.39981769 25.69643335 422.25699005 27.97943319 405 32 C403.86820312 32.25313965 402.73640625 32.5062793 401.5703125 32.76708984 C340.40399806 46.59475912 281.60945831 74.77545912 230.5625 110.875 C229.84368652 111.38329346 229.12487305 111.89158691 228.38427734 112.4152832 C204.12624057 129.66825344 181.69517011 149.26044086 160.625 170.25 C159.35825439 171.50973633 159.35825439 171.50973633 158.06591797 172.79492188 C153.71026378 177.16179531 149.5040367 181.59748289 145.48388672 186.27539062 C143.62246285 188.43878289 141.68629559 190.52861698 139.75 192.625 C130.42425244 202.99396678 122.28313111 214.1670036 114.52148438 225.73535156 C112.8715384 228.19120825 111.2091653 230.63842167 109.546875 233.0859375 C102.27833158 243.83314633 95.35710581 254.68952718 89 266 C88.30874023 267.22227295 88.30874023 267.22227295 87.60351562 268.46923828 C46.40357869 341.61425316 25.72733657 421.73845991 25.8125 505.5625 C25.81277191 506.57468597 25.81304382 507.58687195 25.81332397 508.62973022 C25.83209975 523.85658469 26.26528386 538.8601791 28 554 C28.22037862 556.09111145 28.44041933 558.18225853 28.66015625 560.2734375 C30.15467063 573.97749814 32.32692542 587.48045687 35 601 C35.18288574 601.95197266 35.36577148 602.90394531 35.55419922 603.88476562 C52.16118809 690.10951061 93.61832223 770.80738222 153.30859375 835.0859375 C155.06858075 836.99152575 156.81163357 838.91293144 158.53515625 840.8515625 C165.92453475 849.12142501 173.9016504 856.67956957 182.04931641 864.19775391 C183.721391 865.74259178 185.38427517 867.29630809 187.04296875 868.85546875 C193.49801026 874.85284114 200.29539254 880.30503485 207.27539062 885.66943359 C208.88455169 886.9109296 210.48182898 888.16778654 212.078125 889.42578125 C252.86500364 921.37550285 299.22398167 946.60336237 348 964 C349.74651855 964.62600098 349.74651855 964.62600098 351.52832031 965.26464844 C390.19047586 978.98280785 430.09655196 987.68275584 471 991 C472.20301758 991.10296387 473.40603516 991.20592773 474.64550781 991.31201172 C494.46360124 992.97888033 514.13300259 993.31087464 534 993 C535.0204541 992.99129883 536.0409082 992.98259766 537.09228516 992.97363281 C564.52608113 992.69637891 592.28824082 987.97889143 619 982 C620.31049316 981.71455322 620.31049316 981.71455322 621.64746094 981.42333984 C697.12214717 964.90526305 767.89774577 928.52220174 827 879 C827.94431885 878.21230225 827.94431885 878.21230225 828.90771484 877.40869141 C835.54347723 871.85912478 841.94646518 866.22516079 847.984375 860.01953125 C849.96106733 858.03900812 852.00468787 856.19992514 854.125 854.375 C859.8612962 849.43383397 864.99064932 844.08909394 869.92578125 838.35546875 C872.01435716 835.98369611 874.15520686 833.67103389 876.31225586 831.36181641 C882.14618962 825.11136839 887.70298339 818.71770846 893 812 C893.77730469 811.01773438 894.55460938 810.03546875 895.35546875 809.0234375 C912.84670155 786.61018847 928.19369879 762.80280831 941.93115234 737.93359375 C942.61587719 736.69489553 943.30344479 735.45776188 943.99462891 734.22265625 C975.72584104 677.42523544 992.57727536 613.40966196 999 549 C999.08588379 548.22075668 999.17176758 547.44151337 999.26025391 546.63865662 C1000.06769792 538.79433986 1000.18127207 530.98571161 1000.203125 523.10546875 C1000.20736607 522.05144584 1000.20736607 522.05144584 1000.21169281 520.97612953 C1000.22660394 517.23920968 1000.23587783 513.50232745 1000.24023438 509.76538086 C1000.24457005 506.74735091 1000.25827974 503.72961476 1000.28125 500.71166992 C1001.04016972 398.83966771 965.78520973 300.04005653 906 218 C905.39961914 217.17000488 905.39961914 217.17000488 904.78710938 216.32324219 C899.72101253 209.33686162 894.31150245 202.71117902 888.6953125 196.16796875 C886.19153987 193.24512116 883.78031251 190.25454541 881.375 187.25 C877.86015677 182.92548753 874.10658506 178.99914773 870.1171875 175.11328125 C868.14350902 173.14324424 866.31272114 171.11762585 864.5 169 C858.90597121 162.50162476 852.79204335 156.57939002 846.28515625 151.00390625 C843.93568637 148.94360189 841.65049184 146.82627581 839.36743164 144.69311523 C833.11325591 138.85521802 826.71182089 133.31211955 820 128 C819.37029297 127.49243164 818.74058594 126.98486328 818.09179688 126.46191406 C806.54409353 117.15748517 794.57823884 108.84764027 782 101 C781.21560547 100.50870605 780.43121094 100.01741211 779.62304688 99.51123047 C769.94074744 93.46487429 760.14620573 87.63417225 750.12548828 82.16552734 C748.68212547 81.37404859 747.24311132 80.57459788 745.80810547 79.76806641 C699.62283714 53.8525048 647.59692172 39.38933059 596 29 C594.21070068 28.63817627 594.21070068 28.63817627 592.38525391 28.26904297 C549.47164968 19.8594414 504.39771517 20.36011915 461 24 Z " fill="#F9F9F9" transform="translate(0,0)"/>
<path d="M0 0 C1.51639811 0.00051962 3.03279689 -0.00000201 4.54919434 -0.00151062 C7.71633047 -0.00142127 10.8832101 0.00893139 14.05029297 0.02709961 C18.09172053 0.0497854 22.13277402 0.05032679 26.17424774 0.04358196 C29.30225903 0.04022619 32.43018644 0.04690222 35.55818176 0.0567112 C37.04758769 0.0605358 38.53700299 0.0617229 40.02641296 0.06012535 C58.45397941 0.05681985 58.45397941 0.05681985 63.40625 3.92578125 C64.93650444 7.65577644 65.41337315 11.43417578 64.40625 15.36328125 C61.73965826 18.71597728 60.29704623 20.21433273 56.01152039 20.9309082 C54.71438614 20.90472412 53.41725189 20.87854004 52.08081055 20.8515625 C51.36141296 20.84426117 50.64201538 20.83695984 49.90081787 20.82943726 C48.34451211 20.81046664 46.78831308 20.77994483 45.2324276 20.73910522 C42.76384819 20.67502533 40.29661889 20.64264987 37.8273468 20.6184082 C31.69461427 20.5516948 25.56316489 20.43088481 19.43127441 20.31140137 C14.24899708 20.21243468 9.0672062 20.13435531 3.88422585 20.08358765 C1.46169436 20.05136289 -0.95881646 19.98883271 -3.38069153 19.92504883 C-13.40061321 19.70014239 -13.40061321 19.70014239 -22.25260925 24.03027344 C-26.90739315 28.65682983 -27.69800929 33.54886207 -27.79907227 39.85693359 C-27.81899231 40.97461624 -27.83891235 42.09229889 -27.85943604 43.24385071 C-27.87617371 44.46662216 -27.89291138 45.68939362 -27.91015625 46.94921875 C-27.93116394 48.24188156 -27.95217163 49.53454437 -27.97381592 50.86637878 C-28.04230678 55.15691607 -28.0997839 59.44757145 -28.15625 63.73828125 C-28.17629209 65.21996064 -28.19634217 66.70163992 -28.21640015 68.18331909 C-28.35307853 78.42400611 -28.46500996 88.66488177 -28.56845093 98.90595245 C-28.59380653 101.36877179 -28.62056208 103.83157232 -28.64770508 106.29437256 C-28.75323439 115.96362183 -28.83313352 125.63259112 -28.87985229 135.30230713 C-28.89534513 138.37207066 -28.92011831 141.44154308 -28.95291138 144.51116943 C-28.99110562 148.14093241 -29.00935826 151.77027512 -29.01276398 155.40023232 C-29.01928756 157.35660808 -29.04548692 159.3128879 -29.07244873 161.26908875 C-29.05096075 170.12322505 -27.8437649 177.36326291 -22.15625 184.36328125 C-17.92073518 187.66904891 -14.32507871 188.61178047 -8.99711609 188.63743591 C-7.88272156 188.64741104 -6.76832703 188.65738617 -5.62016296 188.66766357 C-4.40705948 188.66832825 -3.19395599 188.66899292 -1.9440918 188.66967773 C-0.01643478 188.68216301 -0.01643478 188.68216301 1.95016479 188.69490051 C5.46889748 188.71680457 8.98754329 188.72563891 12.50633645 188.73072696 C14.70734635 188.73437552 16.90833367 188.74061818 19.10933495 188.74772835 C26.79547496 188.77220908 34.48154761 188.78527166 42.16772461 188.78881836 C49.32001345 188.79245211 56.47187279 188.82233909 63.62403041 188.86422294 C69.77453869 188.89897181 75.92490494 188.91436759 82.07551068 188.91506439 C85.7445797 188.91585569 89.41321097 188.92452518 93.08217812 188.95306206 C97.17789401 188.98420699 101.27259294 188.97516131 105.3684082 188.96264648 C106.575439 188.97748077 107.78246979 188.99231506 109.02607727 189.00759888 C116.12863809 188.94583942 120.94008244 188.06577752 126.40625 183.36328125 C131.34209967 178.2975408 132.64522706 173.0367805 132.58203125 166.1484375 C132.56527344 165.43558594 132.54851562 164.72273437 132.53125 163.98828125 C132.52222656 163.25222656 132.51320313 162.51617188 132.50390625 161.7578125 C132.48055144 159.95949245 132.44468836 158.16134214 132.40625 156.36328125 C131.49230469 156.09128906 130.57835937 155.81929687 129.63671875 155.5390625 C123.67262943 153.36833592 119.12996825 149.1311552 116.40625 143.36328125 C116.40625 142.70328125 116.40625 142.04328125 116.40625 141.36328125 C97.26625 141.36328125 78.12625 141.36328125 58.40625 141.36328125 C57.41625 144.33328125 57.41625 144.33328125 56.40625 147.36328125 C52.42449093 154.33135962 47.08277936 158.91727612 39.40625 161.36328125 C36.67393682 161.66963152 34.2494355 161.84171285 31.53125 161.80078125 C30.83088623 161.79393311 30.13052246 161.78708496 29.40893555 161.7800293 C22.08269495 161.55349702 17.25468479 159.69381881 11.65625 155.11328125 C8.8796566 151.7196671 6.56609495 148.17521812 4.40625 144.36328125 C4.035 143.76 3.66375 143.15671875 3.28125 142.53515625 C0.53711707 135.72382631 1.67986835 126.10816417 4.375 119.3828125 C6.30397367 115.60523906 8.50137753 112.45661301 11.40625 109.36328125 C12.22416016 108.47382812 12.22416016 108.47382812 13.05859375 107.56640625 C19.17804672 102.31043438 26.26422969 102.69347862 33.95532227 102.76391602 C39.43854642 102.78341771 39.43854642 102.78341771 44.36328125 100.55078125 C46.91628515 97.823881 46.91628515 97.823881 49.34375 94.98828125 C51.75662571 92.12197923 54.28988033 89.48342254 57.00390625 86.90625 C57.64400635 86.29249512 58.28410645 85.67874023 58.94360352 85.04638672 C60.24073166 83.81008919 61.54973163 82.58611634 62.87084961 81.37548828 C64.54376031 79.77069906 66.06092619 78.25149107 67.40625 76.36328125 C67.46965588 73.80408031 67.46965588 73.80408031 66.40625 71.36328125 C65.63275696 62.31341264 65.86650003 54.83860651 71.40625 47.36328125 C77.93918449 40.28034611 84.96778883 36.55741079 94.59375 36.05078125 C102.27226893 36.16576739 109.31510324 39.35938951 114.87109375 44.61328125 C120.51373187 51.04560155 122.82783111 57.81120733 122.40625 66.36328125 C121.3323906 72.42229284 119.30144115 77.58853081 115.40625 82.36328125 C114.74625 82.36328125 114.08625 82.36328125 113.40625 82.36328125 C113.40625 83.02328125 113.40625 83.68328125 113.40625 84.36328125 C106.73776433 89.89670553 99.17760014 91.7957549 90.66015625 91.6328125 C86.9360059 91.1874635 83.83365442 89.8588759 80.40625 88.36328125 C80.40625 89.02328125 80.40625 89.68328125 80.40625 90.36328125 C78.90234375 91.80859375 78.90234375 91.80859375 76.84375 93.48828125 C73.29347659 96.50289937 70.28609778 99.68307901 67.28125 103.23046875 C63.85269543 107.13044957 60.11415042 110.73105227 56.40625 114.36328125 C56.90125 115.50796875 56.90125 115.50796875 57.40625 116.67578125 C58.40625 119.36328125 58.40625 119.36328125 58.40625 122.36328125 C65.86525925 122.4180425 73.32303345 122.42956472 80.78215981 122.3866272 C84.24633581 122.36802895 87.7092167 122.36405278 91.17333984 122.39404297 C95.16039959 122.42790854 99.14573043 122.39719008 103.1328125 122.36328125 C104.37052399 122.38269775 105.60823547 122.40211426 106.88345337 122.42211914 C113.16984149 122.47171644 113.16984149 122.47171644 118.48231506 119.58030701 C119.97979518 117.57218621 121.18221454 115.54341608 122.40625 113.36328125 C124.63671875 111.5234375 124.63671875 111.5234375 126.59375 110.42578125 C127.24730469 110.04550781 127.90085937 109.66523437 128.57421875 109.2734375 C134.86295402 106.14918309 143.13576734 106.29566059 149.859375 107.9765625 C156.4568934 110.92466619 160.72580585 116.5444717 164.34375 122.61328125 C166.40963687 129.90464668 166.53017184 136.76601168 163.34375 143.73828125 C160.47370199 148.83056644 156.65653717 152.73813767 151.40625 155.36328125 C151.39166748 155.94706543 151.37708496 156.53084961 151.36206055 157.13232422 C151.28655915 159.83490084 151.19024662 162.53637589 151.09375 165.23828125 C151.05991211 166.615 151.05991211 166.615 151.02539062 168.01953125 C150.53632012 180.64644245 146.85928086 189.29359556 137.78125 198.05078125 C127.71876027 206.20460013 117.03864451 207.10627214 104.6328125 207.0703125 C103.00216869 207.08363546 101.37154118 207.09910023 99.74093628 207.11654663 C95.39976302 207.1568632 91.05902113 207.16715481 86.71768188 207.17077255 C82.2159811 207.17916571 77.71447826 207.21387819 73.21289062 207.24536133 C65.12888058 207.29784359 57.04501202 207.32552659 48.96085739 207.34239292 C42.09425308 207.35802336 35.2280796 207.40041658 28.36166382 207.45179749 C23.35496736 207.48801755 18.34827123 207.51397086 13.3414917 207.53549194 C11.06840916 207.5456088 8.79533537 207.55796454 6.52227783 207.57266235 C3.41060112 207.59017436 0.29921918 207.5941698 -2.8125 207.59375 C-3.69841827 207.60087006 -4.58433655 207.60799011 -5.49710083 207.61532593 C-17.14949219 207.57281193 -28.23602877 203.72100248 -36.59375 195.36328125 C-46.75970943 182.57465416 -46.73502016 168.84123397 -46.77075195 153.11181641 C-46.77732315 151.83386703 -46.78389435 150.55591766 -46.79066467 149.23924255 C-46.81146969 145.04362187 -46.82203931 140.84800175 -46.83203125 136.65234375 C-46.83608654 135.19677081 -46.84020367 133.74119805 -46.84438133 132.28562546 C-46.86337499 125.44752182 -46.87762241 118.60942863 -46.8859933 111.77130377 C-46.89576775 103.92062677 -46.92211713 96.07023152 -46.96249419 88.21965373 C-46.9927741 82.11991392 -47.00747303 76.02025446 -47.01077431 69.92044103 C-47.01310957 66.29103639 -47.02187023 62.66193479 -47.04723549 59.03261185 C-47.07511377 54.97940875 -47.07064903 50.9268284 -47.0637207 46.87353516 C-47.07653076 45.69390701 -47.08934082 44.51427887 -47.10253906 43.29890442 C-47.02848751 31.34352556 -44.66412352 21.24469293 -36.08984375 12.5859375 C-24.56853054 2.32673998 -15.09075747 -0.10251379 0 0 Z " fill="#169589" transform="translate(170.59375,410.63671875)"/>
<path d="M0 0 C0.79701828 -0.00540298 1.59403656 -0.01080597 2.41520691 -0.01637268 C5.05183958 -0.02888869 7.68738651 -0.01235203 10.32397461 0.00561523 C12.1533565 0.00546033 13.98273873 0.00397274 15.81211853 0.00120544 C19.6463776 -0.00017978 23.48026316 0.01240123 27.31445312 0.03515625 C32.23668504 0.06356138 37.15829706 0.06079982 42.08057499 0.04806614 C45.85775578 0.04112212 49.63479248 0.04888324 53.41195488 0.06132317 C55.22729376 0.0658487 57.04264804 0.06616489 58.85798836 0.06225777 C61.39132713 0.05935749 63.92380152 0.07579414 66.45703125 0.09765625 C67.58931656 0.09090378 67.58931656 0.09090378 68.74447632 0.08401489 C70.83045959 0.11402893 70.83045959 0.11402893 74.16381836 0.50170898 C77.00383107 4.76172805 76.49403935 8.43125761 76.47631836 13.43920898 C76.49243164 14.34606445 76.50854492 15.25291992 76.52514648 16.18725586 C76.52579102 17.06317383 76.52643555 17.9390918 76.52709961 18.84155273 C76.53008057 19.63940186 76.53306152 20.43725098 76.53613281 21.25927734 C76.05662726 24.14731571 75.18954648 25.39258537 73.16381836 27.50170898 C70.71504211 27.98272705 70.71504211 27.98272705 67.77441406 27.95581055 C66.6734993 27.95550842 65.57258453 27.9552063 64.43830872 27.95489502 C63.25073471 27.93424988 62.06316071 27.91360474 60.83959961 27.89233398 C59.62306198 27.88667419 58.40652435 27.8810144 57.15312195 27.87518311 C53.26045691 27.85275933 49.36870606 27.80254912 45.47631836 27.75170898 C42.84026393 27.73165187 40.20419509 27.71339974 37.56811523 27.69702148 C31.09937915 27.65627354 24.63262421 27.57798707 18.16381836 27.50170898 C18.16381836 40.37170898 18.16381836 53.24170898 18.16381836 66.50170898 C21.82217773 66.47850586 25.48053711 66.45530273 29.24975586 66.43139648 C32.78100233 66.41581267 36.31224501 66.40366068 39.84350586 66.3918457 C42.30348415 66.38176915 44.76345042 66.36810767 47.22338867 66.35083008 C50.75304121 66.32665438 54.28253583 66.31524258 57.81225586 66.30639648 C59.47011612 66.29091263 59.47011612 66.29091263 61.16146851 66.27511597 C62.69282944 66.27488937 62.69282944 66.27488937 64.25512695 66.2746582 C65.6074794 66.26799637 65.6074794 66.26799637 66.9871521 66.26119995 C69.16381836 66.50170898 69.16381836 66.50170898 71.16381836 68.50170898 C71.42260742 70.80834961 71.42260742 70.80834961 71.42944336 73.65795898 C71.43331055 75.19129883 71.43331055 75.19129883 71.43725586 76.75561523 C71.42952148 77.82682617 71.42178711 78.89803711 71.41381836 80.00170898 C71.42541992 81.60852539 71.42541992 81.60852539 71.43725586 83.24780273 C71.43467773 84.2700293 71.43209961 85.29225586 71.42944336 86.34545898 C71.4271875 87.28583008 71.42493164 88.22620117 71.42260742 89.19506836 C71.16381836 91.50170898 71.16381836 91.50170898 69.16381836 93.50170898 C66.94918823 93.74221802 66.94918823 93.74221802 64.16333008 93.72875977 C63.12240204 93.7286087 62.081474 93.72845764 61.00900269 93.728302 C59.31833176 93.71281815 59.31833176 93.71281815 57.59350586 93.69702148 C55.8664592 93.69277664 55.8664592 93.69277664 54.10452271 93.68844604 C50.41585024 93.67722306 46.72741783 93.65211454 43.03881836 93.62670898 C40.54272811 93.61668193 38.04663406 93.6075556 35.55053711 93.59936523 C29.42154852 93.57727682 23.29270059 93.54377845 17.16381836 93.50170898 C17.23264593 98.43181652 17.32058664 103.36107185 17.42626953 108.29052734 C17.45952699 109.96751457 17.48755644 111.64461395 17.51025391 113.32177734 C17.54378573 115.73250124 17.59609814 118.1421966 17.65209961 120.55249023 C17.65848953 121.30258865 17.66487946 122.05268707 17.67146301 122.82551575 C17.72931114 126.74397893 17.72931114 126.74397893 19.3637085 130.20074463 C21.80201816 131.96294483 23.40299226 131.87366788 26.39794922 131.87060547 C27.46593246 131.87748886 28.53391571 131.88437225 29.63426208 131.89146423 C30.78741409 131.88530594 31.9405661 131.87914764 33.12866211 131.87280273 C35.56160624 131.89018349 37.99454891 131.90776789 40.42749023 131.92553711 C44.27020916 131.93562169 48.11283478 131.93920388 51.95556641 131.9375 C55.65938372 131.94106205 59.36247371 131.96837705 63.06616211 131.99780273 C64.21728989 131.98962021 65.36841766 131.98143768 66.5544281 131.9730072 C67.62556351 131.98304276 68.69669891 131.99307831 69.80029297 132.00341797 C70.74166611 132.0032518 71.68303925 132.00308563 72.65293884 132.00291443 C75.91069656 132.65007882 77.10675138 133.95087043 79.16381836 136.50170898 C79.66552734 138.65234375 79.66552734 138.65234375 79.65991211 140.94311523 C79.66055664 141.77391602 79.66120117 142.6047168 79.66186523 143.46069336 C79.64188477 144.31985352 79.6219043 145.17901367 79.60131836 146.06420898 C79.6084082 146.92723633 79.61549805 147.79026367 79.62280273 148.67944336 C79.56014808 154.88225464 79.56014808 154.88225464 78.1388092 157.10377502 C75.05746534 159.2848055 71.799337 158.91859669 68.15991211 158.88989258 C67.34499298 158.89514954 66.53007385 158.90040649 65.69046021 158.90582275 C62.99388522 158.919038 60.29789946 158.91027942 57.60131836 158.90014648 C55.72949103 158.90216678 53.85766447 158.90507785 51.98583984 158.90884399 C48.06169139 158.91326941 44.13774771 158.9068293 40.21362305 158.89282227 C35.17941489 158.87573025 30.14568652 158.88557027 25.11149597 158.90353966 C21.24593479 158.91437163 17.38048768 158.91093386 13.5149231 158.90315628 C11.65853824 158.90115265 9.80214309 158.90361925 7.94577026 158.91059494 C5.35280867 158.9181998 2.76062793 158.90661913 0.16772461 158.88989258 C-0.60223846 158.89596527 -1.37220154 158.90203796 -2.16549683 158.90829468 C-7.32504781 158.84652214 -7.32504781 158.84652214 -9.53296852 157.35704899 C-11.40842513 154.68702547 -11.21381119 152.6817791 -11.21713257 149.43531799 C-11.22559204 148.16643738 -11.23405151 146.89755676 -11.24276733 145.59022522 C-11.2369342 144.18124262 -11.23078967 142.77226128 -11.22436523 141.36328125 C-11.22842967 139.88165906 -11.23377084 138.40003991 -11.24029541 136.91842651 C-11.25399132 132.89152915 -11.24866075 128.86486195 -11.23915815 124.83796048 C-11.23157188 120.62641856 -11.23860442 116.41489657 -11.24331665 112.20335388 C-11.24877782 105.12918555 -11.24157377 98.05511111 -11.22729492 90.98095703 C-11.21097399 82.80059324 -11.21625136 74.62045382 -11.23277414 66.44009548 C-11.24638626 59.42005351 -11.24830983 52.4000791 -11.24045813 45.38002819 C-11.23577928 41.18582064 -11.23516242 36.99171856 -11.2450676 32.79751778 C-11.2537308 28.85353084 -11.24772735 24.9098332 -11.23038483 20.96587753 C-11.22641623 19.51787102 -11.22756043 18.06984019 -11.23417282 16.62184334 C-11.24236295 14.64626558 -11.23027412 12.67063465 -11.21713257 10.69508362 C-11.21600149 9.58914132 -11.21487041 8.48319902 -11.21370506 7.34374332 C-10.27427371 0.27160946 -6.28770054 -0.08074742 0 0 Z " fill="#F8F8F8" transform="translate(433.836181640625,435.498291015625)"/>
<path d="M0 0 C8.77916249 6.33727623 13.14117929 14.17514788 16.234375 24.390625 C16.41176208 24.94233368 16.58914917 25.49404236 16.77191162 26.06246948 C17.43829038 29.41718565 17.3902954 32.75035659 17.39550781 36.15673828 C17.40295517 37.32322403 17.40295517 37.32322403 17.41055298 38.51327515 C17.42512942 41.07917164 17.43196671 43.64500645 17.4375 46.2109375 C17.44325228 47.99404909 17.44901 49.77716066 17.45477295 51.56027222 C17.46526803 55.29425342 17.47112142 59.02821316 17.47460938 62.76220703 C17.48011109 67.55542701 17.50418087 72.34836534 17.53258133 77.14149666 C17.55116154 80.82169439 17.55641068 84.50182337 17.55794525 88.18206406 C17.56097946 89.94997585 17.56903368 91.71788622 17.58213043 93.48575211 C17.59910546 95.95182387 17.59733277 98.41719501 17.59082031 100.88330078 C17.6000351 101.61788513 17.60924988 102.35246948 17.6187439 103.10931396 C17.60186768 105.1399231 17.60186768 105.1399231 17.234375 108.390625 C14.07764818 110.49510954 13.2825641 110.64610761 9.671875 110.65625 C8.35316406 110.66011719 8.35316406 110.66011719 7.0078125 110.6640625 C6.09257813 110.65632812 5.17734375 110.64859375 4.234375 110.640625 C2.86152344 110.65222656 2.86152344 110.65222656 1.4609375 110.6640625 C0.58179688 110.66148437 -0.29734375 110.65890625 -1.203125 110.65625 C-2.00621094 110.65399414 -2.80929687 110.65173828 -3.63671875 110.64941406 C-5.765625 110.390625 -5.765625 110.390625 -8.765625 108.390625 C-9.453125 104.765625 -9.453125 104.765625 -9.765625 101.390625 C-10.33667969 101.84953125 -10.90773438 102.3084375 -11.49609375 102.78125 C-24.3197676 112.48565184 -38.12214131 113.91787816 -53.765625 112.390625 C-57.58904715 111.61492471 -60.48958645 110.48778604 -63.765625 108.390625 C-64.549375 107.89304687 -65.333125 107.39546875 -66.140625 106.8828125 C-73.50858369 101.67192066 -78.35748437 95.11466172 -80.765625 86.390625 C-81.65492325 77.28975463 -81.2805643 68.3537484 -75.87890625 60.7265625 C-61.84193725 44.11737405 -40.83129324 43.94885263 -20.63867188 42.25341797 C-17.01516368 41.95483724 -13.39074459 41.66901161 -9.765625 41.390625 C-9.88900428 39.64914443 -10.0224959 37.90837866 -10.16015625 36.16796875 C-10.23339111 35.19851318 -10.30662598 34.22905762 -10.38208008 33.23022461 C-11.16905278 27.40382137 -13.24984095 23.59706537 -17.828125 19.953125 C-24.35850492 16.47951866 -32.02491865 16.19015581 -39.1875 18.00390625 C-43.37608817 19.84656035 -45.05090668 21.73884863 -47.265625 25.703125 C-48.68359375 27.80859375 -48.68359375 27.80859375 -50.765625 29.390625 C-59.13551765 30.23213853 -67.68982904 28.55378463 -75.765625 26.390625 C-76.67442548 23.37035995 -76.90694932 21.78621484 -75.83203125 18.77734375 C-70.3552208 8.9475359 -64.09841 2.05865166 -53.765625 -2.609375 C-52.56292969 -3.19912109 -52.56292969 -3.19912109 -51.3359375 -3.80078125 C-35.73787244 -10.28867208 -14.549761 -8.46681008 0 0 Z " fill="#F7F7F7" transform="translate(871.765625,483.609375)"/>
<path d="M0 0 C8.29708525 7.18255141 16.82243919 16.5326385 18.2421875 27.890625 C14.56399056 30.3427563 11.2730971 30.56923955 6.9921875 31.015625 C6.25355469 31.10199219 5.51492188 31.18835938 4.75390625 31.27734375 C2.58504086 31.51832879 0.41694953 31.7115151 -1.7578125 31.890625 C-3.01207031 32.00535156 -4.26632812 32.12007812 -5.55859375 32.23828125 C-8.7578125 31.890625 -8.7578125 31.890625 -10.91015625 29.87890625 C-11.49925781 28.99589844 -12.08835937 28.11289062 -12.6953125 27.203125 C-16.9245797 21.40533346 -21.53662494 17.22739656 -28.7578125 15.890625 C-38.90960006 15.0616303 -45.43695577 16.55204823 -53.9453125 21.890625 C-59.06981062 26.49981046 -61.99562808 33.84188731 -63.6328125 40.390625 C-63.6740625 41.545625 -63.7153125 42.700625 -63.7578125 43.890625 C-63.84869141 45.19386719 -63.84869141 45.19386719 -63.94140625 46.5234375 C-64.40650311 57.31932217 -62.01435972 67.725688 -54.78125 76.01171875 C-48.88979933 81.48235151 -43.24954274 83.20143399 -35.2578125 83.515625 C-27.53229253 83.2271848 -21.58492234 81.53859353 -15.921875 76.140625 C-13.84174282 73.78652419 -12.0622636 71.40819187 -10.46875 68.69921875 C-8.7578125 66.890625 -8.7578125 66.890625 -6.04296875 66.4296875 C14.32437928 66.97281678 14.32437928 66.97281678 17.2421875 69.890625 C17.04899442 78.97069962 11.16289436 86.52073009 5.22265625 93.01171875 C-8.76321703 106.28036776 -22.82596359 108.486853 -41.390625 108.203125 C-55.12865884 107.72347296 -66.77047103 102.23388805 -76.87890625 92.921875 C-90.80648999 77.86502771 -91.42446683 59.23092644 -90.7578125 39.890625 C-89.6342798 24.73898397 -83.29473871 13.08664234 -72.41015625 2.63671875 C-52.07378918 -14.78972913 -21.56465875 -16.49421491 0 0 Z " fill="#F8F8F8" transform="translate(758.7578125,488.109375)"/>
<path d="M0 0 C2.13791601 2.17288772 2.9321605 3.51476172 3.35644531 6.54956055 C3.34709961 7.48582275 3.33775391 8.42208496 3.328125 9.38671875 C3.32296875 10.40701172 3.3178125 11.42730469 3.3125 12.47851562 C3.291875 13.53748047 3.27125 14.59644531 3.25 15.6875 C3.24484375 16.75806641 3.2396875 17.82863281 3.234375 18.93164062 C3.15407791 26.84592209 3.15407791 26.84592209 2 28 C0.12555617 28.0950958 -1.74943698 28.18411002 -3.62548828 28.23901367 C-14.09079302 28.57164902 -22.19782373 30.18009416 -30.4296875 37.046875 C-36.29271945 44.3392033 -36.57010302 50.86383795 -36.51642036 59.97707558 C-36.5036871 62.1506911 -36.51516842 64.32305615 -36.53245544 66.49662781 C-36.55902363 70.32100963 -36.5647555 74.14507933 -36.56335449 77.96954346 C-36.56111594 84.10749472 -36.57520162 90.24506353 -36.61894035 96.382864 C-36.6287784 98.52297052 -36.6200674 100.66247251 -36.61024475 102.80256653 C-36.61712814 104.09788803 -36.62401154 105.39320953 -36.63110352 106.7277832 C-36.63014175 107.86947464 -36.62917999 109.01116608 -36.62818909 110.18745422 C-37 113 -37 113 -38.37753296 114.8687439 C-40.64741239 116.45140468 -42.28523086 116.37245842 -45.03515625 116.36328125 C-46.00904297 116.36263672 -46.98292969 116.36199219 -47.98632812 116.36132812 C-49.00146484 116.34521484 -50.01660156 116.32910156 -51.0625 116.3125 C-52.08150391 116.31572266 -53.10050781 116.31894531 -54.15039062 116.32226562 C-61.73300859 116.26699141 -61.73300859 116.26699141 -64 114 C-64.25447559 112.07560825 -64.25447559 112.07560825 -64.26069641 109.67958069 C-64.27132362 108.31886696 -64.27132362 108.31886696 -64.28216553 106.93066406 C-64.27968811 105.93268799 -64.27721069 104.93471191 -64.2746582 103.90649414 C-64.2823246 102.33320595 -64.2823246 102.33320595 -64.29014587 100.72813416 C-64.3040918 97.24708412 -64.30308134 93.76623096 -64.30078125 90.28515625 C-64.30466543 87.87381414 -64.30899952 85.46247272 -64.31376648 83.0511322 C-64.32123947 77.99117823 -64.3209296 72.93129401 -64.31567383 67.87133789 C-64.30987785 61.37648922 -64.32680833 54.88192559 -64.3500185 48.38712406 C-64.3647268 43.4055361 -64.3656315 38.42401725 -64.36250877 33.44241142 C-64.36302345 31.04734164 -64.36828843 28.65226814 -64.37832069 26.25721931 C-64.39061138 22.91225615 -64.3839375 19.5678541 -64.37231445 16.22290039 C-64.37995819 15.22694855 -64.38760193 14.2309967 -64.39547729 13.2048645 C-64.38846298 12.29490219 -64.38144867 11.38493988 -64.3742218 10.44740295 C-64.37438954 9.65633683 -64.37455729 8.86527071 -64.37473011 8.05023289 C-63.90285423 5.46849361 -63.05971399 4.58123549 -61 3 C-58.67163086 2.62768555 -58.67163086 2.62768555 -55.96484375 2.63671875 C-54.99095703 2.63736328 -54.01707031 2.63800781 -53.01367188 2.63867188 C-51.99853516 2.65478516 -50.98339844 2.67089844 -49.9375 2.6875 C-48.40899414 2.68266602 -48.40899414 2.68266602 -46.84960938 2.67773438 C-39.26699141 2.73300859 -39.26699141 2.73300859 -37 5 C-36.5859375 8.0390625 -36.5859375 8.0390625 -36.375 11.625 C-36.30023437 12.81351562 -36.22546875 14.00203125 -36.1484375 15.2265625 C-36.07496094 16.59941406 -36.07496094 16.59941406 -36 18 C-35.6596875 17.41992188 -35.319375 16.83984375 -34.96875 16.2421875 C-28.61454793 6.00110651 -21.35712177 2.00570922 -9.875 -0.75 C-6.33941333 -1.05744232 -3.45122535 -0.84652697 0 0 Z " fill="#F9F9F9" transform="translate(599,478)"/>
<path d="M0 0 C9.07034756 4.66434334 17.01514518 10.28174763 24.67724609 16.99462891 C25.90507812 18.06970703 25.90507812 18.06970703 27.15771484 19.16650391 C46.58161864 37.45591421 60.03081849 65.39250995 61.11474609 92.05712891 C60.97809367 96.88311697 59.88465637 99.40987625 56.67724609 102.99462891 C53.51928503 104.57360944 50.07053974 104.81391061 46.67724609 103.99462891 C42.58501792 100.88045527 41.1124049 98.31398043 40.37573242 93.22314453 C40.28960693 92.50835937 40.20348145 91.79357422 40.11474609 91.05712891 C39.88306626 89.52636955 39.64600707 87.99641551 39.40380859 86.46728516 C39.28553711 85.70947754 39.16726563 84.95166992 39.04541016 84.17089844 C36.18703225 67.27462481 28.52948977 52.08115804 17.67724609 38.99462891 C16.90380859 37.94275391 16.90380859 37.94275391 16.11474609 36.86962891 C4.09402467 21.34286373 -17.50519844 12.36776574 -36.32275391 8.99462891 C-39.74423909 8.70023039 -43.11970101 8.49863972 -46.55322266 8.46337891 C-50.15137358 7.85438298 -51.78450175 6.58238598 -54.32275391 3.99462891 C-55.4843717 1.00225865 -55.62390263 -1.8177403 -55.32275391 -5.00537109 C-45.984238 -21.01425551 -12.35502123 -6.11183701 0 0 Z " fill="#15958A" transform="translate(316.32275390625,376.00537109375)"/>
<path d="M0 0 C0.969375 0.00064453 1.93875 0.00128906 2.9375 0.00195312 C4.4534375 0.02612305 4.4534375 0.02612305 6 0.05078125 C7.010625 0.04755859 8.02125 0.04433594 9.0625 0.04101562 C16.59928571 0.09613839 16.59928571 0.09613839 20 2.36328125 C20.37473011 4.30608368 20.37473011 4.30608368 20.3742218 6.72839355 C20.38474327 8.10389626 20.38474327 8.10389626 20.39547729 9.50718689 C20.38783356 10.51608475 20.38018982 11.5249826 20.37231445 12.56445312 C20.37596512 13.62467178 20.37961578 14.68489044 20.38337708 15.77723694 C20.39150926 19.29566266 20.37785004 22.81363168 20.36328125 26.33203125 C20.36276297 28.76818847 20.36327944 31.20434612 20.36479187 33.64050293 C20.36470203 38.75177231 20.35424779 43.86288435 20.33618164 48.97412109 C20.31349419 55.538527 20.31294912 62.10270283 20.31969929 68.66713715 C20.32303464 73.69930073 20.31641736 78.73141149 20.30657005 83.76356506 C20.30271027 86.18457259 20.30157304 88.60558598 20.3031559 91.02659607 C20.30352517 94.40521519 20.29094509 97.78353504 20.2746582 101.16210938 C20.27713562 102.17100723 20.27961304 103.17990509 20.28216553 104.21937561 C20.27153831 105.59487831 20.27153831 105.59487831 20.26069641 106.99816895 C20.25864354 107.7975312 20.25659067 108.59689346 20.25447559 109.42047882 C20 111.36328125 20 111.36328125 18 113.36328125 C14.39571326 113.84293918 10.75758479 113.73366551 7.125 113.73828125 C6.11824219 113.76277344 5.11148438 113.78726563 4.07421875 113.8125 C3.10355469 113.81636719 2.13289062 113.82023438 1.1328125 113.82421875 C0.24480957 113.83243652 -0.64319336 113.8406543 -1.55810547 113.84912109 C-5.0113543 113.16206199 -5.92631535 112.23659554 -8 109.36328125 C-8.60504691 105.98949571 -8.53571937 102.64595677 -8.50170898 99.22631836 C-8.50711197 98.19667465 -8.51251495 97.16703094 -8.51808167 96.10618591 C-8.53059529 92.70070711 -8.51406087 89.29606928 -8.49609375 85.890625 C-8.49624866 83.52698217 -8.49773638 81.16333909 -8.50050354 78.79969788 C-8.50188868 73.84576185 -8.48930889 68.89211495 -8.46655273 63.93823242 C-8.43815261 57.58016619 -8.44090827 51.22257994 -8.45364285 44.86447811 C-8.46058867 39.98409405 -8.4528235 35.10382145 -8.44038582 30.22345161 C-8.43586176 27.87863148 -8.43554281 25.53379943 -8.43945122 23.1889782 C-8.44235303 19.91601791 -8.42590579 16.64372561 -8.40405273 13.37084961 C-8.40855438 12.39674133 -8.41305603 11.42263306 -8.41769409 10.41900635 C-8.40778946 9.52876266 -8.39788483 8.63851898 -8.38768005 7.72129822 C-8.38525016 6.94757842 -8.38282026 6.17385862 -8.38031673 5.37669277 C-7.48072732 0.61423159 -4.35187326 -0.01462748 0 0 Z " fill="#F9F9F9" transform="translate(626,480.63671875)"/>
<path d="M0 0 C17.44589787 5.93729858 30.60969506 19.07835443 39.15869141 35.10253906 C44.07020163 45.17002383 47.34336208 56.35412887 45.88525391 67.64160156 C43.94775391 70.82910156 43.94775391 70.82910156 40.88525391 72.64160156 C37.69617812 73.37976015 35.00904243 73.68464739 31.88525391 72.64160156 C26.88362439 68.0041323 25.76810462 63.49277713 24.44775391 56.95410156 C21.3989702 43.6029897 16.29569418 32.94675417 4.55322266 25.07910156 C2.35944016 23.82337597 0.18314622 22.69448199 -2.11474609 21.64160156 C-3.19369141 21.12339844 -4.27263672 20.60519531 -5.38427734 20.07128906 C-10.03946615 18.28720623 -14.3155484 17.87985076 -19.24169922 17.46972656 C-23.79744027 17.01459009 -27.21209993 16.05393559 -31.11474609 13.64160156 C-33.57139807 9.9566236 -33.81561101 6.9218837 -33.11474609 2.64160156 C-26.14622866 -8.27574242 -10.51700394 -3.27634139 0 0 Z " fill="#169489" transform="translate(292.11474609375,406.3583984375)"/>
<path d="M0 0 C0.10845027 3.04263267 0.18752063 6.08136204 0.25 9.125 C0.30027344 10.40890625 0.30027344 10.40890625 0.3515625 11.71875 C0.43813862 17.3461976 -0.1611352 20.58797136 -4 25 C-10.93734322 31.10277562 -18.49642839 33.50324029 -27.62890625 33.25 C-33.18464509 32.66422193 -38.14844055 31.41071196 -42.625 28 C-44.76959013 23.32089426 -44.94648109 19.04308247 -44 14 C-41.5186244 9.14246615 -38.08799667 6.70250104 -33.06274414 4.66503906 C-29.1309966 3.39742392 -25.08457628 2.91148166 -21 2.375 C-20.13632812 2.25382813 -19.27265625 2.13265625 -18.3828125 2.0078125 C-16.69728856 1.77214654 -15.01109862 1.54118559 -13.32421875 1.31542969 C-11.25505199 1.0346142 -9.18966493 0.72625982 -7.125 0.4140625 C-4 0 -4 0 0 0 Z " fill="#100F10" transform="translate(862,542)"/>
<path d="M0 0 C3.90747572 3.33565 5.61584344 5.39708032 6.4375 10.5 C6.80046167 15.09751453 5.93062397 18.16168925 3.5625 22.1875 C-1.72662669 27.21217036 -6.35931518 27.60416102 -13.41796875 27.52734375 C-17.8712857 27.02612955 -20.51581063 25.5521277 -23.4375 22.1875 C-26.33416672 17.48041658 -26.92703089 13.6819642 -26.0703125 8.33203125 C-24.60824175 3.37723593 -21.5271849 0.84985749 -17.25 -1.75 C-10.97750715 -3.49807178 -5.77001928 -3.0423738 0 0 Z " fill="#F6F6F7" transform="translate(642.4375,437.8125)"/>
<path d="M0 0 C3.34625024 2.52676039 4.67977847 4.03933542 6 8 C6.50154202 14.1188126 6.07788705 17.10653554 2 22 C-1.30192045 24.2012803 -3.06767118 24.76868654 -7 25 C-11.6279156 23.33395038 -14.56736272 21.30389672 -17 17 C-17.87012579 12.19655048 -17.47146781 8.89416308 -15.1875 4.5625 C-10.76332023 -0.62011059 -6.48158221 -1.03374517 0 0 Z " fill="#0F0E0E" transform="translate(208,531)"/>
<path d="M0 0 C18.81 0 37.62 0 57 0 C53.69477196 2.20348536 52.72339001 2.24563385 48.88598633 2.22705078 C47.84513382 2.22689972 46.80428131 2.22674866 45.73188782 2.22659302 C44.60993515 2.21627045 43.48798248 2.20594788 42.33203125 2.1953125 C40.60710701 2.19106766 40.60710701 2.19106766 38.84733582 2.18673706 C35.16895204 2.17552833 31.49081038 2.15042224 27.8125 2.125 C25.32096705 2.11497111 22.8294303 2.1058451 20.33789062 2.09765625 C14.22509174 2.07728704 8.11281739 2.0381389 2 2 C2 13.88 2 25.76 2 38 C18.5 38 35 38 52 38 C52 38.99 52 39.98 52 41 C51.67 40.67 51.34 40.34 51 40 C49.40486107 39.87727151 47.80445068 39.82218957 46.20483398 39.79467773 C44.67335976 39.7647599 44.67335976 39.7647599 43.11094666 39.73423767 C41.44534447 39.70916893 41.44534447 39.70916893 39.74609375 39.68359375 C38.05021873 39.6524221 38.05021873 39.6524221 36.32008362 39.62062073 C32.69262015 39.55500203 29.06508167 39.49618323 25.4375 39.4375 C22.98501814 39.39432649 20.532544 39.3507126 18.08007812 39.30664062 C12.05346131 39.19847581 6.02679127 39.09949392 0 39 C0 26.13 0 13.26 0 0 Z " fill="#020202" transform="translate(452,463)"/>
<path d="M0 0 C26.4 0 52.8 0 80 0 C80 0.33 80 0.66 80 1 C69.88187794 1.13060993 59.76375325 1.26101326 49.64562511 1.39115143 C44.94758664 1.45158357 40.24954912 1.51208739 35.55151367 1.57275391 C31.01928735 1.63127668 26.48705867 1.68961263 21.95482826 1.74781799 C20.22404202 1.77007873 18.49325664 1.79240726 16.76247215 1.81480408 C14.3418945 1.84611553 11.92131389 1.87718789 9.50073242 1.90820312 C8.78216064 1.91755386 8.06358887 1.9269046 7.32324219 1.9365387 C4.54854603 1.97188959 1.77496066 2 -1 2 C-0.67 1.34 -0.34 0.68 0 0 Z " fill="#FEFEFD" transform="translate(426,436)"/>
<path d="M0 0 C0.33 0 0.66 0 1 0 C1.54580884 8.13839966 2.06713486 16.28171488 2.25 24.4375 C2.27578125 25.46746094 2.3015625 26.49742187 2.328125 27.55859375 C2.21984375 28.36425781 2.1115625 29.16992188 2 30 C1.01 30.66 0.02 31.32 -1 32 C-1.02465504 27.60343827 -1.04283842 23.2069128 -1.05493164 18.81030273 C-1.05997121 17.31355082 -1.06680287 15.81680384 -1.07543945 14.32006836 C-1.08752159 12.17300193 -1.09323191 10.02600038 -1.09765625 7.87890625 C-1.10289307 6.5854126 -1.10812988 5.29191895 -1.11352539 3.95922852 C-1 1 -1 1 0 0 Z " fill="#DADADA" transform="translate(1001,481)"/>
<path d="M0 0 C0 6.27 0 12.54 0 19 C-0.66 19.33 -1.32 19.66 -2 20 C-2 14.06 -2 8.12 -2 2 C-3.98 2.33 -5.96 2.66 -8 3 C-6.23110084 -0.53779831 -3.70375662 0 0 0 Z " fill="#1B1B1B" transform="translate(862,542)"/>
<path d="M0 0 C0.99 0.33 1.98 0.66 3 1 C3.72078754 2.54454472 4.42423897 4.0993166 5.04296875 5.6875 C7.07120704 10.58838599 9.60331515 15.27121163 12 20 C12.33 20.66 12.66 21.32 13 22 C12.01 22 11.02 22 10 22 C8.32686677 18.71158124 6.66260393 15.41875318 5 12.125 C4.52304688 11.18785156 4.04609375 10.25070312 3.5546875 9.28515625 C3.10351562 8.38925781 2.65234375 7.49335937 2.1875 6.5703125 C1.76855469 5.74289551 1.34960938 4.91547852 0.91796875 4.06298828 C0 2 0 2 0 0 Z " fill="#151515" transform="translate(72,713)"/>
<path d="M0 0 C0.33 0 0.66 0 1 0 C1.1799928 5.21979128 0.97094808 9.07262981 -1 14 C-1.66 14 -2.32 14 -3 14 C-3 14.99 -3 15.98 -3 17 C-3.66 17 -4.32 17 -5 17 C-1.92482916 5.47835991 -1.92482916 5.47835991 0 0 Z " fill="#191919" transform="translate(51,349)"/>
<path d="M0 0 C3.71134205 3.1994328 5.42930118 6.3705719 7 11 C6.6875 13.4375 6.6875 13.4375 6 15 C3.08691178 13.54345589 2.94547684 11.64612352 1.875 8.625 C1.52179687 7.64789063 1.16859375 6.67078125 0.8046875 5.6640625 C0 3 0 3 0 0 Z " fill="#181818" transform="translate(883,494)"/>
<path d="M0 0 C1.125 3.75 1.125 3.75 0 6 C0.99 5.67 1.98 5.34 3 5 C1.25 10.75 1.25 10.75 -1 13 C-1.02696365 11.20841511 -1.04637917 9.41671527 -1.0625 7.625 C-1.07410156 6.62726563 -1.08570313 5.62953125 -1.09765625 4.6015625 C-1 2 -1 2 0 0 Z " fill="#060706" transform="translate(563,485)"/>
<path d="M0 0 C2 1.5 2 1.5 4 4 C4.35800135 6.75871627 4.18660165 9.20097524 4 12 C2.09681116 9.14521674 1.5380901 7.58058692 0.875 4.3125 C0.70742188 3.50425781 0.53984375 2.69601562 0.3671875 1.86328125 C0.24601562 1.24839844 0.12484375 0.63351562 0 0 Z " fill="#141515" transform="translate(51,660)"/>
<path d="M0 0 C4.40114397 0.50298788 6.71195019 2.08772731 10 5 C8.51793505 4.745504 7.03931385 4.47088238 5.5625 4.1875 C4.73878906 4.03667969 3.91507813 3.88585937 3.06640625 3.73046875 C2.38449219 3.48941406 1.70257812 3.24835938 1 3 C0.67 2.01 0.34 1.02 0 0 Z " fill="#1D1C1D" transform="translate(731,504)"/>
<path d="M0 0 C5.445 1.485 5.445 1.485 11 3 C9.02 3.99 9.02 3.99 7 5 C3.25 3.625 3.25 3.625 0 2 C0 1.34 0 0.68 0 0 Z " fill="#191818" transform="translate(669,48)"/>
<path d="M0 0 C0.66 0.33 1.32 0.66 2 1 C0.02 5.455 0.02 5.455 -2 10 C-2.33 10 -2.66 10 -3 10 C-3.36923077 4.58461538 -3.36923077 4.58461538 -1.5 1.625 C-1.005 1.08875 -0.51 0.5525 0 0 Z " fill="#161516" transform="translate(963,689)"/>
<path d="M0 0 C3 3 3 3 3.1875 6.1875 C3.0946875 7.5796875 3.0946875 7.5796875 3 9 C2.01 9.495 2.01 9.495 1 10 C0.67 6.7 0.34 3.4 0 0 Z " fill="#ECECEC" transform="translate(990,401)"/>
<path d="M0 0 C3.3 0.99 6.6 1.98 10 3 C8.02 3.99 8.02 3.99 6 5 C2.25 3.625 2.25 3.625 -1 2 C-0.67 1.34 -0.34 0.68 0 0 Z " fill="#171717" transform="translate(696,591)"/>
<path d="M0 0 C3.86107457 2.57404971 3.94319692 4.61020259 5 9 C4.01 9 3.02 9 2 9 C1.34 6.03 0.68 3.06 0 0 Z " fill="#F3F3F3" transform="translate(977,355)"/>
<path d="M0 0 C3.82097239 0.53069061 6.06171403 1.49701566 9 4 C8.01 4.33 7.02 4.66 6 5 C5.01 4.34 4.02 3.68 3 3 C2.01 2.67 1.02 2.34 0 2 C0 1.34 0 0.68 0 0 Z " fill="#191919" transform="translate(736,76)"/>
<path d="M0 0 C0.66 0.66 1.32 1.32 2 2 C0.71034824 3.37562854 -0.62689293 4.70766393 -2 6 C-2.66 6 -3.32 6 -4 6 C-2.84826645 3.53199953 -1.95216435 1.95216435 0 0 Z " fill="#1A1A1A" transform="translate(155,176)"/>
<path d="M0 0 C-0.33 0.99 -0.66 1.98 -1 3 C-1.99 2.67 -2.98 2.34 -4 2 C-4 2.66 -4 3.32 -4 4 C-5.65 3.67 -7.3 3.34 -9 3 C-5.73209435 0.82139623 -3.91954654 0 0 0 Z " fill="#1D1C1D" transform="translate(366,44)"/>
</svg>
