<?xml version="1.0" encoding="UTF-8"?>
<svg version="1.1" xmlns="http://www.w3.org/2000/svg" width="1024" height="1024">
<path d="M0 0 C337.92 0 675.84 0 1024 0 C1024 337.92 1024 675.84 1024 1024 C686.08 1024 348.16 1024 0 1024 C0 686.08 0 348.16 0 0 Z " fill="#0A0A0A" transform="translate(0,0)"/>
<path d="M0 0 C0.68710052 -0.00686325 1.37420105 -0.0137265 2.0821228 -0.02079773 C4.33011117 -0.03894832 6.5773943 -0.03524766 8.82543945 -0.02954102 C10.39769211 -0.0341064 11.96994277 -0.03941304 13.54219055 -0.04542542 C16.82622423 -0.05433177 20.11001436 -0.05195935 23.39404297 -0.04199219 C27.60088653 -0.03046743 31.80689505 -0.05077926 36.01362896 -0.07990932 C39.25559308 -0.09825102 42.49735592 -0.09798365 45.7393589 -0.0922718 C47.29070017 -0.09211854 48.84205504 -0.098167 50.39334679 -0.11056328 C52.55964206 -0.12544538 54.7243785 -0.11482177 56.890625 -0.09765625 C58.73759224 -0.097407 58.73759224 -0.097407 60.62187195 -0.09715271 C64.35129254 0.50016196 65.54038784 1.38622241 67.7512207 4.40405273 C68.30446004 8.27672812 68.49674248 10.4043549 66.11907959 13.59265137 C63.029832 15.95591184 61.23175891 15.89727256 57.36547852 15.88647461 C56.07023254 15.89328247 54.77498657 15.90009033 53.44049072 15.90710449 C52.75059303 15.9014296 52.06069534 15.8957547 51.34989166 15.88990784 C49.1794162 15.87260399 47.01026808 15.88017614 44.83978271 15.89416504 C39.44727526 15.9237792 34.05502254 15.91066753 28.66247559 15.89898682 C24.10759528 15.89075122 19.55329535 15.89886079 14.99849701 15.92811584 C12.87120021 15.93516406 10.74495093 15.91858803 8.61773682 15.90100098 C-0.06320026 15.94618843 -6.17040848 16.43300746 -12.6237793 22.71655273 C-17.0310403 30.00548439 -16.55083509 37.60937412 -16.55517578 45.89160156 C-16.56280661 47.25570627 -16.57123568 48.6198067 -16.58039856 49.98390198 C-16.60225842 53.67413231 -16.61113083 57.36427983 -16.616225 61.05456758 C-16.61987843 63.36448463 -16.62612353 65.67438031 -16.63322639 67.98428917 C-16.65769051 76.05529093 -16.67076638 84.12622869 -16.67431641 92.19726562 C-16.67795019 99.70059465 -16.70784185 107.2035143 -16.74972099 114.70671827 C-16.78449727 121.16557509 -16.7998661 127.62429667 -16.80056244 134.08324641 C-16.80135271 137.93342923 -16.80997524 141.7831944 -16.8385601 145.6332798 C-16.8648678 149.25736495 -16.86687649 152.88068988 -16.85090446 156.5048275 C-16.84824552 158.45427637 -16.8701863 160.40371129 -16.89309692 162.35302734 C-16.82953762 170.04508028 -15.74093809 176.01850921 -11.2487793 182.40405273 C-6.32437176 186.52447537 -2.34817254 187.52169518 3.92388916 187.55122375 C4.96959579 187.55837906 6.01530243 187.56553436 7.09269714 187.57290649 C8.80553642 187.57693985 8.80553642 187.57693985 10.55297852 187.58105469 C12.36337364 187.59091148 12.36337364 187.59091148 14.21034241 187.60096741 C18.20834604 187.62069396 22.2063096 187.63236519 26.2043457 187.64233398 C27.58355478 187.64638344 28.96276367 187.65050041 30.34197235 187.65468407 C36.82288629 187.67372489 43.30378891 187.68795813 49.78472543 187.69629604 C57.25292603 187.70606413 64.7208299 187.7323768 72.18892598 187.77279693 C77.96997804 187.8030069 83.75094526 187.81776952 89.53207469 187.82107705 C92.98090092 187.823422 96.42940975 187.83230939 99.87815094 187.85753822 C103.729491 187.8852582 107.58044388 187.88097287 111.43188477 187.87402344 C112.56568069 187.8868335 113.69947662 187.89964355 114.86763 187.9128418 C122.26263252 187.86426069 128.05150781 186.98594037 133.59106445 181.62280273 C133.95329102 181.05561523 134.31551758 180.48842773 134.6887207 179.90405273 C135.06899414 179.33686523 135.44926758 178.76967773 135.84106445 178.18530273 C137.5409085 174.85856932 137.89285406 171.55237597 138.06762695 167.85717773 C138.10952148 167.0128418 138.15141602 166.16850586 138.19458008 165.29858398 C138.23389648 164.42588867 138.27321289 163.55319336 138.3137207 162.65405273 C138.37849609 161.32180664 138.37849609 161.32180664 138.44458008 159.96264648 C138.55035685 157.77659311 138.65244617 155.59043184 138.7512207 153.40405273 C137.98680664 153.27256836 137.22239258 153.14108398 136.43481445 153.00561523 C130.10276964 151.5862049 125.2330077 146.71063172 121.7512207 141.40405273 C121.0912207 139.42405273 120.4312207 137.44405273 119.7512207 135.40405273 C91.5362207 135.89905273 91.5362207 135.89905273 62.7512207 136.40405273 C61.4312207 139.04405273 60.1112207 141.68405273 58.7512207 144.40405273 C53.13561457 151.07191394 46.89790069 154.62586729 38.3137207 155.71264648 C30.85020879 156.09748382 24.48052841 154.19460367 18.4855957 149.70874023 C12.55321907 144.2817142 9.37862415 138.40367394 8.3762207 130.41577148 C8.03658284 122.06280285 10.03506985 115.6985155 15.1262207 109.09155273 C19.07603137 105.04769895 23.3259575 102.05261338 28.7512207 100.40405273 C30.76142223 100.48478372 32.77258696 100.57128877 34.77734375 100.73974609 C41.91631524 101.28936868 41.91631524 101.28936868 48.37231445 98.71264648 C50.68602963 96.0577786 52.68773623 93.25795669 54.7512207 90.40405273 C57.0409809 87.82159536 59.42860944 85.33577448 61.8137207 82.84155273 C66.88442569 77.44193349 71.88053921 71.98567221 76.7512207 66.40405273 C76.4624707 65.68217773 76.1737207 64.96030273 75.8762207 64.21655273 C75.5049707 63.28842773 75.1337207 62.36030273 74.7512207 61.40405273 C74.3902832 60.64479492 74.0293457 59.88553711 73.6574707 59.10327148 C71.34800001 52.22463247 71.47723451 43.15107094 73.8137207 36.27905273 C78.25482517 28.36230129 84.85491421 23.36594075 93.53637695 20.87280273 C100.59513487 19.37888571 107.22851808 20.40522506 113.7512207 23.40405273 C120.49543899 27.86808293 125.47927848 33.57126146 127.7512207 41.40405273 C129.25124578 51.23498632 127.5649619 59.29443921 121.7512207 67.40405273 C119.29966871 69.90513103 116.7977047 71.69490325 113.7512207 73.40405273 C112.6993457 74.02280273 111.6474707 74.64155273 110.5637207 75.27905273 C104.4965153 77.06937564 97.2609952 77.54034887 91.16918945 75.56811523 C88.52466271 75.10836167 88.52466271 75.10836167 86.27856445 77.47436523 C85.39898985 78.4785533 84.5367264 79.49806705 83.6887207 80.52905273 C82.72335611 81.6430115 81.75718133 82.75626855 80.7902832 83.86889648 C80.29302734 84.4513916 79.79577148 85.03388672 79.28344727 85.6340332 C76.78387499 88.52152508 74.16953461 91.30023039 71.5637207 94.09155273 C66.89212417 99.13657584 62.28948706 104.23843779 57.7512207 109.40405273 C58.1121582 110.10272461 58.4730957 110.80139648 58.8449707 111.52124023 C59.54106445 112.88635742 59.54106445 112.88635742 60.2512207 114.27905273 C60.94731445 115.63643555 60.94731445 115.63643555 61.6574707 117.02124023 C62.7512207 119.40405273 62.7512207 119.40405273 62.7512207 121.40405273 C81.5612207 121.40405273 100.3712207 121.40405273 119.7512207 121.40405273 C120.0812207 119.75405273 120.4112207 118.10405273 120.7512207 116.40405273 C124.65414683 109.34876321 130.34324338 104.49965679 137.7512207 101.40405273 C146.0329639 100.40266548 153.84355431 100.39682087 160.7512207 105.40405273 C162.3290332 106.45592773 162.3290332 106.45592773 163.9387207 107.52905273 C168.88379289 112.0270362 171.35885492 117.46130933 172.2355957 124.03686523 C172.56940462 133.21661055 171.30476728 140.33161364 165.0715332 147.27514648 C161.53970164 150.54797707 158.38706049 151.99569634 153.7512207 153.40405273 C153.76693115 153.98783691 153.7826416 154.57162109 153.79882812 155.1730957 C153.86204098 157.87497869 153.90047994 160.57670532 153.9387207 163.27905273 C153.96385742 164.19686523 153.98899414 165.11467773 154.01489258 166.06030273 C154.1320209 177.14845073 151.19694286 186.06541999 143.7512207 194.40405273 C134.58386671 202.22181422 125.60244222 203.85243969 113.88452148 203.80810547 C111.97565659 203.81840034 111.97565659 203.81840034 110.02822876 203.8289032 C106.55699346 203.84676025 103.08601199 203.84568023 99.61474466 203.83996081 C96.70743351 203.83685758 93.80017032 203.84297409 90.89286602 203.84899956 C84.02871534 203.8630192 77.16468918 203.86150541 70.30053711 203.85009766 C63.240859 203.83862354 56.18156111 203.85268579 49.1219331 203.87949413 C43.04095938 203.90171368 36.96010445 203.90827436 30.87909305 203.90241772 C27.25592302 203.89906126 23.63299653 203.90137488 20.00986099 203.91866875 C15.96523551 203.93713386 11.92134043 203.92288687 7.87670898 203.90576172 C6.69093262 203.91542969 5.50515625 203.92509766 4.28344727 203.93505859 C-6.90389376 203.83619758 -14.8548734 200.77242937 -22.97924805 193.04467773 C-29.4432239 185.52376951 -32.35610513 177.16563333 -32.39595032 167.37203979 C-32.40310562 166.16101089 -32.41026093 164.94998199 -32.41763306 163.70225525 C-32.42047295 162.36831691 -32.42318472 161.03437829 -32.42578125 159.70043945 C-32.43205111 158.2889947 -32.43869837 156.87755157 -32.44569397 155.46611023 C-32.46667786 150.83866513 -32.4770923 146.21121992 -32.48706055 141.58374023 C-32.49111048 139.98635974 -32.49522747 138.38897942 -32.49941063 136.79159927 C-32.51845129 129.28392318 -32.53268365 121.77625683 -32.5410226 114.26856124 C-32.55078559 105.62316822 -32.57708519 96.97803187 -32.61752349 88.33272922 C-32.64776008 81.63696836 -32.66249867 74.94128076 -32.66580361 68.245453 C-32.66814583 64.25274121 -32.67699738 60.26030396 -32.70226479 56.26766586 C-32.72568267 52.50663765 -32.72972436 48.74606208 -32.7195034 44.98497963 C-32.7187783 42.96295394 -32.73777322 40.94095053 -32.75756836 38.91902161 C-32.69351244 27.59134333 -30.22878039 17.76929526 -22.2487793 9.40405273 C-15.57138052 3.42023305 -9.05458474 0.03965458 0 0 Z " fill="#339FA2" transform="translate(148.248779296875,407.595947265625)"/>
<path d="M0 0 C0.8499353 0.00404846 1.69987061 0.00809692 2.57556152 0.01226807 C3.46996948 0.00876343 4.36437744 0.00525879 5.28588867 0.00164795 C8.25231613 -0.00717881 11.2185065 -0.00131688 14.18493652 0.00543213 C16.23995001 0.00408575 18.29496319 0.00214545 20.34997559 -0.00036621 C24.66087877 -0.00331876 28.97169919 0.00098437 33.28259277 0.01031494 C38.81791777 0.02170952 44.35304883 0.01515075 49.8883667 0.00317001 C54.13303091 -0.00404506 58.37764888 -0.00176228 62.62231445 0.0034256 C64.66373721 0.00476307 66.70516412 0.00311098 68.74658203 -0.00153351 C71.59593889 -0.00659294 74.4449784 0.00110327 77.29431152 0.01226807 C78.14424683 0.0082196 78.99418213 0.00417114 79.86987305 0 C85.70640867 0.04252928 85.70640867 0.04252928 87.93493652 2.27105713 C88.38726002 5.91859379 88.25899939 9.59868974 88.24743652 13.27105713 C88.2635498 14.29457275 88.27966309 15.31808838 88.29626465 16.37261963 C88.29690918 17.349729 88.29755371 18.32683838 88.29821777 19.33355713 C88.30119873 20.23203369 88.30417969 21.13051025 88.30725098 22.05621338 C88.18438721 22.78711182 88.06152344 23.51801025 87.93493652 24.27105713 C84.34977625 26.66116398 82.79226685 26.51432315 78.5357666 26.49810791 C77.89159286 26.49839996 77.24741913 26.49869202 76.58372498 26.49899292 C74.45716829 26.49760097 72.33096316 26.48204651 70.20446777 26.46636963 C68.72902111 26.46263901 67.25357197 26.45979227 65.77812195 26.45779419 C61.8966283 26.45016154 58.01528456 26.4305163 54.1338501 26.40838623 C49.47576241 26.38432081 44.81762457 26.37514505 40.15949249 26.36347961 C33.08453627 26.34409159 26.00990892 26.30576672 18.93493652 26.27105713 C18.93493652 42.11105713 18.93493652 57.95105713 18.93493652 74.27105713 C23.14759277 74.22465088 27.36024902 74.17824463 31.70056152 74.13043213 C35.06194076 74.10470386 38.42329214 74.08301434 41.78471375 74.0640564 C45.3318969 74.04294296 48.87869709 74.01473514 52.42565918 73.96929932 C56.49649743 73.91747975 60.5669308 73.89810344 64.63806152 73.88043213 C65.90796936 73.85978699 67.1778772 73.83914185 68.48626709 73.81787109 C70.25765045 73.81741791 70.25765045 73.81741791 72.06481934 73.81695557 C73.10406555 73.80807312 74.14331177 73.79919067 75.21405029 73.79003906 C78.63761548 74.39528183 79.80723111 75.57890502 81.93493652 78.27105713 C82.43664551 80.42169189 82.43664551 80.42169189 82.43103027 82.71246338 C82.4316748 83.54326416 82.43231934 84.37406494 82.4329834 85.2300415 C82.41300293 86.08920166 82.39302246 86.94836182 82.37243652 87.83355713 C82.37952637 88.69658447 82.38661621 89.55961182 82.3939209 90.4487915 C82.33053949 96.72355061 82.33053949 96.72355061 80.77520752 98.87609863 C78.17223517 100.84919846 76.3314567 100.63204153 73.08654785 100.6116333 C71.88552933 100.61140671 70.6845108 100.61118011 69.44709778 100.61094666 C68.15015488 100.5954628 66.85321198 100.57997894 65.51696777 100.56402588 C64.17604547 100.55842947 62.83511703 100.55415958 61.4941864 100.55116272 C57.96769222 100.53971731 54.44156968 100.51025331 50.91522217 100.47705078 C47.3157259 100.44634303 43.71616769 100.43249149 40.11657715 100.4175415 C33.05570222 100.38697495 25.99584737 100.32825623 18.93493652 100.27105713 C18.93493652 116.11105713 18.93493652 131.95105713 18.93493652 148.27105713 C23.80888184 148.247854 28.68282715 148.22465088 33.70446777 148.20074463 C36.78975955 148.19052717 39.8750305 148.18089936 42.96032715 148.17340088 C47.85889002 148.16143911 52.75737823 148.14727888 57.65588379 148.12017822 C61.60457363 148.09846874 65.55318342 148.08649251 69.50192833 148.08130264 C71.00943958 148.07760347 72.51694638 148.07038002 74.0244236 148.05959702 C76.13377015 148.04510709 78.24278465 148.04307811 80.35217285 148.04400635 C81.55352371 148.03956512 82.75487457 148.0351239 83.99263 148.0305481 C86.93493652 148.27105713 86.93493652 148.27105713 89.93493652 150.27105713 C90.30725098 152.394104 90.30725098 152.394104 90.29821777 154.98980713 C90.29725098 156.38779541 90.29725098 156.38779541 90.29626465 157.81402588 C90.27209473 159.27775635 90.27209473 159.27775635 90.24743652 160.77105713 C90.25065918 161.74687744 90.25388184 162.72269775 90.25720215 163.72808838 C90.20185181 171.00414184 90.20185181 171.00414184 87.93493652 173.27105713 C84.92710922 173.46469839 82.01166078 173.53319908 79.00305176 173.51397705 C78.07777679 173.5158754 77.15250183 173.51777374 76.19918823 173.51972961 C73.1305503 173.52344446 70.06214728 173.51272386 66.99353027 173.50152588 C64.86886116 173.50033446 62.74419152 173.49988084 60.61952209 173.50013733 C56.16318472 173.49857128 51.70692755 173.49027179 47.25061035 173.47686768 C41.52466136 173.45986736 35.79880052 173.45605355 30.07282925 173.45681286 C25.68495332 173.45654158 21.29709685 173.45106727 16.90922737 173.44381142 C14.79720266 173.4406187 12.68517573 173.43865594 10.57314873 173.43791771 C7.62786946 173.43576109 4.68268568 173.42703194 1.73742676 173.4163208 C0.41505257 173.41700058 0.41505257 173.41700058 -0.93403625 173.41769409 C-6.95058943 173.38553118 -6.95058943 173.38553118 -8.06506348 172.27105713 C-8.16644254 170.08606904 -8.19584402 167.89774019 -8.19877625 165.71040344 C-8.2010418 165.01675625 -8.20330736 164.32310905 -8.20564157 163.60844225 C-8.21200924 161.26687868 -8.21115044 158.92537258 -8.21032715 156.58380127 C-8.21331692 154.91204248 -8.21671902 153.24028439 -8.22050476 151.56852722 C-8.22936746 147.01487469 -8.23168382 142.46124093 -8.23232055 137.90758061 C-8.23326774 134.11262068 -8.23694383 130.31766517 -8.24049264 126.52270693 C-8.2486458 117.57301736 -8.25107609 108.62333787 -8.25036621 99.67364502 C-8.24976516 90.4265615 -8.26032045 81.17953628 -8.27610987 71.93246752 C-8.2891639 64.00636426 -8.29455101 56.0802801 -8.2939108 48.15416616 C-8.29365519 43.41450959 -8.29654118 38.67490478 -8.30708885 33.93525887 C-8.316734 29.47921469 -8.31687381 25.02327215 -8.30957222 20.5672245 C-8.3085219 18.92809146 -8.31091557 17.2889522 -8.31693268 15.64982986 C-8.32459282 13.41932989 -8.32004801 11.18918616 -8.31230164 8.95869446 C-8.3128464 7.7081984 -8.31339117 6.45770235 -8.31395245 5.16931248 C-7.83630409 -0.39279383 -4.8749666 0.03552258 0 0 Z " fill="#F5F4EF" transform="translate(405.0650634765625,427.72894287109375)"/>
<path d="M0 0 C9.26945108 7.49197569 14.23848995 16.13332284 16.1796875 27.76171875 C16.43171822 30.81974189 16.45406241 33.85441794 16.43847656 36.92163086 C16.4419812 37.78780029 16.44548584 38.65396973 16.44909668 39.54638672 C16.45782036 42.37736281 16.45210189 45.20808438 16.4453125 48.0390625 C16.44666098 50.01681058 16.44860304 51.99455834 16.45111084 53.9723053 C16.45404865 58.1001402 16.44980457 62.22788814 16.44042969 66.35571289 C16.42898343 71.65430763 16.43563566 76.9527009 16.44757462 82.25128841 C16.45478491 86.32694533 16.45251003 90.40255403 16.44731903 94.47821236 C16.44598294 96.43311143 16.44762884 98.38801485 16.45227814 100.34290886 C16.45733541 103.06458115 16.4496469 105.78592096 16.43847656 108.50756836 C16.44252502 109.31845413 16.44657349 110.1293399 16.45074463 110.96479797 C16.40822689 116.53317936 16.40822689 116.53317936 14.1796875 118.76171875 C12.05664062 119.02050781 12.05664062 119.02050781 9.4609375 119.02734375 C8.52894531 119.02992188 7.59695313 119.0325 6.63671875 119.03515625 C5.66089844 119.02742187 4.68507813 119.0196875 3.6796875 119.01171875 C2.21595703 119.02332031 2.21595703 119.02332031 0.72265625 119.03515625 C-0.20933594 119.03257812 -1.14132812 119.03 -2.1015625 119.02734375 C-2.95814453 119.02508789 -3.81472656 119.02283203 -4.69726562 119.02050781 C-6.8203125 118.76171875 -6.8203125 118.76171875 -8.8203125 116.76171875 C-9.015625 113.94140625 -9.015625 113.94140625 -8.9453125 110.63671875 C-8.92726563 109.54101562 -8.90921875 108.4453125 -8.890625 107.31640625 C-8.86742187 106.47335937 -8.84421875 105.6303125 -8.8203125 104.76171875 C-9.37203125 105.51195312 -9.92375 106.2621875 -10.4921875 107.03515625 C-16.92417857 114.56792431 -27.12083096 119.26247093 -36.8203125 120.76171875 C-51.44960443 121.71417209 -64.11407024 121.56042648 -75.81640625 111.7421875 C-83.50512459 104.14339569 -86.9177283 95.5112106 -87.1953125 84.82421875 C-86.93667565 74.80204072 -84.52288427 66.40151453 -77.8203125 58.76171875 C-60.03839956 42.46163189 -31.24334686 44.56547569 -8.8203125 44.76171875 C-9.0497921 42.05023613 -9.3030945 39.34452787 -9.5703125 36.63671875 C-9.663125 35.49589844 -9.663125 35.49589844 -9.7578125 34.33203125 C-10.37850779 28.33197676 -11.99360951 24.08601945 -16.8203125 20.1171875 C-17.8103125 19.53904297 -17.8103125 19.53904297 -18.8203125 18.94921875 C-19.4803125 18.55089844 -20.1403125 18.15257812 -20.8203125 17.7421875 C-28.37549703 14.03837633 -37.71717272 15.10913118 -45.4609375 17.7109375 C-50.02840135 19.74512256 -54.42993997 22.5485897 -57.12280273 26.83496094 C-58.8203125 28.76171875 -58.8203125 28.76171875 -61.07275391 29.23168945 C-62.35931885 29.20981567 -62.35931885 29.20981567 -63.671875 29.1875 C-65.07179688 29.17493164 -65.07179688 29.17493164 -66.5 29.16210938 C-67.47195313 29.13310547 -68.44390625 29.10410156 -69.4453125 29.07421875 C-70.91484375 29.0597168 -70.91484375 29.0597168 -72.4140625 29.04492188 C-79.65240148 28.92962977 -79.65240148 28.92962977 -80.8203125 27.76171875 C-82.05534077 19.82225133 -77.81214148 13.01410501 -73.35546875 6.6796875 C-56.60552225 -12.20129545 -20.29641119 -13.56510984 0 0 Z " fill="#F6F5F0" transform="translate(868.8203125,482.23828125)"/>
<path d="M0 0 C8.45071438 6.8403991 14.94423319 15.45010519 16.3359375 26.44140625 C16.55078125 28.91015625 16.55078125 28.91015625 16.3984375 30.94140625 C12.52091383 34.81892992 5.87160439 33.66491821 0.64404297 33.72900391 C-6.7967218 33.53784042 -6.7967218 33.53784042 -10.33203125 30.91796875 C-11.9765625 28.31640625 -11.9765625 28.31640625 -13.30859375 25.55859375 C-15.76431355 20.5878014 -20.32696263 17.88183452 -25.33203125 15.8125 C-33.50237356 13.63569434 -43.65100139 13.42230631 -51.3515625 17.19140625 C-52.79220736 18.06990759 -54.21371545 18.98166525 -55.6015625 19.94140625 C-56.5090625 20.49828125 -57.4165625 21.05515625 -58.3515625 21.62890625 C-67.06744339 30.58689495 -70.18207479 42.04565081 -70.0390625 54.25390625 C-70.03148926 55.16817383 -70.02391602 56.08244141 -70.01611328 57.02441406 C-69.74668661 68.15940541 -67.09316388 78.41885056 -59.6015625 86.94140625 C-51.2657851 94.67700768 -42.97953499 95.58490461 -32.0390625 95.31640625 C-24.59577514 94.87782871 -19.23302177 92.02911919 -14.2265625 86.56640625 C-11.59304368 83.28662515 -9.65381981 79.60053736 -7.6015625 75.94140625 C-3.97662916 75.88352841 -0.35181393 75.84785205 3.2734375 75.81640625 C4.30597656 75.79964844 5.33851563 75.78289062 6.40234375 75.765625 C7.38847656 75.75917969 8.37460937 75.75273438 9.390625 75.74609375 C10.75743408 75.7303833 10.75743408 75.7303833 12.15185547 75.71435547 C14.3984375 75.94140625 14.3984375 75.94140625 16.3984375 77.94140625 C17.26599201 87.01458046 12.88014529 95.60256047 7.3515625 102.4921875 C-3.27444588 113.70224953 -17.04672152 119.21250728 -32.37890625 120.1796875 C-50.51225465 120.66318538 -65.95127447 115.91468178 -79.38769531 103.31323242 C-91.94098027 90.9438254 -96.61943659 74.8004385 -96.84350586 57.50341797 C-96.89400422 37.91923605 -94.22679285 20.78328881 -79.96875 6.1171875 C-58.47383144 -13.63969309 -24.25877607 -16.86458457 0 0 Z " fill="#F5F4F0" transform="translate(753.6015625,484.05859375)"/>
<path d="M0 0 C0.37231445 2.3984375 0.37231445 2.3984375 0.36328125 5.375 C0.36231445 6.97601563 0.36231445 6.97601563 0.36132812 8.609375 C0.34521484 9.72828125 0.32910156 10.8471875 0.3125 12 C0.31572266 13.11890625 0.31894531 14.2378125 0.32226562 15.390625 C0.2668503 23.7331497 0.2668503 23.7331497 -2 26 C-4.15942954 26.22929427 -6.32982668 26.35965683 -8.5 26.4375 C-19.16464259 27.0712595 -27.76685833 29.20240996 -35.1875 37.3125 C-40.72446412 44.08151111 -42.10589237 51.26852246 -42.17358398 59.86987305 C-42.1836145 60.87564392 -42.1836145 60.87564392 -42.19384766 61.9017334 C-42.20783895 63.34981706 -42.21975154 64.79792201 -42.22979546 66.24603844 C-42.24627133 68.53640479 -42.26950709 70.82661141 -42.29469299 73.11689758 C-42.36531931 79.62578336 -42.42577149 86.13473025 -42.47680664 92.64379883 C-42.50853874 96.63077455 -42.54978558 100.61755869 -42.59700203 104.60437965 C-42.61304096 106.1238341 -42.62535377 107.64333251 -42.63390923 109.16284752 C-42.64601969 111.28153444 -42.67014602 113.399767 -42.69702148 115.51831055 C-42.70732895 116.72456589 -42.71763641 117.93082123 -42.72825623 119.17362976 C-43 122 -43 122 -45 124 C-47.21484375 124.25878906 -47.21484375 124.25878906 -49.9375 124.265625 C-50.91460938 124.26820313 -51.89171875 124.27078125 -52.8984375 124.2734375 C-53.92195312 124.26570312 -54.94546875 124.25796875 -56 124.25 C-57.02351562 124.25773438 -58.04703125 124.26546875 -59.1015625 124.2734375 C-60.07867188 124.27085937 -61.05578125 124.26828125 -62.0625 124.265625 C-62.96097656 124.26336914 -63.85945312 124.26111328 -64.78515625 124.25878906 C-67 124 -67 124 -69 122 C-69.25168228 119.88540649 -69.25168228 119.88540649 -69.25396729 117.21728516 C-69.25960693 116.20772766 -69.26524658 115.19817017 -69.27105713 114.15802002 C-69.26700867 113.04626404 -69.26296021 111.93450806 -69.25878906 110.7890625 C-69.2622937 109.62155457 -69.26579834 108.45404663 -69.26940918 107.25115967 C-69.27671754 104.04457892 -69.27498455 100.83816253 -69.26865101 97.63158417 C-69.2635966 94.27994138 -69.2682809 90.92830298 -69.27142334 87.57666016 C-69.27506462 81.94757102 -69.27025966 76.31853431 -69.26074219 70.68945312 C-69.24985729 64.17629354 -69.25338276 57.66325916 -69.264395 51.15010262 C-69.27346328 45.56365447 -69.27475541 39.97724407 -69.26951766 34.39079094 C-69.26639542 31.05178949 -69.26599555 27.71283468 -69.27259064 24.37384033 C-69.27764634 20.65278551 -69.26995891 16.93197411 -69.25878906 13.2109375 C-69.26283752 12.09918152 -69.26688599 10.98742554 -69.27105713 9.84197998 C-69.26541748 8.83242249 -69.25977783 7.82286499 -69.25396729 6.78271484 C-69.25321323 5.9022348 -69.25245918 5.02175476 -69.25168228 4.11459351 C-69 2 -69 2 -67 0 C-64.78515625 -0.25878906 -64.78515625 -0.25878906 -62.0625 -0.265625 C-60.59683594 -0.26949219 -60.59683594 -0.26949219 -59.1015625 -0.2734375 C-58.07804688 -0.26570313 -57.05453125 -0.25796875 -56 -0.25 C-54.97648438 -0.25773437 -53.95296875 -0.26546875 -52.8984375 -0.2734375 C-51.92132812 -0.27085937 -50.94421875 -0.26828125 -49.9375 -0.265625 C-49.03902344 -0.26336914 -48.14054688 -0.26111328 -47.21484375 -0.25878906 C-45 0 -45 0 -43 2 C-42.5859375 5.0390625 -42.5859375 5.0390625 -42.375 8.625 C-42.30023437 9.81351562 -42.22546875 11.00203125 -42.1484375 12.2265625 C-42.07496094 13.59941406 -42.07496094 13.59941406 -42 15 C-41.30777344 14.23816406 -41.30777344 14.23816406 -40.6015625 13.4609375 C-31.6488251 4.0127917 -13.19331667 -8.79554445 0 0 Z " fill="#F5F4F0" transform="translate(588,477)"/>
<path d="M0 0 C1.46566406 -0.00386719 1.46566406 -0.00386719 2.9609375 -0.0078125 C3.98445312 -0.00007813 5.00796875 0.00765625 6.0625 0.015625 C7.08601562 0.00789063 8.10953125 0.00015625 9.1640625 -0.0078125 C10.14117188 -0.00523437 11.11828125 -0.00265625 12.125 0 C13.02347656 0.00225586 13.92195312 0.00451172 14.84765625 0.00683594 C17.0625 0.265625 17.0625 0.265625 19.0625 2.265625 C19.31418228 4.38021851 19.31418228 4.38021851 19.31646729 7.04833984 C19.32210693 8.05789734 19.32774658 9.06745483 19.33355713 10.10760498 C19.32950867 11.21936096 19.32546021 12.33111694 19.32128906 13.4765625 C19.3247937 14.64407043 19.32829834 15.81157837 19.33190918 17.01446533 C19.33921754 20.22104608 19.33748455 23.42746247 19.33115101 26.63404083 C19.3260966 29.98568362 19.3307809 33.33732202 19.33392334 36.68896484 C19.33756462 42.31805398 19.33275966 47.94709069 19.32324219 53.57617188 C19.31235729 60.08933146 19.31588276 66.60236584 19.326895 73.11552238 C19.33596328 78.70197053 19.33725541 84.28838093 19.33201766 89.87483406 C19.32889542 93.21383551 19.32849555 96.55279032 19.33509064 99.89178467 C19.34014634 103.61283949 19.33245891 107.33365089 19.32128906 111.0546875 C19.32533752 112.16644348 19.32938599 113.27819946 19.33355713 114.42364502 C19.32791748 115.43320251 19.32227783 116.44276001 19.31646729 117.48291016 C19.31571323 118.3633902 19.31495918 119.24387024 19.31418228 120.15103149 C19.0625 122.265625 19.0625 122.265625 17.0625 124.265625 C14.84765625 124.52441406 14.84765625 124.52441406 12.125 124.53125 C11.14789062 124.53382813 10.17078125 124.53640625 9.1640625 124.5390625 C8.14054688 124.53132812 7.11703125 124.52359375 6.0625 124.515625 C5.03898438 124.52335938 4.01546875 124.53109375 2.9609375 124.5390625 C1.98382812 124.53648437 1.00671875 124.53390625 0 124.53125 C-0.89847656 124.52899414 -1.79695312 124.52673828 -2.72265625 124.52441406 C-4.9375 124.265625 -4.9375 124.265625 -6.9375 122.265625 C-7.18918228 120.15103149 -7.18918228 120.15103149 -7.19146729 117.48291016 C-7.19710693 116.47335266 -7.20274658 115.46379517 -7.20855713 114.42364502 C-7.20450867 113.31188904 -7.20046021 112.20013306 -7.19628906 111.0546875 C-7.1997937 109.88717957 -7.20329834 108.71967163 -7.20690918 107.51678467 C-7.21421754 104.31020392 -7.21248455 101.10378753 -7.20615101 97.89720917 C-7.2010966 94.54556638 -7.2057809 91.19392798 -7.20892334 87.84228516 C-7.21256462 82.21319602 -7.20775966 76.58415931 -7.19824219 70.95507812 C-7.18735729 64.44191854 -7.19088276 57.92888416 -7.201895 51.41572762 C-7.21096328 45.82927947 -7.21225541 40.24286907 -7.20701766 34.65641594 C-7.20389542 31.31741449 -7.20349555 27.97845968 -7.21009064 24.63946533 C-7.21514634 20.91841051 -7.20745891 17.19759911 -7.19628906 13.4765625 C-7.20033752 12.36480652 -7.20438599 11.25305054 -7.20855713 10.10760498 C-7.20291748 9.09804749 -7.19727783 8.08848999 -7.19146729 7.04833984 C-7.19071323 6.1678598 -7.18995918 5.28737976 -7.18918228 4.38021851 C-6.65174042 -0.13528038 -3.8499054 0.00966619 0 0 Z " fill="#F7F6F2" transform="translate(615.9375,476.734375)"/>
<path d="M0 0 C29.44322486 7.18887732 54.73260272 25.68314148 70.515625 51.6171875 C80.1398099 67.88493288 88.12305088 87.79145353 85.546875 107.0859375 C83.484375 110.4609375 83.484375 110.4609375 80.546875 112.0859375 C77.03761007 112.0859375 74.69027554 111.98586868 71.88208008 109.77563477 C70.29457709 107.76665539 70.06528204 106.5810767 69.80859375 104.05078125 C69.71408936 103.25019287 69.61958496 102.44960449 69.5222168 101.62475586 C69.37973511 100.33710327 69.37973511 100.33710327 69.234375 99.0234375 C65.90165838 73.58346968 54.03212159 51.88620917 34.546875 35.0859375 C19.08686656 23.30929216 1.48472247 16.94871618 -17.74609375 14.578125 C-21.21114178 13.94811627 -23.62298816 13.19278662 -25.765625 10.3359375 C-26.73619819 7.15951614 -26.44186957 5.24992012 -25.453125 2.0859375 C-18.84823103 -4.75135089 -8.47961817 -1.85747562 0 0 Z " fill="#33A1A4" transform="translate(266.453125,347.9140625)"/>
<path d="M0 0 C11.07645716 3.12712643 20.46285732 9.36739649 29 16.9375 C29.63550781 17.49050781 30.27101563 18.04351562 30.92578125 18.61328125 C42.82341963 29.6667413 50.82559376 46.64497743 51.5 62.8125 C51.38466142 67.02486538 51.17881825 68.64488832 48.9375 72.3125 C46 73.9375 46 73.9375 42.375 74 C38.51550716 72.78497448 37.94677136 72.36598067 36 68.9375 C35.19007254 66.0758311 34.66771836 63.17232961 34.125 60.25 C32.71389437 53.40382664 31.19072071 47.65515885 27 41.9375 C26.4121875 41.12152344 25.824375 40.30554688 25.21875 39.46484375 C14.93646261 25.93873951 4.37116059 19.17075463 -12.31201172 16.54394531 C-17.64982204 15.6102366 -20.55922038 14.42487859 -24 9.9375 C-24.81252952 6.0373583 -24.32483711 4.49092618 -22.3125 1.0625 C-15.69066003 -3.18547281 -7.4116381 -1.56500725 0 0 Z " fill="#33A0A3" transform="translate(264,386.0625)"/>
<path d="M0 0 C0.51664136 10.2371528 -0.72089884 18.0313672 -7.26953125 26.1484375 C-13.95350193 33.30013525 -21.22287745 37.05673266 -31 37.4375 C-37.92190835 37.24522477 -42.59645049 35.53005212 -47.375 30.5 C-51.19845681 24.61775876 -51.80260557 19.9999397 -51 13 C-48.63668243 7.80070134 -45.16442957 5.20875397 -40 3 C-27.4648227 -1.25300658 -13.09904889 -0.14429797 0 0 Z " fill="#0B0B0A" transform="translate(860,545)"/>
<path d="M0 0 C4.74424521 2.63569178 7.61931493 5.6079448 9.375 10.875 C10.21366758 16.9493495 9.27859479 21.02373946 5.95703125 26.1484375 C3.17193125 29.18797874 0.55974645 30.69800558 -3.52734375 31.30859375 C-8.20891954 31.31461894 -11.7815495 31.23647879 -16.125 29.375 C-20.31552831 25.18447169 -22.79798214 20.75340523 -23.0625 14.75 C-22.43352676 9.17909416 -20.82980287 5.72339802 -16.625 2.0625 C-11.19586295 -1.89624577 -6.3457207 -1.9693616 0 0 Z " fill="#F5F4F0" transform="translate(628.625,429.125)"/>
<path d="M0 0 C4.31646551 2.28518762 7.0976625 4.45552709 9 9 C9.54957375 13.31807946 9.2941115 15.44328894 7.25 19.3125 C3.87891094 23.3390786 2.353706 23.84716223 -2.875 24.4375 C-7.66712268 24.33897037 -9.72173592 22.35822174 -13 19 C-14.85832776 15.28334448 -14.57993204 11.0467785 -14 7 C-10.12376843 1.97137526 -6.43819141 -0.75743428 0 0 Z " fill="#0A0B0A" transform="translate(187,523)"/>
<path d="M0 0 C2.53105516 3.79658274 2.29554437 6.84771196 2.29052734 11.24755859 C2.30060318 12.50900948 2.30060318 12.50900948 2.31088257 13.79594421 C2.32990363 16.5801685 2.33378887 19.36415225 2.3359375 22.1484375 C2.34236275 24.08273417 2.3490909 26.01702986 2.35610962 27.95132446 C2.36809279 32.00826267 2.37178939 36.06511565 2.37060547 40.12207031 C2.37040226 45.31980739 2.39770164 50.51699781 2.43214989 55.71460533 C2.45439164 59.71062732 2.45844384 63.70651721 2.45738602 67.70259476 C2.45974619 69.61874907 2.4685931 71.5349068 2.48405075 73.45100021 C2.50365499 76.13227308 2.49789476 78.81236023 2.48583984 81.49365234 C2.49707886 82.28447708 2.50831787 83.07530182 2.51989746 83.89009094 C2.47711763 87.63604836 2.1297594 89.79487453 0.10780334 92.99121094 C-2.32393609 95.30871916 -3.28317547 95.64031014 -6.58984375 95.6640625 C-7.45673828 95.67050781 -8.32363281 95.67695312 -9.21679688 95.68359375 C-10.11462891 95.66425781 -11.01246094 95.64492188 -11.9375 95.625 C-12.83146484 95.64433594 -13.72542969 95.66367187 -14.64648438 95.68359375 C-19.18434829 95.64990508 -21.35779973 95.48002025 -25.078125 92.69921875 C-27.40290435 89.4341323 -27.76695543 86.96175766 -28 83 C-26.515 82.01 -26.515 82.01 -25 81 C-24.93941406 81.71027344 -24.87882813 82.42054688 -24.81640625 83.15234375 C-24.73261719 84.07144531 -24.64882813 84.99054688 -24.5625 85.9375 C-24.48128906 86.85402344 -24.40007813 87.77054688 -24.31640625 88.71484375 C-24.23955024 90.96159732 -24.23955024 90.96159732 -23 92 C-21.45044441 92.09899523 -19.89646327 92.13079524 -18.34375 92.1328125 C-17.40402344 92.13410156 -16.46429687 92.13539063 -15.49609375 92.13671875 C-14.01302734 92.13091797 -14.01302734 92.13091797 -12.5 92.125 C-11.01693359 92.13080078 -11.01693359 92.13080078 -9.50390625 92.13671875 C-8.56417969 92.13542969 -7.62445312 92.13414062 -6.65625 92.1328125 C-5.35397461 92.13112061 -5.35397461 92.13112061 -4.02539062 92.12939453 C-2.00395846 92.2241537 -2.00395846 92.2241537 -1 91 C-0.87476921 88.17039282 -0.81390772 85.36400663 -0.79467773 82.53295898 C-0.77982834 81.20137756 -0.77982834 81.20137756 -0.76467896 79.84289551 C-0.73296516 76.89398918 -0.70826766 73.94506671 -0.68359375 70.99609375 C-0.66303274 68.9572761 -0.64203651 66.91846279 -0.62062073 64.87965393 C-0.5653119 59.50220245 -0.51594162 54.12471194 -0.46777344 48.74719238 C-0.41762258 43.26436879 -0.36190311 37.78160216 -0.30664062 32.29882812 C-0.19895135 21.5326007 -0.09753046 10.7663239 0 0 Z " fill="#000000" transform="translate(885,508)"/>
<path d="M0 0 C3.62493334 -0.05787784 7.24974857 -0.0935542 10.875 -0.125 C11.90753906 -0.14175781 12.94007813 -0.15851562 14.00390625 -0.17578125 C14.99003906 -0.18222656 15.97617187 -0.18867187 16.9921875 -0.1953125 C18.35899658 -0.21102295 18.35899658 -0.21102295 19.75341797 -0.22705078 C22 0 22 0 24 2 C24.39458485 8.95784624 22.15458442 14.92559094 19 21 C18.34 20.34 17.68 19.68 17 19 C17.66 17.02 18.32 15.04 19 13 C19.66 13 20.32 13 21 13 C21 9.7 21 6.4 21 3 C10.605 3.495 10.605 3.495 0 4 C0 2.68 0 1.36 0 0 Z " fill="#EEEDEB" transform="translate(746,560)"/>
<path d="M0 0 C0.66 0 1.32 0 2 0 C2.08710289 3.10398978 2.14042309 6.20766548 2.1875 9.3125 C2.21263672 10.19357422 2.23777344 11.07464844 2.26367188 11.98242188 C2.27333984 12.82998047 2.28300781 13.67753906 2.29296875 14.55078125 C2.3086792 15.33106689 2.32438965 16.11135254 2.34057617 16.9152832 C2 19 2 19 0.73168945 20.77807617 C-1 22 -1 22 -5 22 C-5 21.34 -5 20.68 -5 20 C-22.16 20 -39.32 20 -57 20 C-57 19.67 -57 19.34 -57 19 C-38.52 19 -20.04 19 -1 19 C-0.67 12.73 -0.34 6.46 0 0 Z " fill="#E2E1DD" transform="translate(485,506)"/>
<path d="M0 0 C0.66 0.33 1.32 0.66 2 1 C-2.75 4 -2.75 4 -5 4 C-4.98428955 4.58378418 -4.9685791 5.16756836 -4.95239258 5.76904297 C-4.88917972 8.47092595 -4.85074077 11.17265259 -4.8125 13.875 C-4.77479492 15.25171875 -4.77479492 15.25171875 -4.73632812 16.65625 C-4.66504395 23.40448556 -4.85353799 31.50839892 -9.60473633 36.78076172 C-10.06517334 37.18311035 -10.52561035 37.58545898 -11 38 C-10.814375 37.0925 -10.62875 36.185 -10.4375 35.25 C-10.04265379 32.31685676 -10.05308428 30.7355343 -11 28 C-9.68 27.34 -8.36 26.68 -7 26 C-7 18.74 -7 11.48 -7 4 C-4.69 2.68 -2.38 1.36 0 0 Z " fill="#39B2B4" transform="translate(307,557)"/>
<path d="M0 0 C3.4165052 -0.08724706 6.83272313 -0.14047325 10.25 -0.1875 C11.70212891 -0.22520508 11.70212891 -0.22520508 13.18359375 -0.26367188 C14.58544922 -0.27817383 14.58544922 -0.27817383 16.015625 -0.29296875 C16.87446289 -0.3086792 17.73330078 -0.32438965 18.61816406 -0.34057617 C21.52980375 0.07575607 22.86972941 1.00451505 25 3 C25.828125 5.375 25.828125 5.375 26.25 8 C26.39953125 8.86625 26.5490625 9.7325 26.703125 10.625 C27 13 27 13 27 16 C25.5 17.6875 25.5 17.6875 24 19 C23.93941406 17.92878906 23.87882813 16.85757812 23.81640625 15.75390625 C23.73201463 14.35675609 23.64736594 12.95962143 23.5625 11.5625 C23.52318359 10.85544922 23.48386719 10.14839844 23.44335938 9.41992188 C23.52375562 5.91309581 23.52375562 5.91309581 22 3 C20.29436222 2.84259395 18.58272756 2.74906608 16.87109375 2.68359375 C15.83662109 2.64169922 14.80214844 2.59980469 13.73632812 2.55664062 C12.64771484 2.51732422 11.55910156 2.47800781 10.4375 2.4375 C9.34501953 2.39431641 8.25253906 2.35113281 7.12695312 2.30664062 C4.41810436 2.20017932 1.70916008 2.09816484 -1 2 C-0.67 1.34 -0.34 0.68 0 0 Z " fill="#010101" transform="translate(521,475)"/>
<path d="M0 0 C3.51668742 3.51668742 3.23019739 7.62002853 3.375 12.4375 C3.33077238 16.8062063 3.25404792 18.58428523 0.9375 22.375 C-2 24 -2 24 -5.6875 24.0625 C-9 23 -9 23 -10.4375 20.9375 C-10.623125 20.298125 -10.80875 19.65875 -11 19 C-9.515 19.99 -9.515 19.99 -8 21 C-5.66800612 21.07905064 -3.33167378 21.08798769 -1 21 C-1 17.58012972 -1.47254343 15.05491313 -3 12 C-2.01 11.34 -1.02 10.68 0 10 C0.36416047 7.56306689 0.36416047 7.56306689 0.1875 4.875 C0.14689453 3.50988281 0.14689453 3.50988281 0.10546875 2.1171875 C0.05326172 1.06917969 0.05326172 1.06917969 0 0 Z " fill="#3AB6BA" transform="translate(312,436)"/>
<path d="M0 0 C0 0.33 0 0.66 0 1 C-12.87 0.505 -12.87 0.505 -26 0 C-26 0.66 -26 1.32 -26 2 C-28.31 2.33 -30.62 2.66 -33 3 C-33.33 2.01 -33.66 1.02 -34 0 C-22.84564275 -2.64679664 -11.00902883 -3.59362081 0 0 Z " fill="#E3E3E1" transform="translate(852,476)"/>
<path d="M0 0 C0.33 0 0.66 0 1 0 C1 7.26 1 14.52 1 22 C0.34 22 -0.32 22 -1 22 C-1.33 22.66 -1.66 23.32 -2 24 C-2.05425013 21.12474331 -2.09379277 18.25052354 -2.125 15.375 C-2.14175781 14.56675781 -2.15851562 13.75851562 -2.17578125 12.92578125 C-2.21420986 8.19906185 -1.82737094 4.44612298 0 0 Z " fill="#111111" transform="translate(656,524)"/>
<path d="M0 0 C1.11890625 -0.01417969 2.2378125 -0.02835937 3.390625 -0.04296875 C6.82764584 0.19282687 9.54530445 0.95903337 12.75 2.1875 C12.42 2.8475 12.09 3.5075 11.75 4.1875 C8.97829605 4.07363541 6.20821954 3.94689222 3.4375 3.8125 C2.65181641 3.7815625 1.86613281 3.750625 1.05664062 3.71875 C0.29931641 3.68007813 -0.45800781 3.64140625 -1.23828125 3.6015625 C-1.93477783 3.5701416 -2.63127441 3.5387207 -3.34887695 3.50634766 C-5.25 3.1875 -5.25 3.1875 -8.25 1.1875 C-5.45940838 -0.20779581 -3.11268312 0.01776646 0 0 Z " fill="#E1E0DD" transform="translate(715.25,494.8125)"/>
<path d="M0 0 C1.2065625 0.2475 1.2065625 0.2475 2.4375 0.5 C4.77051986 0.53824623 7.10461508 0.54574284 9.4375 0.5 C9.1075 1.16 8.7775 1.82 8.4375 2.5 C5.70826612 2.5270817 2.97930363 2.54687847 0.25 2.5625 C-0.51892578 2.57087891 -1.28785156 2.57925781 -2.08007812 2.58789062 C-6.04776789 2.60491934 -9.68821234 2.48604115 -13.5625 1.5 C-9.26073308 -1.36784461 -4.92253745 -0.96049511 0 0 Z " fill="#EAEAE8" transform="translate(716.5625,601.5)"/>
<path d="M0 0 C-0.928125 0.433125 -1.85625 0.86625 -2.8125 1.3125 C-5.91345911 2.75416261 -5.91345911 2.75416261 -7.625 4.625 C-9 6 -9 6 -10.8125 6.375 C-14.24675611 7.35621603 -16.34406885 9.64587921 -19 12 C-16.48374777 6.31695228 -11.83600675 2.64795535 -6.25 0.0625 C-3 -1 -3 -1 0 0 Z " fill="#309497" transform="translate(143,411)"/>
<path d="M0 0 C4.45920153 5.94560204 4.14054346 10.83228366 4 18 C3.01 18 2.02 18 1 18 C0.67 12.06 0.34 6.12 0 0 Z " fill="#EBEBE7" transform="translate(859,509)"/>
<path d="M0 0 C0.66 0.33 1.32 0.66 2 1 C2.08333357 5.8333472 1.95261487 10.23692563 1 15 C0.01 15 -0.98 15 -2 15 C-1.85816304 13.24967156 -1.71136571 11.49974466 -1.5625 9.75 C-1.48128906 8.77546875 -1.40007813 7.8009375 -1.31640625 6.796875 C-1.04925416 4.43538247 -0.64628032 2.28098935 0 0 Z " fill="#ECEBE9" transform="translate(659,515)"/>
<path d="M0 0 C1.98828125 -0.328125 1.98828125 -0.328125 4.3125 -0.25 C5.11171875 -0.22421875 5.9109375 -0.1984375 6.734375 -0.171875 C9.21879552 0.01659828 11.58641295 0.37713883 14 1 C14 1.33 14 1.66 14 2 C8.63904667 3.12862175 3.44693314 3.09688221 -2 3 C-1.34 2.01 -0.68 1.02 0 0 Z " fill="#10100F" transform="translate(830,525)"/>
<path d="M0 0 C0.66 0.33 1.32 0.66 2 1 C1.58427734 1.8353125 1.58427734 1.8353125 1.16015625 2.6875 C-0.7108301 6.62922212 -2.19304475 10.06025843 -2.5625 14.4375 C-2.7790625 16.2009375 -2.7790625 16.2009375 -3 18 C-3.99 18.66 -4.98 19.32 -6 20 C-5.57534294 12.63927766 -3.01651083 6.67862176 0 0 Z " fill="#181918" transform="translate(689,512)"/>
<path d="M0 0 C3.2578125 -0.29296875 3.2578125 -0.29296875 7.125 -0.1875 C9.04699219 -0.14689453 9.04699219 -0.14689453 11.0078125 -0.10546875 C11.99523437 -0.07066406 12.98265625 -0.03585937 14 0 C13 2 13 2 11.296875 2.62109375 C8.57835155 3.06955765 6.00442923 3.09529082 3.25 3.0625 C2.26515625 3.05347656 1.2803125 3.04445313 0.265625 3.03515625 C-0.48203125 3.02355469 -1.2296875 3.01195312 -2 3 C-1.34 2.01 -0.68 1.02 0 0 Z " fill="#ECEBE7" transform="translate(838,527)"/>
<path d="M0 0 C0.33 0.66 0.66 1.32 1 2 C-0.051875 2.0825 -1.10375 2.165 -2.1875 2.25 C-6.27047209 3.05320762 -8.0122727 4.19334709 -11 7 C-11.33 6.01 -11.66 5.02 -12 4 C-7.81413519 0.81076967 -5.29441695 -0.50423019 0 0 Z " fill="#0E1818" transform="translate(187,523)"/>
<path d="M0 0 C0 0.99 0 1.98 0 3 C-1.60226955 3.22245393 -3.20696767 3.42746669 -4.8125 3.625 C-5.70582031 3.74101563 -6.59914063 3.85703125 -7.51953125 3.9765625 C-10 4 -10 4 -13 2 C-11.39658445 1.66307215 -9.79223445 1.33058907 -8.1875 1 C-7.29417969 0.814375 -6.40085937 0.62875 -5.48046875 0.4375 C-3 0 -3 0 0 0 Z " fill="#151515" transform="translate(738,601)"/>
<path d="M0 0 C-0.33 0.66 -0.66 1.32 -1 2 C-2.99609375 2.484375 -2.99609375 2.484375 -5.4375 2.75 C-6.64212891 2.89695312 -6.64212891 2.89695312 -7.87109375 3.046875 C-10 3 -10 3 -12 1 C-3.96428571 -1.27678571 -3.96428571 -1.27678571 0 0 Z " fill="#E4E4E1" transform="translate(709,475)"/>
<path d="M0 0 C1.2375 -0.04125 2.475 -0.0825 3.75 -0.125 C4.79414063 -0.15980469 4.79414063 -0.15980469 5.859375 -0.1953125 C8.30155975 0.02751458 9.88636771 0.79085 12 2 C10.98679688 2.09087891 10.98679688 2.09087891 9.953125 2.18359375 C9.06109375 2.26738281 8.1690625 2.35117187 7.25 2.4375 C6.36828125 2.51871094 5.4865625 2.59992188 4.578125 2.68359375 C2.30649548 2.96238465 0.20148177 3.38790577 -2 4 C-2 3.34 -2 2.68 -2 2 C-1.34 2 -0.68 2 0 2 C0 1.34 0 0.68 0 0 Z " fill="#0B1212" transform="translate(175,506)"/>
<path d="M0 0 C-0.763125 0.226875 -1.52625 0.45375 -2.3125 0.6875 C-5.54736301 2.26731682 -6.41641358 3.83282717 -8 7 C-8.66 6.67 -9.32 6.34 -10 6 C-9.875 4.1875 -9.875 4.1875 -9 2 C-3.81203008 -1.27067669 -3.81203008 -1.27067669 0 0 Z " fill="#39B9BC" transform="translate(178,510)"/>
<path d="M0 0 C0.66 0.33 1.32 0.66 2 1 C1.67 1.99 1.34 2.98 1 4 C-2.3 3.01 -5.6 2.02 -9 1 C-4.80184617 -1.09907691 -4.20805526 -1.21812126 0 0 Z " fill="#10100F" transform="translate(731,500)"/>
<path d="M0 0 C4.41889613 1.35021826 6.34345343 3.26115668 9 7 C2.29787234 5.06382979 2.29787234 5.06382979 0 2 C0 1.34 0 0.68 0 0 Z " fill="#EBEBE9" transform="translate(627,429)"/>
<path d="M0 0 C0.45375 0.61875 0.9075 1.2375 1.375 1.875 C2.97108919 4.05919833 2.97108919 4.05919833 5 6 C5.66 6 6.32 6 7 6 C7 7.65 7 9.3 7 11 C3.78397182 8.63029503 1.35875408 6.82921605 0 3 C0 2.01 0 1.02 0 0 Z " fill="#3DC1C4" transform="translate(159,544)"/>
<path d="M0 0 C0.33 0 0.66 0 1 0 C1.33 4.29 1.66 8.58 2 13 C1.01 13 0.02 13 -1 13 C-0.67 8.71 -0.34 4.42 0 0 Z " fill="#112929" transform="translate(320,532)"/>
<path d="M0 0 C2.4375 0.75 2.4375 0.75 4.4375 2.75 C0.50079512 4.06223496 -1.68738144 2.99296256 -5.5625 1.75 C-2.5625 -0.25 -2.5625 -0.25 0 0 Z " fill="#EDEDEA" transform="translate(860.5625,478.25)"/>
<path d="M0 0 C0 0.66 0 1.32 0 2 C1.32 2.33 2.64 2.66 4 3 C-0.25061356 4.41687119 -2.71851625 3.19320039 -7 2 C-4 0 -4 0 0 0 Z " fill="#191918" transform="translate(857,474)"/>
<path d="M0 0 C1.99097846 2.98646769 2.94124926 5.59687262 4 9 C2.0625 8.375 2.0625 8.375 0 7 C-0.8125 3.9375 -0.8125 3.9375 -1 1 C-0.67 0.67 -0.34 0.34 0 0 Z " fill="#111111" transform="translate(659,561)"/>
<path d="M0 0 C1.65 0.33 3.3 0.66 5 1 C5 1.99 5 2.98 5 4 C2.03 3.505 2.03 3.505 -1 3 C-0.67 2.01 -0.34 1.02 0 0 Z " fill="#EEEDEA" transform="translate(735,476)"/>
</svg>
