<?xml version="1.0" encoding="UTF-8"?>
<svg version="1.1" viewBox="0 0 1024 1024" width="1024" height="1024" xmlns="http://www.w3.org/2000/svg">
<path transform="translate(123,406)" d="m0 0h111l6 5 1 3v7l-5 6-2 1-110 1-8 3-8 9-2 6-1 32 1 136 4 10 9 8 9 3h161l11-4 8-7 4-8 2-10-6-2-9-7-6-9-1-4-81 1-5 10-6 7-10 6-6 2h-14l-9-3-9-7-6-8-3-8v-16l4-11 9-10 9-5 4-1h14l11 3 17-17 7-8 15-15-1-5-2-8v-10l4-13 6-8 7-6 10-4 11-1 11 2 10 6 5 5 6 8 3 9v15l-4 11-4 6-9 8-8 3-12 1-10-2-6-2-15 15-7 8-11 11-5 6-1 3 80-1 4-7 4-5 10-6 6-2h15l11 4 9 7 6 10 2 7v11l-3 10-6 8-7 6-4 2-3 15-7 14-7 8-10 7-14 5-5 1h-169l-15-5-11-8-6-7-5-10-3-11v-168l2-10 4-9 6-8 9-8 13-6zm50 155-7 4-4 7v8l3 6 5 4 2 1h11l5-3 4-5 1-10-3-6-6-5-2-1z" fill="#229A8F"/>
<path transform="translate(464,442)" d="m0 0h92l5 4 1 2v17l-3 5-3 2-63 1-3 3v37l57 1 5 3 2 9-1 11-5 5-55 1-3 2v35l3 2 63 1 5 5 1 3v13l-3 5-3 2h-92l-5-3-2-3v-157l4-5z" fill="#229A8F"/>
<path transform="translate(896,489)" d="m0 0h20l15 4 10 6 8 7 6 10 3 11v80l-3 3-2 1h-18l-5-3-2-6-17 9-10 2h-12l-12-3-10-6-7-7-5-11-1-13 4-13 4-6 9-8 12-5 11-2 31-1v-11l-4-8-6-4-3-1h-13l-6 3-4 5-3 6-1 1h-22l-4-4 1-9 6-11 10-9 11-5zm6 71-9 2-6 4-3 5v10l6 7 6 2h11l10-4 6-5 3-7v-14z" fill="#229A8F"/>
<path transform="translate(779,489)" d="m0 0h19l12 3 12 6 10 9 6 10 1 2v7l-4 3-22 1-8-9-7-4-4-1h-12l-10 4-8 9-4 11-1 15 2 11 5 9 3 3v2l5 2 6 3 12 1 10-3 6-5 6-7h10l11 1 4 3v8l-5 9-9 10-10 6-11 4-6 1h-18l-16-4-11-6-10-9-7-10-5-13-2-9v-22l4-16 6-11 9-10 10-7 12-5z" fill="#239C91"/>
<path transform="translate(645,490)" d="m0 0h8l4 2 2 3v17l-5 5-16 4-9 5-6 7-3 6-1 5-1 59-2 5-4 3h-20l-5-5v-111l5-4h20l5 4 1 9 4-2 10-7 9-4z" fill="#239E93"/>
<path transform="translate(273,362)" d="m0 0h16l18 3 17 6 17 9 14 11 13 13 11 15 10 18 7 19 3 15v7l-4 6-2 1h-10l-5-4-4-15-5-15-8-16-10-14-9-10-14-11-17-9-13-4-27-3-5-5-1-2v-7l4-6z" fill="#249F94"/>
<path transform="translate(686,491)" d="m0 0h21l5 5v109l-2 4-4 2h-19l-4-2-2-4v-109z" fill="#22988D"/>
<path transform="translate(272,402)" d="m0 0h12l15 4 14 7 11 8 9 9 9 13 7 15 3 11v11l-5 5h-11l-5-5-4-15-8-15-10-11-10-7-11-5-18-4-4-5-1-7 3-6z" fill="#22998E"/>
<path transform="translate(691,442)" d="m0 0h9l8 4 4 5 2 5v10l-3 6-7 6-6 2-10-1-6-4-4-5-2-6 1-10 4-6 5-4z" fill="#22998E"/>
<path transform="translate(273,362)" d="m0 0h16l18 3 17 6 17 9 14 11 13 13 11 15 10 18 7 19 3 15v7l-4 6-2 1h-10l-5-4-4-15-5-15-8-16-10-14-9-10-14-11-17-9-13-4-27-3-5-5-1-2v-7l4-6zm4 1-7 2-3 4v8l4 5 2 1 16 1 18 4 15 7 10 6 7 6h2v2l7 6 11 14 9 16 6 15 5 19 4 4 7 1 5-2 2-3v-11l-4-16-5-13-7-14-9-13-8-10-12-12-19-13-13-6-19-6-6-1z" fill="#197A6F"/>
<path transform="translate(645,490)" d="m0 0h8l2 2h-8l-12 4-9 6-6 5h-4l-1-10-4-4h-17l-4 2-1 3v107l3 3 8 1 13-1 2-3 1-60 3-10 6-8 6-5 12-5 12-3 2-3v-17l2 1v17l-5 5-16 4-9 5-6 7-3 6-1 5-1 59-2 5-4 3h-20l-5-5v-111l5-4h20l5 4 1 9 4-2 10-7 9-4z" fill="#197A6F"/>
<path transform="translate(123,406)" d="m0 0h111l6 5 1 3v7l-5 6-2 1-110 1-8 3-3 3h-2l1-3 10-5 6-1 107-1 3-4v-8l-3-4-4-1h-98l-14 1-5 1 3-3z" fill="#177469"/>
<path transform="translate(737,517)" d="m0 0 1 2-5 13-2 13v12l2 12 4 11 3 6 7 9 10 8 11 5 13 3h15l16-4 9-5 9-8 6-10 1-7-1-2-7-1h-15l-9 10-10 4h-12l-9-3-4-4 10 4 12 1 10-3 6-5 6-7h10l11 1 4 3v8l-5 9-9 10-10 6-11 4-6 1h-18l-16-4-11-6-10-9-7-10-5-13-2-9v-22l4-16z" fill="#18796E"/>
<path transform="translate(273,362)" d="m0 0h16l18 3 17 6 17 9 14 11 13 13 11 15 4 7-1 2-8-12-10-13-12-12-19-13-13-6-19-6-6-1-18-1-7 2-2 3v8l5 5 16 1 18 4 4 3-10-2-9-2-21-2-5-5-1-2v-7l4-6z" fill="#18776C"/>
<path transform="translate(297,468)" d="m0 0 3 3 3 9v15l-4 11-4 6-9 8-8 3-12 1-10-2-6-2-15 15-2 3h-2l2-4 16-16 7 1 6 2h14l10-4 8-7 5-10 2-8v-9l-4-13z" fill="#18786D"/>
<path transform="translate(645,490)" d="m0 0h8l2 2h-8l-12 4-9 6-6 5h-4l-1-10-2-5 4 3 1 9 4-2 10-7 9-4z" fill="#18776C"/>
<path transform="translate(249,518)" d="m0 0 7 1 4 2-1 2-9-3-15 15-2 3h-2l2-4z" fill="#17766B"/>
<path transform="translate(273,362)" d="m0 0 2 1-6 4-1 2v8l4 5-1 2-5-5-1-2v-7l4-6z" fill="#197B70"/>
</svg>
