<?xml version="1.0" encoding="UTF-8"?>
<!DOCTYPE svg PUBLIC "-//W3C//DTD SVG 1.1//EN" "http://www.w3.org/Graphics/SVG/1.1/DTD/svg11.dtd">
<svg xmlns="http://www.w3.org/2000/svg" version="1.1" width="1024px" height="1024px" style="shape-rendering:geometricPrecision; text-rendering:geometricPrecision; image-rendering:optimizeQuality; fill-rule:evenodd; clip-rule:evenodd" xmlns:xlink="http://www.w3.org/1999/xlink">
<g><path style="opacity:0.361" fill="#f4f4f4" d="M 494.5,135.5 C 546.184,135.285 596.184,143.118 644.5,159C 770.246,210.708 848.079,302.541 878,434.5C 898.75,557.031 868.25,665.031 786.5,758.5C 692.077,855.335 577.744,893.502 443.5,873C 330.628,849.586 244.461,788.086 185,688.5C 131.169,588.288 123.169,484.288 161,376.5C 211.258,252.221 301.424,174.721 431.5,144C 444.977,142.257 458.31,140.257 471.5,138C 478.5,137.667 485.5,137.333 492.5,137C 493.416,136.722 494.082,136.222 494.5,135.5 Z"/></g>
<g><path style="opacity:1" fill="#0e0e0e" d="M 497.5,138.5 C 613.008,137.029 710.174,178.029 789,261.5C 867.745,354.796 896.079,461.796 874,582.5C 846.321,699.482 779.155,785.315 672.5,840C 569.546,886.685 465.88,888.352 361.5,845C 256.646,796.143 187.48,716.309 154,605.5C 121.98,473.252 150.647,356.252 240,254.5C 310.64,182.605 396.473,143.939 497.5,138.5 Z"/></g>
<g><path style="opacity:1" fill="#0e9b9b" d="M 310.5,400.5 C 351.984,401.805 379.484,422.139 393,461.5C 395.301,469.02 395.968,476.686 395,484.5C 391.341,488.115 387.341,488.448 383,485.5C 380.55,462.094 370.383,442.927 352.5,428C 339.427,419.531 325.093,414.865 309.5,414C 305.285,409.134 305.618,404.634 310.5,400.5 Z"/></g>
<g><path style="opacity:1" fill="#0e9b9b" d="M 307.5,430.5 C 340.625,431.293 360.292,447.959 366.5,480.5C 366.656,488.102 362.989,490.935 355.5,489C 354.667,488.167 353.833,487.333 353,486.5C 351.582,469.098 343.082,456.598 327.5,449C 320.439,447.152 313.439,445.152 306.5,443C 302.309,438.46 302.642,434.293 307.5,430.5 Z"/></g>
<g><path style="opacity:1" fill="#0e9b9b" d="M 231.5,439.5 C 249.503,439.333 267.503,439.5 285.5,440C 289.629,442.631 290.462,446.131 288,450.5C 287.25,451.126 286.416,451.626 285.5,452C 267.5,452.333 249.5,452.667 231.5,453C 228.265,454.36 225.765,456.527 224,459.5C 222.851,478.604 222.351,497.771 222.5,517C 222.667,535.167 222.833,553.333 223,571.5C 224.579,577.41 228.412,580.91 234.5,582C 266.5,582.667 298.5,582.667 330.5,582C 337.132,581.364 341.298,577.864 343,571.5C 343.829,566.136 343.663,560.802 342.5,555.5C 337.364,553.531 333.698,550.031 331.5,545C 316.504,544.5 301.504,544.333 286.5,544.5C 283.585,554.309 276.918,559.309 266.5,559.5C 251.796,557.628 244.962,549.295 246,534.5C 248.167,525.667 253.667,520.167 262.5,518C 266.507,517.287 270.34,517.787 274,519.5C 280.333,512.5 286.667,505.5 293,498.5C 287.123,483.127 291.623,471.96 306.5,465C 324.865,463.699 333.698,472.199 333,490.5C 331.192,496.955 327.359,501.788 321.5,505C 315.201,506.665 308.868,506.998 302.5,506C 296.112,512.717 290.112,519.717 284.5,527C 285.484,528.657 286.484,530.323 287.5,532C 302.167,532.667 316.833,532.667 331.5,532C 337.9,520.233 347.233,517.233 359.5,523C 368.699,531.117 369.865,540.284 363,550.5C 360.667,552.167 358.333,553.833 356,555.5C 355.849,562.896 355.182,570.229 354,577.5C 350.032,587.131 342.865,592.631 332.5,594C 299.167,594.667 265.833,594.667 232.5,594C 219.212,591.712 211.712,583.879 210,570.5C 209.333,534.5 209.333,498.5 210,462.5C 210.994,456.847 213.327,451.847 217,447.5C 221.397,443.888 226.23,441.221 231.5,439.5 Z"/></g>
<g><path style="opacity:1" fill="#f7f7f7" d="M 443.5,459.5 C 464.836,459.333 486.169,459.5 507.5,460C 508,460.5 508.5,461 509,461.5C 509.667,466.5 509.667,471.5 509,476.5C 508.5,477 508,477.5 507.5,478C 492.5,478.333 477.5,478.667 462.5,479C 461.167,489.333 461.167,499.667 462.5,510C 475.833,510.333 489.167,510.667 502.5,511C 503.776,513.724 504.442,516.724 504.5,520C 504.478,523.086 504.145,526.086 503.5,529C 489.833,529.333 476.167,529.667 462.5,530C 461.348,540.09 461.181,550.256 462,560.5C 477.426,561.325 492.926,561.825 508.5,562C 509.766,564.383 510.432,567.05 510.5,570C 510.333,572.5 510.167,575 510,577.5C 509.5,578 509,578.5 508.5,579C 486.492,579.833 464.492,579.666 442.5,578.5C 441.34,539.541 441.173,500.541 442,461.5C 442.717,460.956 443.217,460.289 443.5,459.5 Z"/></g>
<g><path style="opacity:1" fill="#f6f6f6" d="M 599.5,458.5 C 612.956,459.583 616.623,466.083 610.5,478C 602.479,482.49 595.979,480.99 591,473.5C 589.733,466.021 592.566,461.021 599.5,458.5 Z"/></g>
<g><path style="opacity:1" fill="#f9f9f9" d="M 634.5,459.5 C 640.425,459.192 646.259,459.525 652,460.5C 652.167,483.507 652.667,506.507 653.5,529.5C 664.375,517.613 675.375,505.78 686.5,494C 692.5,493.333 698.5,493.333 704.5,494C 706.968,495.588 707.134,497.422 705,499.5C 694.619,509.379 684.786,519.713 675.5,530.5C 686.526,545.026 697.36,559.693 708,574.5C 708.72,576.112 708.554,577.612 707.5,579C 700.833,579.667 694.167,579.667 687.5,579C 678.61,566.706 669.61,554.539 660.5,542.5C 657.478,544.688 654.978,547.355 653,550.5C 652.667,559.833 652.333,569.167 652,578.5C 646.584,579.639 641.084,579.806 635.5,579C 635,578.5 634.5,578 634,577.5C 633.173,538.096 633.34,498.762 634.5,459.5 Z"/></g>
<g><path style="opacity:1" fill="#f9f9f9" d="M 594.5,493.5 C 600.093,493.193 605.593,493.527 611,494.5C 611.828,522.739 611.661,550.905 610.5,579C 605.167,579.667 599.833,579.667 594.5,579C 594,578.5 593.5,578 593,577.5C 592.333,550.167 592.333,522.833 593,495.5C 593.717,494.956 594.217,494.289 594.5,493.5 Z"/></g>
<g><path style="opacity:1" fill="#f8f8f8" d="M 748.5,492.5 C 757.76,491.807 766.76,492.973 775.5,496C 781.723,499.223 786.223,504.057 789,510.5C 790.136,522.266 790.636,534.099 790.5,546C 790.333,556.833 790.167,567.667 790,578.5C 789.5,579 789,579.5 788.5,580C 783.5,580.667 778.5,580.667 773.5,580C 773,579.5 772.5,579 772,578.5C 771.667,575.833 771.333,573.167 771,570.5C 761.795,580.012 750.628,583.512 737.5,581C 721.684,575.881 715.184,565.047 718,548.5C 720.904,539.93 726.737,534.43 735.5,532C 747.114,530.193 758.781,528.86 770.5,528C 772.718,512.727 766.051,506.394 750.5,509C 745.407,511.091 742.074,514.758 740.5,520C 734.422,519.932 728.422,519.099 722.5,517.5C 721.793,510.12 724.46,504.286 730.5,500C 736.149,496.402 742.149,493.902 748.5,492.5 Z"/></g>
<g><path style="opacity:1" fill="#f6f6f6" d="M 566.5,493.5 C 570.106,493.211 573.606,493.544 577,494.5C 577.667,500.167 577.667,505.833 577,511.5C 567.212,510.565 558.879,513.565 552,520.5C 550.092,523.215 548.759,526.215 548,529.5C 547.667,545.833 547.333,562.167 547,578.5C 541.25,579.641 535.416,579.807 529.5,579C 528.874,578.25 528.374,577.416 528,576.5C 527.333,549.833 527.333,523.167 528,496.5C 528.5,496 529,495.5 529.5,495C 534.833,494.333 540.167,494.333 545.5,495C 546,495.5 546.5,496 547,496.5C 547.333,499.833 547.667,503.167 548,506.5C 552.611,499.792 558.777,495.459 566.5,493.5 Z"/></g>
<g><path style="opacity:1" fill="#100f0f" d="M 264.5,529.5 C 272.491,529.654 275.991,533.654 275,541.5C 271.96,547.368 267.46,548.868 261.5,546C 255.503,539.153 256.503,533.653 264.5,529.5 Z"/></g>
<g><path style="opacity:1" fill="#0e0e0e" d="M 751.5,542.5 C 758.09,542.189 764.59,542.522 771,543.5C 772.918,554.16 768.751,561.327 758.5,565C 752.245,566.127 746.245,565.46 740.5,563C 739.299,562.097 738.465,560.931 738,559.5C 736.466,554.16 737.633,549.66 741.5,546C 744.85,544.514 748.184,543.347 751.5,542.5 Z"/></g>
</svg>
